<svg xmlns="http://www.w3.org/2000/svg" viewBox="0 0 450 450"><path fill="#5091CD" d="M174.4 286.5c-2.9 0-5.3 2.2-5.3 5.1 0 2.9 2.4 5.1 5.3 5.1s5.3-2.2 5.3-5.1C179.7 288.7 177.3 286.5 174.4 286.5"/><path fill="#5091CD" d="M192.6 312.6c0-2.1 0.6-4 1.8-5.3 1.2-1.3 2.8-2 4.8-2 2.4 0 4 0.7 4.9 2.1 0.9 1.4 1.4 3.2 1.4 5.2H192.6zM213.7 308.2c-0.5-1.8-1.4-3.4-2.6-4.7 -1.2-1.4-2.7-2.5-4.7-3.3 -1.9-0.8-4.2-1.2-7-1.2 -2.1 0-4.1 0.3-6.2 1 -2 0.7-3.8 1.7-5.4 3.1 -1.6 1.4-2.9 3.2-3.8 5.3 -1 2.1-1.4 4.7-1.4 7.6 0 3.6 0.5 6.6 1.6 9 1.1 2.4 2.5 4.3 4.2 5.7 1.7 1.4 3.7 2.4 5.9 3 2.2 0.6 4.5 0.8 6.8 0.8 2.5 0 4.7-0.3 6.6-0.8 1.9-0.5 3.3-1.2 4.4-1.9 1.2-0.8 1.8-1.8 1.8-2.8 0-0.7-0.3-1.6-1-2.7 -0.6-1.1-1.3-2-1.8-2.7 -0.4 0.4-0.9 0.8-1.5 1.2 -0.5 0.4-1.2 0.9-1.9 1.2 -0.7 0.4-1.6 0.7-2.5 1 -0.9 0.3-2 0.4-3.2 0.4 -3.2 0-5.5-0.9-7-2.6 -1.5-1.7-2.3-3.9-2.5-6.4h21.6c0-0.2 0.1-0.6 0.1-1 0-0.4 0-0.8 0.1-1.2 0-0.4 0-0.8 0-1.2v-1C214.5 311.9 214.3 310 213.7 308.2"/><path fill="#5091CD" d="M179.4 299.4h-4.3c-3.8 0-5.7 2.6-5.7 5.9V334h10V299.4z"/><path fill="#5091CD" d="M174.4 339.9c-2.9 0-5.3 2.2-5.3 5.1 0 2.9 2.4 5.1 5.3 5.1s5.3-2.2 5.3-5.1C179.7 342 177.3 339.9 174.4 339.9"/><path fill="#5091CD" d="M169.4 358.6v28.8h10v-34.7h-4.3C171.3 352.7 169.4 355.3 169.4 358.6"/><path fill="#5091CD" d="M122.6 305.8c3.7 0 6.3 3.3 6.3 7.6l0 0.1v7.9 2.6c-1.6 2.2-4.2 3.5-6.5 3.5 -5.6 0-7.4-4.9-7.4-10.8C115 309.4 118 305.8 122.6 305.8M120.1 334.4c3.5 0 6.8-1.7 8.9-3.8 0.5 2.7 2.2 3.4 5.4 3.4h4.4v-34.7h-4.5c-3 0-4.4 1.7-5 3.3l0-0.1c0 0.1 0 0.1-0.1 0.2 -1.9-2.3-5-3.9-8.9-3.9 -7.7 0-15.4 6.3-15.4 18.3C105 326.3 110.3 334.4 120.1 334.4"/><path fill="#5091CD" d="M91.4 379.1c-5.5 0-13.2-3.7-13.2-16.7 0-11.6 6.3-15.6 13-15.6 2.8 0 6.7 0.6 10.5 3.2l1.5-3.8c1.9-4.6-3.5-7.7-12.2-7.7 -14.4 0-23.1 11.3-23.1 24.5 0 13.3 6.7 24.7 22.6 24.7 3.3 0 6.3-0.4 8.8-1.1 2.5-0.7 4.5-1.5 5.9-2.5l-2.7-7.8C99.2 378.1 95.1 379.1 91.4 379.1"/><path fill="#5091CD" d="M133.2 352.7h-4.3l0 25.2c-2.3 1.2-5.2 2-6.6 2 -1.3 0-2.3-0.2-3-0.5 -0.7-0.4-1.2-0.9-1.5-1.5 -0.3-0.6-0.5-1.4-0.6-2.3 -0.1-0.9-0.1-1.9-0.1-2.9v-14c0-3.3-1.8-5.8-5.7-5.8h-4.3V373c0 1.2 0 2.5 0.1 3.8 0.1 1.3 0.2 2.6 0.5 3.7 0.5 2.2 1.6 3.9 3.2 5.3 1.7 1.3 4.2 2 7.7 2 2.7 0 7.1-1 10.4-4 0.5 2.8 2.1 3.6 5.4 3.6h4.4v-28.8C138.9 355.3 137 352.7 133.2 352.7"/><path fill="#5091CD" d="M161.4 298.8c-3.4 0-6 2.2-7.6 4.2 -0.7-2.1-2.4-3.6-5.3-3.6h-4.3V334h10v-20.9l0 0.1c0-8.3 7.3-8.1 11.1-5.4l0.8-4.1C166.9 299.3 162.9 298.8 161.4 298.8"/><path fill="#5091CD" d="M192.6 366c0-2.1 0.6-4 1.8-5.3 1.2-1.3 2.8-2 4.8-2 2.4 0 4 0.7 4.9 2.1 0.9 1.4 1.4 3.2 1.4 5.2H192.6zM211.1 356.8c-1.2-1.4-2.7-2.5-4.7-3.3 -1.9-0.8-4.2-1.2-7-1.2 -2.1 0-4.1 0.3-6.2 1 -2 0.7-3.8 1.7-5.4 3.1 -1.6 1.4-2.9 3.2-3.8 5.3 -1 2.1-1.4 4.7-1.4 7.6 0 3.6 0.5 6.6 1.6 9 1.1 2.4 2.5 4.2 4.2 5.7 1.7 1.4 3.7 2.4 5.9 3 2.2 0.6 4.5 0.8 6.8 0.8 2.5 0 4.7-0.3 6.6-0.8 1.9-0.5 3.3-1.2 4.4-1.9 1.2-0.8 1.8-1.8 1.8-2.8 0-0.7-0.3-1.6-1-2.7 -0.6-1.1-1.3-2-1.8-2.7 -0.4 0.4-0.9 0.8-1.5 1.2 -0.5 0.4-1.2 0.9-1.9 1.2 -0.7 0.4-1.6 0.7-2.5 1 -0.9 0.3-2 0.4-3.2 0.4 -3.2 0-5.5-0.9-7-2.6 -1.5-1.7-2.3-3.9-2.5-6.4h21.6c0-0.2 0.1-0.6 0.1-1 0-0.4 0-0.8 0.1-1.2 0-0.4 0-0.8 0-1.2v-1c0-2-0.3-3.8-0.8-5.6C213.2 359.8 212.3 358.2 211.1 356.8"/><path fill="#5091CD" d="M161.4 352.2c-3.4 0-6 2.2-7.6 4.2 -0.7-2.1-2.4-3.6-5.3-3.6h-4.3v34.6h10v-20.9l0 0.1c0-8.3 7.3-8.1 11.1-5.4l0.8-4.1C166.9 352.7 162.9 352.2 161.4 352.2"/><path fill="#5091CD" d="M76.6 326.6h3.3l10.4-21.9 2 29.3h9.7l-3.6-48h-9.2L76 315.2 62.9 286h-9.3L50 334h9.7l2-29.3 8.7 18.6C71.8 326.3 73.4 326.6 76.6 326.6"/><path fill="#FFD600" d="M394.5 253.1c-8.8-14.6-24-27.5-42.8-36 -12.7-5.7-20.4-6.1-32.3-8.2 12.3-2.9 17.1-3.8 25.2-9.7 24.4-17.8 49.8-59.2 39.8-70.6 -12.4-14-37.9-10.5-63.9-1.4 -1.4 0.5-2.8 1.1-4.2 1.7 -2.7-24.7 1.8-54.7-14.7-67.5 -11.9-9.2-53 32.5-65.9 61.1 -18.7-10-51.9-33.2-70.2-28.5 -9.8 2.6-10.7 48.1 1 69.3 7.3 13.4 44.9 29.7 67.5 39.5l-8.3-2.9c-23.8-9.3-50.5-18.5-73.7-9.4 -28 11-64.5 47.1-60.2 56.7 12.8 28.8 86 30.8 125.8 20.1 20.5-5.5 37.8-30.9 17-3.7 -11.2 14.6-6.4 51.6 1.8 69.8 12.8 28.3 41.6 58.8 57 56.1 15.4-2.7 32.9-54.3 30.4-80.4 -1.3-14-10.8-31.1-19.5-43.2 3.3 2.2 7.7 6.3 15.7 8.4C352.3 282.9 419.6 289.9 394.5 253.1"/><path fill="#F99D2A" d="M309.7 174.1c-1.7-5-4.5-10.6-10.6-15.6 -1-0.8-2.1-1.5-3.3-2.2 -0.1-2.8-0.8-6.4-2.5-9.3 -1.9-3.3-4.3-5.3-6.1-6.6 -0.8-0.6-2.3-1.5-2.9-1.8l-0.5-0.2 -0.1 0 -0.8-0.4 -0.4-0.2 -1.5-0.6c-4-1.3-7.2-1.2-9.5-1 -4.4 0.6-6.9 1.6-8.9 2.5 -4 1.7-6.7 3.4-9.2 4.9 -0.3 0.2-0.7 0.4-1.1 0.6 -0.1-0.1-0.2-0.2-0.3-0.3 -1.8-1.6-3.5-2.8-5.5-3.8 -2-1-4.4-1.7-6.8-1.9 -2.4-0.2-4.7 0.1-6.9 0.7 -2.9 0.7-5.9 1.9-8.7 3.4 -1.7 0.9-3.5 1.6-5.2 2.4 -1.5 0.7-2.6 1.3-4.2 2.2 -3.1 1.8-5.8 3.9-8.1 6.4 -1.1 1.2-2.2 2.5-3 3.9 -0.5 0.7-1 1.5-1.2 1.9l-0.7 1.2c-0.3 0.5-0.5 1-0.8 1.5 -1 2.1-1.7 4.6-1.8 7.3 0 1.3 0 2.6 0.3 3.9 0.2 1.2 0.5 2.4 0.7 2.6 1.4 3 2.8 2.6 4.3 4.2 0.9 0.8 0.5 1.9 0.1 2.5 -0.5 0.7-1.1 1-1.9 1.4 -0.8 0.5-1.4 0.6-2.1 1.7 -2.2 3.2-1.8 3.8-2.4 5.4 -0.3 1.5-0.5 3.1-0.3 4.9 0.2 3.7 2.4 7.3 4.6 9.1 2.1 1.9 4.2 3 6 3.8 3.6 1.6 6.8 2.4 9.7 3.3 2.2 0.7 4.1 1.5 5.3 2.3 0.1 2.4 0.7 4.8 1.9 6.6 1.7 2.8 4 4.8 6.4 6.3 4.9 3.1 10.5 4.5 16.3 4.9 11.3 0.8 24.8-3 34.9-11.6 -10.4 2.7-18.5 1.7-22.8 0.3 -2.2-0.3-4.3-2.1-4.7-2.5 -8.6-7.9 6.8-5.8 6.8-5.8s-6.2-2.3-9.3-8.2c-1.9-3.6 0.7-9.2 6-7 4.9 3.7 1.6-2 1.6-2s-3.5-9.1 1.9-14c2.8-2.5 8.9 0.2 10.6 5.9 2.4 6.8 2.3 2.4 6.1-0.5 3.8-2.9 15.8-2.2 11.3 12.2 -1.9 6.2-3.1 11.7 2 16.1 3.9-2.3 6-3.4 8.8-5.8 2.8-2.4 4.1-3.4 6.7-8.4C311.6 193.4 312.9 184.3 309.7 174.1"/><path fill="#FFFFFF" d="M218 134.1c1.4 3.3 1 3.9 0.5 4.6 -0.3 0.4-0.8 0.5-1.3 0.3 -0.7 0.1-1.4-0.3-2.2-0.7 -0.3-0.1-0.7-0.5-1-0.7l-0.3-0.2c-0.4-0.4-1.7-1.7-3.1-3l-1.8-1.8 -2-2.1c-3.2-3.2-6.3-6.7-5.8-7.1 0 0 1.2 1.1 2.8 1.8 1.3 0.5-0.7-2-0.7-2 2.3 1.4 8 3.1 12.7 7.1L218 134.1z"/><path fill="#FFFFFF" d="M283.8 112.5c1.3-0.8 2.7-0.6 3.5-0.1l0.5 0.2c0.4 0.4 1 0.8 0.7 1.4l0 0.4c-0.2 2-0.7 4-0.7 5.8 -0.4 1.9-0.8 4-0.8 5.1l-0.5 0.9c-0.2 0.6-0.4 1.6-0.4 1.8 0 0.2-1 1.6-1.4 1.8 -0.4 0.3-2.7 0.1-5.7-1.6l0.3-7.3C279.3 117 282 113.5 283.8 112.5"/><path fill="#FFFFFF" d="M283.3 253c-0.1 0.5-0.1 1.3 0.2 2.4l-0.4 0.5c-0.3 1-0.4 3.9-0.5 4.8 -0.2 1-1.9 3.9-2.5 4.3 -0.3 1.1-1.4 3-1.5 2.7 0 0-0.6-1.6-1-2.6 1.6-3.2-0.6-5.4-0.6-5.4 -0.7-3 0-2.8-0.2-4.1 -0.4-1.6-0.9-4.3-1.5-6.8l-0.2-1.6 -0.1-1.9c0.4-0.5 1.2-1.6 1.6-2.9l0.6 0.1c1.6 0.4 3.1 1.8 3.9 3.1 0.8 1.2 1.7 3.2 1.7 4.7C283.2 250.9 283.6 252.5 283.3 253"/><path fill="#FFFFFF" d="M210.9 214.3c4.3 0 4.7 0.8 5.1 1.8 0.2 0.6 0 1.3-0.6 1.8 -0.4 0.8-1.2 1.5-2.2 2.3 -0.3 0.3-1 0.6-1.4 0.9l-0.5 0.3c-0.7 0.3-2.9 1.2-5.2 2.3l-3.1 1.3 -3.5 1.4c-5.4 2.2-11.1 4.2-11.1 3.4 0 0 1.9-0.9 3.7-2.6 1.4-1.4-2.5-0.2-2.5-0.2 3-2.1 8.6-8.3 15.9-11.9L210.9 214.3z"/><path fill="#FFFFFF" d="M311.3 219.2l1.4-0.3c1.6 0.4 4.1 0.9 4.4 1 0 0.1 0.8 0.5 1.8 1l0.5 0.6 1.4 1c1.4 1.5 3.4 3.3 4.2 4.1l0.7 0.7 0.6 0.8c0.9 0.9 1.5 1.7 1.5 1.7 0.1 0-0.8-0.2-2-0.3 -1.2-0.2-5.7-1.2-6.8-1.6 -1.8-0.2-3.9-0.6-5.2-0.8l-0.7-0.4 -1.1-0.2c-0.7-0.3-3.2-2.4-4.8-4.2l1-1.2C308.2 220.1 309.1 219.5 311.3 219.2"/><path fill="#FFFFFF" d="M300.3 233.2l0.3 1.3c1 1.2 2.6 3.3 2.8 3.4 0.1 0 0.8 0.4 1.7 1.1l0.8 0.2 1.6 0.8c2 0.6 4.5 1.6 5.7 2l1 0.3 1 0.2c1.2 0.4 2.2 0.6 2.2 0.6 0 0.1-0.5-0.6-1.1-1.6 -0.7-1-3.5-4.5-4.4-5.3 -1-1.5-2.2-3.2-3-4.2l-0.7-0.5 -0.7-0.9c-0.6-0.5-3.6-1.8-6-2.4l-0.7 1.3C299.8 230.1 299.7 231.2 300.3 233.2"/><path fill="#FFFFFF" d="M218 241.5c-0.4 0.1-1 0.5-1.7 1.2l-0.5-0.1c-0.8 0.2-2.9 1.4-3.5 1.7 -0.8 0.3-3.4 0.3-3.9-0.1 -0.9 0.2-2.6 0.2-2.4 0 0 0 1-1.1 1.5-1.8 2.8-0.2 3.6-2.7 3.6-2.7 1.9-1.8 2-1.2 2.9-1.8 1-1 2.7-2.5 4.3-3.9l1-0.8 1.3-0.9c0.5 0.1 1.5 0.2 2.5-0.1l0.1 0.5c0.3 1.3-0.2 3-0.9 4.2 -0.6 1.1-1.7 2.6-2.7 3.2C219.4 240.6 218.4 241.6 218 241.5"/><path fill="#FFFFFF" d="M328.8 174.3c0.4-0.3 1.1-0.6 2.2-0.8l0.2-0.5c0.7-0.7 3.1-1.9 3.9-2.3 0.7-0.6 2.4-3 2.3-3.6 0.7-0.7 1.8-2.3 1.5-2.2 0 0-1.8 0.2-2.8 0.3 -1.9 2.5-5 1.7-5 1.7 -3 0.7-2.4 1.1-3.7 1.5 -1.6 0.3-4.2 1-6.7 1.6l-1.5 0.5 -1.7 0.7c-0.2 0.5-0.7 1.5-1.6 2.3l0.5 0.4c1.2 1.1 3.2 1.6 4.8 1.7 1.5 0.2 3.7 0 5-0.6C327 175 328.6 174.8 328.8 174.3"/><path fill="#FFFFFF" d="M321.2 151.1c1.6-0.6 2.5-0.2 2.6 0.4l0.2 0.3c-0.1 0.4 0 0.9-0.9 1.5l-0.4 0.4c-1.9 1.6-3.8 2.9-5.1 4.1 -1.4 1-2.8 2.1-3.4 2.6l-0.6 0.3c-0.3 0.2-0.9 0.6-1 0.7 -0.1 0.1-1 0.4-1.2 0.4 -0.2 0-0.7-0.7-0.8-2.1l3.1-3.4C315.9 153.8 319.4 151.7 321.2 151.1"/><path fill="#FFFFFF" d="M257.7 252.4c0.1 0.4 0 1-0.3 2l0.3 0.4c0.2 0.8 0.2 3.1 0.2 3.8 0.1 0.8 1.4 3.1 1.9 3.3 0.2 0.8 1 2.3 1.1 2.1 0 0 0.6-1.4 1-2.2 -1.2-2.5 0.7-4.4 0.7-4.4 0.7-2.5 0.1-2.3 0.3-3.3 0.4-1.3 1-3.5 1.5-5.6l0.2-1.3 0.1-1.5c-0.3-0.4-0.9-1.2-1.2-2.2l-0.5 0.2c-1.3 0.4-2.6 1.6-3.4 2.7 -0.7 1-1.5 2.6-1.6 3.9C257.9 250.8 257.5 252.1 257.7 252.4"/><path fill="#FFFFFF" d="M202.9 148.6c3 0.4 3.5 0 4-0.7 0.3-0.4 0.3-0.9 0.1-1.3 0-0.6-0.4-1.2-0.9-1.8 -0.1-0.2-0.6-0.5-0.7-0.8l-0.2-0.2c-0.4-0.3-1.6-1.1-2.9-2.1l-1.8-1.2 -2-1.4c-3.1-2.1-6.5-4.1-6.7-3.5 0 0 1.1 0.8 1.9 2.2 0.5 1.1-1.8-0.1-1.8-0.1 1.5 1.8 3.7 6.6 7.7 10L202.9 148.6z"/><path fill="#FFFFFF" d="M266 116.7c0.5-0.3 1.2-0.1 1.6 0.3l0.2 0.2c0.2 0.3 0.6 0.6 0.5 1l0 0.3c0.1 1.2 0.2 2.4 0.4 3.5 0 1.1 0.1 2.4 0.2 3.1l-0.1 0.5c0 0.3 0 1 0 1.1 0 0.1-0.3 0.9-0.4 1 -0.2 0.1-1.3-0.3-2.9-1.7l-0.7-4.6C264.5 119 265.3 117.1 266 116.7"/></svg>