<svg xmlns="http://www.w3.org/2000/svg" viewBox="0 0 560 270"><path fill="#FFFFFF" d="M0.1 121c-0.3 40.6 0.2 94.2 2.3 112.5 2.5 21.3 16.1 30 33.3 32.3 5.4 0.7 50.1 4.8 105.6 4.5 93.8-0.6 241-2 257.7-1.7 26.4 0.6 100.3-5.4 123-8.4 19.2-2.5 31-18.1 32.8-32.9 1.1-8.7 5-39.5 5.4-87.9 0.4-51.7-2.6-84.4-3.9-105.5 -1-17.7-14.8-31-32-32C503.5 0.7 421.7-1 372.9 0.8c-35.6 1.3-105 1.8-197.4 2C108.9 2.9 54 4.1 44.7 4.1 24.1 4.1 10.5 16.4 8 34.4 8 34.4 0.4 79.5 0.1 121z"/><path fill="#FFCD00" d="M243.1 153c-5.4-9.2-14.8-17.5-26.4-22.9 -7.8-3.6-12.6-3.9-20-5.2 7.6-1.8 10.5-2.4 15.5-6.2 15.1-11.3 30.7-37.6 24.6-44.8 -7.6-8.9-23.4-6.7-39.5-0.9 -0.9 0.3-1.7 0.7-2.6 1.1 -1.7-15.7 1.1-34.8-9.1-42.9 -7.4-5.9-32.7 20.6-40.7 38.8C133.4 63.8 112.9 49 101.6 52c-6.1 1.6-6.6 30.5 0.6 44 4.5 8.5 27.7 18.9 41.6 25.1l-5.1-1.9c-14.7-5.9-31.2-11.7-45.5-6 -17.3 7-39.8 29.9-37.2 36 7.9 18.3 53.1 19.6 77.6 12.8 12.7-3.5 23.3-19.6 10.5-2.3 -6.9 9.3-4 32.8 1.1 44.3 7.9 18 25.7 37.4 35.2 35.6 9.5-1.7 20.3-34.5 18.8-51.1 -0.8-8.9-6.6-19.7-12-27.5 2 1.4 4.8 4 9.7 5.3C217.1 171.9 258.6 176.4 243.1 153"/><path fill="#FF9E1B" d="M190.8 102.8c-1-3.2-2.8-6.8-6.5-9.9 -0.6-0.5-1.3-1-2.1-1.4 0-1.7-0.5-4-1.6-5.9 -1.2-2.1-2.6-3.4-3.8-4.2 -0.5-0.4-1.4-1-1.8-1.2l-0.3-0.1 -0.1 0 -0.5-0.2 -0.2-0.1 -0.9-0.4c-2.5-0.8-4.4-0.8-5.9-0.6 -2.7 0.4-4.2 1-5.5 1.6 -2.5 1.1-4.1 2.2-5.7 3.1 -0.2 0.1-0.4 0.3-0.7 0.4 -0.1-0.1-0.1-0.1-0.2-0.2 -1.1-1-2.2-1.8-3.4-2.4 -1.2-0.6-2.7-1.1-4.2-1.2 -1.5-0.1-2.9 0.1-4.3 0.4 -1.8 0.4-3.6 1.2-5.4 2.1 -1.1 0.6-2.2 1-3.2 1.5 -0.9 0.4-1.6 0.8-2.6 1.4 -1.9 1.1-3.6 2.5-5 4.1 -0.7 0.8-1.3 1.6-1.9 2.5 -0.3 0.4-0.6 1-0.7 1.2l-0.4 0.7c-0.2 0.3-0.3 0.6-0.5 1 -0.6 1.3-1.1 2.9-1.1 4.6 0 0.8 0 1.7 0.2 2.5 0.1 0.8 0.3 1.5 0.4 1.7 0.8 1.9 1.7 1.7 2.6 2.7 0.5 0.5 0.3 1.2 0 1.6 -0.3 0.4-0.7 0.7-1.2 0.9 -0.5 0.3-0.8 0.4-1.3 1.1 -1.4 2-1.1 2.4-1.5 3.4 -0.2 0.9-0.3 2-0.2 3.1 0.1 2.3 1.5 4.6 2.8 5.8 1.3 1.2 2.6 1.9 3.7 2.4 2.2 1 4.2 1.5 6 2.1 1.3 0.4 2.5 1 3.3 1.4 0 1.5 0.5 3 1.2 4.2 1.1 1.8 2.5 3 4 4 3 1.9 6.5 2.9 10 3.1 7 0.5 15.3-1.9 21.6-7.4 -6.4 1.7-11.4 1.1-14.1 0.2 -1.4-0.2-2.6-1.3-2.9-1.6 -5.3-5 4.2-3.7 4.2-3.7s-3.8-1.5-5.8-5.2c-1.2-2.3 0.4-5.9 3.7-4.4 3 2.4 1-1.3 1-1.3s-2.2-5.8 1.2-8.9c1.7-1.6 5.5 0.1 6.5 3.8 1.5 4.3 1.4 1.5 3.8-0.3 2.3-1.9 9.7-1.4 7 7.8 -1.2 3.9-1.9 7.4 1.3 10.2 2.4-1.5 3.7-2.1 5.5-3.7 1.7-1.5 2.5-2.1 4.1-5.3C191.9 115.1 192.7 109.3 190.8 102.8"/><path fill="#0065BD" d="M107.2 174.2c-1.8 0-3.3 1.4-3.3 3.3 0 1.9 1.5 3.3 3.3 3.3s3.3-1.4 3.3-3.3C110.5 175.6 109 174.2 107.2 174.2"/><path fill="#0065BD" d="M118.5 190.8c0-1.3 0.4-2.5 1.1-3.4 0.7-0.8 1.7-1.3 3-1.3 1.5 0 2.5 0.4 3 1.3 0.6 0.9 0.8 2.1 0.8 3.3H118.5zM131.5 188c-0.3-1.1-0.9-2.1-1.6-3 -0.7-0.9-1.7-1.6-2.9-2.1 -1.2-0.5-2.6-0.8-4.3-0.8 -1.3 0-2.6 0.2-3.8 0.6 -1.2 0.4-2.3 1.1-3.3 2 -1 0.9-1.8 2-2.3 3.4 -0.6 1.4-0.9 3-0.9 4.8 0 2.3 0.3 4.2 1 5.7 0.7 1.5 1.5 2.7 2.6 3.6 1.1 0.9 2.3 1.5 3.7 1.9 1.4 0.4 2.8 0.5 4.2 0.5 1.6 0 2.9-0.2 4.1-0.5 1.2-0.3 2.1-0.8 2.7-1.2 0.8-0.5 1.1-1.1 1.1-1.8 0-0.4-0.2-1-0.6-1.7 -0.4-0.7-0.8-1.3-1.1-1.7 -0.3 0.2-0.6 0.5-0.9 0.8 -0.3 0.3-0.7 0.5-1.2 0.8 -0.5 0.2-1 0.4-1.5 0.6 -0.6 0.2-1.2 0.2-2 0.2 -2 0-3.4-0.5-4.3-1.6 -0.9-1.1-1.4-2.4-1.5-4.1h13.3c0-0.2 0.1-0.3 0.1-0.6 0-0.2 0-0.5 0-0.8 0-0.3 0-0.5 0-0.8v-0.6C132 190.3 131.8 189.1 131.5 188"/><path fill="#0065BD" d="M110.3 182.4h-2.7c-2.4 0-3.5 1.6-3.5 3.7v18.3h6.1V182.4z"/><path fill="#0065BD" d="M107.2 208.1c-1.8 0-3.3 1.4-3.3 3.3 0 1.9 1.5 3.3 3.3 3.3s3.3-1.4 3.3-3.3C110.5 209.5 109 208.1 107.2 208.1"/><path fill="#0065BD" d="M104.2 220v18.3h6.1v-22h-2.7C105.3 216.2 104.2 217.9 104.2 220"/><path fill="#0065BD" d="M75.3 186.4c2.3 0 3.9 2.1 3.9 4.8l0 0.1v5 1.7c-1 1.4-2.6 2.2-4 2.2 -3.4 0-4.6-3.1-4.6-6.8C70.6 188.7 72.4 186.4 75.3 186.4M73.7 204.6c2.2 0 4.2-1.1 5.5-2.4 0.3 1.7 1.3 2.2 3.3 2.2h2.7v-22h-2.8c-1.9 0-2.7 1.1-3.1 2.1l0 0c0 0 0 0.1 0 0.1 -1.2-1.5-3.1-2.5-5.5-2.5 -4.7 0-9.5 4-9.5 11.7C64.4 199.5 67.7 204.6 73.7 204.6"/><path fill="#0065BD" d="M56 233c-3.4 0-8.2-2.3-8.2-10.6 0-7.4 3.9-9.9 8-9.9 1.8 0 4.1 0.4 6.5 2l0.9-2.4c1.2-2.9-2.2-4.9-7.5-4.9 -8.9 0-14.3 7.2-14.3 15.6 0 8.4 4.1 15.7 14 15.7 2.1 0 3.9-0.2 5.4-0.7 1.6-0.5 2.8-1 3.6-1.6l-1.7-4.9C60.8 232.3 58.3 233 56 233"/><path fill="#0065BD" d="M81.8 216.2h-2.7l0 16c-1.4 0.8-3.2 1.2-4.1 1.2 -0.8 0-1.4-0.1-1.8-0.3 -0.4-0.2-0.8-0.5-1-0.9 -0.2-0.4-0.3-0.9-0.4-1.5 0-0.6-0.1-1.2-0.1-1.9v-8.9c0-2.1-1.1-3.7-3.5-3.7h-2.7v12.9c0 0.8 0 1.6 0.1 2.4 0 0.8 0.1 1.7 0.3 2.3 0.3 1.4 1 2.5 2 3.3 1 0.8 2.6 1.3 4.7 1.3 1.7 0 4.4-0.6 6.4-2.5 0.3 1.8 1.3 2.3 3.3 2.3h2.7V220C85.3 217.9 84.2 216.2 81.8 216.2"/><path fill="#0065BD" d="M99.2 182c-2.1 0-3.7 1.4-4.7 2.7 -0.4-1.4-1.5-2.3-3.3-2.3h-2.7v22h6.1v-13.3l0 0.1c0-5.3 4.5-5.1 6.9-3.4l0.5-2.6C102.6 182.3 100.1 182 99.2 182"/><path fill="#0065BD" d="M118.5 224.7c0-1.3 0.4-2.5 1.1-3.4 0.7-0.8 1.7-1.3 3-1.3 1.5 0 2.5 0.4 3 1.3 0.6 0.9 0.8 2.1 0.8 3.3H118.5zM129.9 218.8c-0.7-0.9-1.7-1.6-2.9-2.1 -1.2-0.5-2.6-0.8-4.3-0.8 -1.3 0-2.6 0.2-3.8 0.6 -1.2 0.4-2.3 1.1-3.3 2 -1 0.9-1.8 2-2.3 3.4 -0.6 1.4-0.9 3-0.9 4.8 0 2.3 0.3 4.2 1 5.7 0.7 1.5 1.5 2.7 2.6 3.6 1.1 0.9 2.3 1.5 3.7 1.9 1.4 0.4 2.8 0.5 4.2 0.5 1.6 0 2.9-0.2 4.1-0.5 1.2-0.3 2.1-0.8 2.7-1.2 0.8-0.5 1.1-1.1 1.1-1.8 0-0.4-0.2-1-0.6-1.7 -0.4-0.7-0.8-1.3-1.1-1.7 -0.3 0.2-0.6 0.5-0.9 0.8 -0.3 0.3-0.7 0.5-1.2 0.8 -0.5 0.2-1 0.4-1.5 0.6 -0.6 0.2-1.2 0.2-2 0.2 -2 0-3.4-0.5-4.3-1.6 -0.9-1.1-1.4-2.4-1.5-4.1h13.3c0-0.2 0.1-0.4 0.1-0.6 0-0.2 0-0.5 0-0.8 0-0.3 0-0.5 0-0.8v-0.6c0-1.2-0.2-2.4-0.5-3.6C131.2 220.7 130.7 219.7 129.9 218.8"/><path fill="#0065BD" d="M99.2 215.9c-2.1 0-3.7 1.4-4.7 2.7 -0.4-1.4-1.5-2.3-3.3-2.3h-2.7v22h6.1v-13.3l0 0.1c0-5.3 4.5-5.1 6.9-3.4l0.5-2.6C102.6 216.2 100.1 215.9 99.2 215.9"/><path fill="#0065BD" d="M46.9 199.7h2l6.4-13.9 1.3 18.6h6l-2.2-30.5h-5.7l-8.1 18.5 -8.1-18.5h-5.7l-2.2 30.5h6l1.3-18.6 5.4 11.8C43.9 199.5 44.9 199.7 46.9 199.7"/><path fill="#FFFFFF" d="M133.9 78.1c0.6 2.2 0.3 2.6-0.1 3 -0.2 0.2-0.5 0.3-0.8 0 -0.4 0-0.8-0.3-1.3-0.6 -0.2-0.1-0.4-0.4-0.6-0.5l-0.2-0.2c-0.2-0.3-0.9-1.2-1.7-2.1l-0.9-1.3 -1.1-1.5c-1.7-2.3-3.1-4.9-2.9-4.9 0.2-0.1 0.9 0.6 1.5 0.6 0.9 0 6.4 3.9 7 5C133.5 76.7 133.9 78.1 133.9 78.1z"/><path fill="#FFFFFF" d="M175.1 64.2c-1.3 0.9-2.4 2.1-3.2 4.4 0 0-0.9 2.9-0.8 4.6 0.1 1.7 3.1 1.6 3.4 1.4 0.3-0.1 0.8-0.5 1.4-2.1 0 0 0.7-2 1.3-3.7 0.6-1.6 0.6-2.2 0.7-3.4 0 0 0.1-2-0.3-2.3 -0.4-0.3-0.6-0.1-1.5 0.3L175.1 64.2z"/><path fill="#FFFFFF" d="M174.5 152.9c-0.1 0.3 0.1 1.3 0.1 1.6 0 0.2-0.2 0.8-0.2 0.8 -0.2 0.6-0.1 1.5-0.4 2.6 -0.2 1.1-1.2 2.1-1.6 2.7 -0.3 0.6-0.7 1.7-0.9 1.7 -0.3 0-0.9-0.8-0.6-1.7 0.3-0.8-0.4-3.4-0.4-3.4 -0.4-1.9 0-1.8-0.1-2.6 -0.2-1-0.6-2.7-0.9-4.3l-0.1-1c0 0-0.1-0.8 0-1.2 0-0.4 0.1-1.5 1-1.8 0.8-0.3 2.3 1.2 2.8 2.1 0.5 0.8 1.1 2 1.1 3C174.4 151.6 174.7 152.6 174.5 152.9"/><path fill="#FFFFFF" d="M128.1 129.9c2.6 0 2.8 0.5 3.1 1.1 0.1 0.4-0.2 0.7-0.4 1.1 -0.2 0.4-0.7 0.9-1.3 1.4 -0.2 0.2-0.6 0.4-0.8 0.5l-0.3 0.2c-0.4 0.2-1.7 0.8-3.1 1.4l-1.8 0.8 -2.1 0.9c-3.3 1.4-6.7 2.6-6.7 2.1 0 0 0.1-0.2 1.2-1.2 0.8-0.8 0.2-0.4-0.4-0.5 -0.6-0.1 7.2-6.6 9.2-7.2C126.5 130 128.1 129.9 128.1 129.9z"/><path fill="#FFFFFF" d="M191.7 131.5c0 0 0.2-0.1 0.8-0.2 0.7-0.1 2.3 0.4 2.7 0.6 0.4 0.2 0.9 0.6 1.4 1 0.5 0.4 2.9 2.8 3.5 3.3l0.8 1c0.6 0.5 1.1 0.8 0.9 1.1 -0.2 0.2-0.9-0.2-1.7-0.3 -0.8-0.1-2.7-0.7-3.7-0.9 -0.9-0.2-2.9-0.5-3.2-0.5 -0.3-0.1-0.2-0.2-0.4-0.3 -0.2-0.1-1.1-0.2-1.5-0.5 -0.4-0.3-2-1.8-2.1-2.3 -0.1-0.5 0.6-0.8 0.6-0.8C189.8 132.1 190.4 131.6 191.7 131.5"/><path fill="#FFFFFF" d="M185 140.4c0 0 0 0.4 0.2 0.8 0.2 0.4 1.5 1.8 1.7 2.2 0.3 0.3 0.8 0.7 1.3 0.9 0.4 0.2 1.2 0.5 1.2 0.5 1.2 0.4 1.6 0.3 2.3 0.6l1.2 0.4c0.7 0.3 1.2 0.6 1.4 0.4 0.1-0.2-0.3-0.4-0.7-1 -0.4-0.6-0.9-2.2-1.5-2.7 -0.6-1-1.2-1.9-1.5-2.3 -0.2-0.3-0.6-0.5-0.7-0.7 -0.1-0.2 0-0.2-0.4-0.6 -0.4-0.4-3.2-1.7-3.7-1.5 -0.5 0.2-0.4 0.9-0.4 0.9C184.7 138.4 184.6 139.1 185 140.4"/><path fill="#FFFFFF" d="M132.3 146.6c-0.5 0.1-1.2 0.6-1.6 0.8 -0.5 0.2-1.5 0.1-2.4 0 -0.9-0.1-1.4 0.2-1.5 0 -0.1-0.1 0.3-1 0.9-1.2 1.4-0.3 2.2-1.7 2.2-1.7 1.2-1.1 1.2-0.7 1.8-1.2 0.6-0.6 1.7-1.6 2.7-2.5l0.6-0.5c0 0 0.5-0.4 0.8-0.5 0.3-0.1 1.1-0.2 1.3-0.1 0.7 0.4 0.2 2.3-0.2 3 -0.4 0.7-1.1 1.6-1.7 2C134.1 145.6 132.3 146.6 132.3 146.6z"/><path fill="#FFFFFF" d="M201 103.5c-0.9 0.2-2.2 0.5-3.1 0.4 -1-0.1-3.3-0.3-3.3-1.4 0-1.1 2.9-2.2 2.9-2.2 1.5-0.4 3.1-0.8 4.1-1 0.7-0.2 0.4-0.5 2.3-1 0 0 2.3-0.5 3.1-1.1 0.8-0.6 1.7-0.3 1.7-0.2 0 0.2-0.4 0.5-0.9 1.4 -0.2 0.3-0.7 1.7-1.4 2.3 -0.7 0.6-2 1-2.4 1.4C204 102.1 202.1 103.2 201 103.5z"/><path fill="#FFFFFF" d="M199.8 88c0 0-0.2 1.1-0.7 1.4l-0.2 0.2c-1.1 0.9-2.2 1.7-3 2.4 -0.8 0.6-3.3 1.8-3.9 1.7 -1.5-0.3-1.3-1.7-1-2.6 0.3-0.9 1.8-2 1.8-2C194 87.9 199.8 87.2 199.8 88z"/><path fill="#FFFFFF" d="M158.7 152.6c0.1 0.3-0.2 0.9-0.2 1.3 0 0.3 0.2 0.6 0.3 1 0.1 0.4 0 1.3 0.1 1.7 0.1 0.5 1 1.7 1.2 2.1 0.2 0.4 0.4 1.3 0.7 1.3 0.3 0.1 0.6-0.6 0.5-1.6 -0.1-1 0.2-1.9 0.5-2.5 0.3-0.6 0.1-1.4 0.2-2.1 0.2-0.8 0.6-2.2 0.9-3.5l0.1-0.8c0 0 0.2-0.5 0.1-1 -0.1-0.5-0.3-1-0.5-1.2 -0.2-0.2-0.5-0.1-0.5-0.1 -0.8 0.3-1.6 1-2.1 1.7 -0.4 0.6-1 1.7-1 2.5C158.8 151.5 158.5 152.3 158.7 152.6"/><path fill="#FFFFFF" d="M124.2 86c1.8 0.3 2.1 0 2.5-0.4 0.2-0.3 0.1-0.4 0-0.8 -0.1-0.4-0.3-0.8-0.5-1.1 -0.1-0.2-0.3-0.3-0.4-0.5l-0.2-0.1c-0.3-0.2-1-0.7-1.8-1.4l-1.1-0.8 -1.3-0.9c-1.9-1.4-4.1-2.5-4.2-2.2 0 0.1 0 0.1 0.3 0.7 0.3 0.7 0 0.4-0.2 0.6 -0.2 0.2 3.8 5.8 4.7 6.3C122.9 85.9 124.2 86 124.2 86z"/><path fill="#FFFFFF" d="M163.9 62.9c0.4-0.3 0.7 0.9 1.1 1.3l0.2 0.2c0.2 0.2 0.5 0.5 0.4 0.9 0 0 0.2 2.3 0.3 3.3 0.4 2.9 0.1 3.9 0.1 4 -0.1 0.3-0.3 0.7-0.4 0.8 -0.3 0.3-3.2 0.1-3.5-2.2 -0.2-1-0.1-3.4-0.1-3.4 0.2-2.2 1-4 1.6-4.4L163.9 62.9z"/><path fill="#0065BD" d="M292.2 177.6c-0.1 0.1-0.3 0.2-0.5 0.4 -0.2 0.1-0.5 0.3-0.9 0.4 -0.4 0.1-0.8 0.3-1.3 0.4 -0.5 0.1-1.1 0.2-1.8 0.2 -1.3 0-2.4-0.2-3.4-0.6 -0.9-0.4-1.7-1-2.3-1.7 -0.6-0.7-1.1-1.6-1.4-2.6 -0.3-1-0.4-2.1-0.4-3.3 0-1.2 0.2-2.3 0.5-3.4 0.3-1 0.8-1.9 1.4-2.7s1.4-1.3 2.3-1.8c0.9-0.4 2-0.6 3.3-0.6 0.6 0 1.2 0.1 1.7 0.2 0.5 0.1 0.9 0.2 1.3 0.4 0.4 0.2 0.7 0.3 0.9 0.5 0.2 0.2 0.4 0.3 0.6 0.4 0.1 0.1 0.3 0.3 0.4 0.5 0.1 0.2 0.2 0.4 0.2 0.6 0 0.3-0.1 0.6-0.4 1 -0.2 0.3-0.5 0.6-0.8 0.9 -0.2-0.2-0.4-0.4-0.6-0.6 -0.2-0.2-0.5-0.4-0.8-0.5 -0.3-0.2-0.6-0.3-1-0.4 -0.4-0.1-0.8-0.2-1.3-0.2 -0.8 0-1.5 0.2-2.1 0.5 -0.6 0.3-1 0.8-1.3 1.3 -0.3 0.5-0.6 1.1-0.7 1.8 -0.1 0.7-0.2 1.4-0.2 2.1 0 0.8 0.1 1.5 0.2 2.2 0.1 0.7 0.4 1.3 0.7 1.8 0.4 0.5 0.8 1 1.4 1.3 0.6 0.3 1.3 0.5 2.1 0.5 0.4 0 0.9-0.1 1.2-0.2 0.4-0.1 0.7-0.2 1-0.4 0.3-0.2 0.5-0.3 0.8-0.5 0.2-0.2 0.4-0.3 0.5-0.5 0.1 0.1 0.2 0.2 0.3 0.4 0.1 0.2 0.2 0.3 0.4 0.5 0.1 0.2 0.2 0.4 0.3 0.5 0.1 0.2 0.1 0.3 0.1 0.5 0 0.2 0 0.4-0.1 0.5C292.5 177.3 292.4 177.4 292.2 177.6z"/><path fill="#0065BD" d="M304.5 175.7c0 1.3 0.2 2.2 0.6 2.8 -0.3 0.1-0.6 0.2-0.8 0.2 -0.2 0-0.5 0.1-0.8 0.1 -0.6 0-1-0.1-1.3-0.3 -0.3-0.2-0.5-0.5-0.6-1 -0.4 0.4-0.8 0.7-1.4 0.9 -0.6 0.3-1.3 0.4-2.1 0.4 -0.4 0-0.9-0.1-1.3-0.2 -0.4-0.1-0.8-0.3-1.2-0.6 -0.4-0.3-0.6-0.6-0.9-1.1 -0.2-0.5-0.3-1-0.3-1.7 0-0.8 0.2-1.5 0.6-2 0.4-0.5 0.9-0.9 1.5-1.2 0.6-0.3 1.2-0.5 1.9-0.6 0.7-0.1 1.3-0.2 1.9-0.2 0.2 0 0.4 0 0.6 0s0.4 0 0.5 0v-0.4c0-0.6-0.2-1.1-0.5-1.3 -0.3-0.3-0.9-0.4-1.6-0.4 -0.7 0-1.3 0.1-1.8 0.3 -0.5 0.2-1.1 0.5-1.6 0.8 -0.2-0.3-0.4-0.6-0.5-0.9 -0.1-0.3-0.2-0.6-0.2-0.7 0-0.2 0.1-0.4 0.4-0.6 0.2-0.2 0.6-0.4 1-0.6 0.4-0.2 0.9-0.3 1.5-0.4 0.6-0.1 1.2-0.2 1.8-0.2 0.9 0 1.6 0.1 2.2 0.3 0.6 0.2 1.1 0.4 1.5 0.8 0.4 0.4 0.6 0.8 0.8 1.4 0.2 0.6 0.2 1.2 0.2 1.9V175.7zM301.5 172.9c-0.1 0-0.2 0-0.3 0 -0.1 0-0.2 0-0.3 0 -0.4 0-0.8 0.1-1.2 0.1 -0.4 0.1-0.7 0.2-1 0.3 -0.3 0.2-0.6 0.4-0.7 0.6 -0.2 0.3-0.3 0.6-0.3 1 0 0.4 0.1 0.8 0.4 1.1 0.3 0.3 0.7 0.5 1.3 0.5 0.3 0 0.6 0 0.9-0.1 0.3-0.1 0.5-0.2 0.7-0.3 0.2-0.1 0.4-0.3 0.5-0.4 0.1-0.2 0.2-0.3 0.2-0.4V172.9z"/><path fill="#0065BD" d="M310.7 168.3c0.1-0.1 0.2-0.3 0.4-0.5 0.2-0.2 0.4-0.3 0.6-0.5 0.2-0.1 0.5-0.3 0.8-0.4 0.3-0.1 0.6-0.1 0.9-0.1 0.2 0 0.4 0 0.6 0 0.2 0 0.4 0.1 0.6 0.2 0.2 0.1 0.3 0.2 0.4 0.4 0.1 0.2 0.2 0.3 0.2 0.6 0 0.3-0.1 0.8-0.3 1.2 -0.2 0.5-0.4 0.8-0.5 1.2 -0.3-0.2-0.5-0.4-0.8-0.5 -0.3-0.1-0.6-0.2-1-0.2 -0.5 0-0.9 0.1-1.2 0.4 -0.3 0.3-0.5 0.6-0.5 1v7.4h-3.3v-11.4c0.1 0 0.2 0 0.3 0 0.1 0 0.2 0 0.3 0 0.1 0 0.3 0 0.5 0 0.5 0 1 0.1 1.3 0.3C310.4 167.6 310.6 167.9 310.7 168.3z"/><path fill="#0065BD" d="M322.3 176.5c0.4 0 0.8 0 1.1-0.1 0.3-0.1 0.6-0.2 0.8-0.3 0.2-0.1 0.4-0.3 0.6-0.4 0.2-0.2 0.3-0.3 0.5-0.4 0.2 0.2 0.4 0.5 0.6 0.9 0.2 0.4 0.3 0.7 0.3 0.9 0 0.4-0.2 0.7-0.6 1 -0.3 0.3-0.8 0.5-1.4 0.7 -0.6 0.2-1.3 0.3-2.2 0.3 -0.8 0-1.5-0.1-2.2-0.3 -0.7-0.2-1.4-0.5-1.9-1 -0.6-0.5-1-1.1-1.4-1.9 -0.4-0.8-0.5-1.8-0.5-3.1 0-1 0.2-1.9 0.5-2.6 0.3-0.7 0.7-1.3 1.2-1.8 0.5-0.5 1.1-0.8 1.8-1.1 0.7-0.2 1.3-0.3 2-0.3 0.9 0 1.7 0.1 2.3 0.4 0.6 0.3 1.1 0.7 1.5 1.1 0.4 0.5 0.7 1 0.9 1.6 0.2 0.6 0.3 1.2 0.3 1.9 0 0.1 0 0.2 0 0.3 0 0.1 0 0.3 0 0.4 0 0.1 0 0.3 0 0.4 0 0.1 0 0.2 0 0.3h-7.1c0.1 0.9 0.3 1.6 0.8 2.2C320.5 176.2 321.2 176.5 322.3 176.5zM323.4 171.6c0-0.8-0.1-1.4-0.4-1.9 -0.3-0.5-0.8-0.7-1.6-0.7 -0.7 0-1.2 0.2-1.6 0.7 -0.4 0.5-0.6 1.1-0.6 1.9H323.4z"/><path fill="#0065BD" d="M343.6 175.7c0 1.3 0.2 2.2 0.6 2.8 -0.3 0.1-0.6 0.2-0.8 0.2 -0.2 0-0.5 0.1-0.8 0.1 -0.6 0-1-0.1-1.3-0.3 -0.3-0.2-0.5-0.5-0.6-1 -0.4 0.4-0.8 0.7-1.4 0.9 -0.6 0.3-1.3 0.4-2.1 0.4 -0.4 0-0.9-0.1-1.3-0.2 -0.4-0.1-0.8-0.3-1.2-0.6 -0.4-0.3-0.6-0.6-0.9-1.1 -0.2-0.5-0.3-1-0.3-1.7 0-0.8 0.2-1.5 0.6-2 0.4-0.5 0.9-0.9 1.5-1.2 0.6-0.3 1.2-0.5 1.9-0.6 0.7-0.1 1.3-0.2 1.9-0.2 0.2 0 0.4 0 0.6 0s0.4 0 0.5 0v-0.4c0-0.6-0.2-1.1-0.5-1.3 -0.3-0.3-0.9-0.4-1.6-0.4 -0.7 0-1.3 0.1-1.8 0.3 -0.5 0.2-1.1 0.5-1.6 0.8 -0.2-0.3-0.4-0.6-0.5-0.9 -0.1-0.3-0.2-0.6-0.2-0.7 0-0.2 0.1-0.4 0.4-0.6 0.2-0.2 0.6-0.4 1-0.6 0.4-0.2 0.9-0.3 1.5-0.4 0.6-0.1 1.2-0.2 1.8-0.2 0.9 0 1.6 0.1 2.2 0.3 0.6 0.2 1.1 0.4 1.5 0.8 0.4 0.4 0.6 0.8 0.8 1.4 0.2 0.6 0.2 1.2 0.2 1.9V175.7zM340.5 172.9c-0.1 0-0.2 0-0.3 0 -0.1 0-0.2 0-0.3 0 -0.4 0-0.8 0.1-1.2 0.1 -0.4 0.1-0.7 0.2-1 0.3 -0.3 0.2-0.6 0.4-0.7 0.6 -0.2 0.3-0.3 0.6-0.3 1 0 0.4 0.1 0.8 0.4 1.1 0.3 0.3 0.7 0.5 1.3 0.5 0.3 0 0.6 0 0.9-0.1 0.3-0.1 0.5-0.2 0.7-0.3 0.2-0.1 0.4-0.3 0.5-0.4 0.1-0.2 0.2-0.3 0.2-0.4V172.9z"/><path fill="#0065BD" d="M349.9 178.5h-3.3v-11.4c0.1 0 0.2 0 0.3 0 0.1 0 0.2 0 0.3 0 0.1 0 0.3 0 0.5 0 0.5 0 0.9 0.1 1.3 0.3 0.4 0.2 0.6 0.5 0.7 1 0.3-0.4 0.7-0.7 1.3-1 0.6-0.3 1.3-0.5 2.3-0.5 1.1 0 2 0.2 2.5 0.7 0.5 0.4 0.9 1 1.1 1.8 0.1 0.4 0.1 0.8 0.2 1.2 0 0.4 0 0.9 0 1.3v6.8h-3.3v-6.6c0-0.4 0-0.7 0-1 0-0.3-0.1-0.6-0.2-0.8 -0.1-0.2-0.3-0.4-0.5-0.5 -0.2-0.1-0.6-0.2-1-0.2 -0.6 0-1.1 0.1-1.5 0.4 -0.4 0.2-0.6 0.6-0.6 0.9V178.5z"/><path fill="#0065BD" d="M368.3 178.5c-0.3 0-0.5-0.1-0.6-0.3 -0.2-0.2-0.2-0.4-0.2-0.7 -0.2 0.3-0.6 0.6-1.1 0.8 -0.5 0.3-1.2 0.4-2.1 0.4 -0.6 0-1.2-0.1-1.7-0.3 -0.6-0.2-1-0.5-1.5-1 -0.4-0.4-0.8-1-1-1.8 -0.3-0.7-0.4-1.7-0.4-2.8 0-1.1 0.1-2 0.4-2.8 0.3-0.8 0.6-1.4 1.1-1.9 0.4-0.5 0.9-0.8 1.5-1.1 0.6-0.2 1.2-0.3 1.8-0.3 0.7 0 1.3 0.1 1.8 0.4 0.5 0.2 0.8 0.5 1 0.7v-6.3c0 0 0.1 0 0.4-0.1 0.2 0 0.5 0 0.7 0 0.3 0 0.5 0 0.8 0.1 0.3 0 0.5 0.1 0.7 0.3 0.2 0.1 0.4 0.3 0.5 0.6 0.1 0.2 0.2 0.6 0.2 1v15.1H368.3zM363 172.8c0 0.6 0 1.1 0.1 1.5 0.1 0.5 0.2 0.8 0.4 1.2 0.2 0.3 0.4 0.6 0.8 0.7 0.3 0.2 0.7 0.3 1.2 0.3 0.5 0 0.9-0.1 1.2-0.3 0.3-0.2 0.5-0.5 0.5-0.8V170c-0.1-0.1-0.3-0.3-0.7-0.5 -0.3-0.2-0.7-0.3-1.1-0.3 -0.8 0-1.4 0.3-1.8 0.9C363.2 170.8 363 171.7 363 172.8z"/><path fill="#0065BD" d="M387 168.5c0 0.2-0.1 0.5-0.2 0.9 -0.2 0.3-0.3 0.6-0.5 0.9 -0.2-0.1-0.4-0.3-0.6-0.4 -0.2-0.1-0.5-0.3-0.8-0.4 -0.3-0.1-0.6-0.2-0.9-0.3 -0.3-0.1-0.6-0.1-0.9-0.1 -0.2 0-0.4 0-0.6 0 -0.2 0-0.4 0.1-0.5 0.1 -0.2 0.1-0.3 0.2-0.4 0.3 -0.1 0.1-0.2 0.3-0.2 0.5 0 0.5 0.6 0.9 1.8 1.2 0.5 0.1 1 0.2 1.4 0.4 0.5 0.2 0.9 0.4 1.3 0.6 0.4 0.3 0.7 0.6 0.9 1 0.2 0.4 0.3 0.9 0.3 1.6 0 0.6-0.1 1.2-0.4 1.7 -0.2 0.5-0.6 0.9-1 1.2 -0.4 0.3-0.9 0.6-1.5 0.8 -0.6 0.2-1.2 0.3-1.9 0.3 -0.7 0-1.3-0.1-1.8-0.2 -0.5-0.1-0.9-0.2-1.2-0.4 -0.2-0.1-0.5-0.2-0.7-0.4 -0.3-0.2-0.4-0.4-0.4-0.8 0-0.3 0.1-0.6 0.2-0.9 0.2-0.3 0.3-0.6 0.6-0.9 0.1 0.1 0.3 0.3 0.5 0.4 0.2 0.1 0.5 0.3 0.7 0.4 0.3 0.1 0.6 0.2 0.9 0.3 0.3 0.1 0.6 0.1 1 0.1 0.2 0 0.4 0 0.6 0s0.4-0.1 0.6-0.2c0.2-0.1 0.3-0.2 0.4-0.4 0.1-0.2 0.2-0.4 0.2-0.6 0-0.5-0.2-0.8-0.5-1 -0.4-0.2-0.9-0.4-1.6-0.5 -0.5-0.1-0.9-0.2-1.3-0.4 -0.4-0.2-0.8-0.4-1.2-0.6 -0.3-0.3-0.6-0.6-0.8-1 -0.2-0.4-0.3-0.9-0.3-1.5 0-0.6 0.1-1.1 0.4-1.5 0.3-0.4 0.6-0.8 1-1.1 0.4-0.3 0.9-0.5 1.5-0.7 0.6-0.2 1.1-0.2 1.8-0.2 0.6 0 1.2 0 1.7 0.1 0.5 0.1 0.9 0.2 1.3 0.4C386.6 167.6 386.9 168 387 168.5z"/><path fill="#0065BD" d="M396.3 167.1c0 0 0.1 0 0.4 0 0.2 0 0.5 0 0.7 0 0.3 0 0.5 0 0.8 0.1 0.3 0.1 0.5 0.2 0.7 0.3 0.2 0.1 0.4 0.3 0.5 0.6 0.1 0.2 0.2 0.6 0.2 0.9v9.5h-2.2c-0.4 0-0.7-0.1-0.8-0.3 -0.1-0.2-0.2-0.5-0.2-0.9 -0.3 0.4-0.7 0.7-1.3 1 -0.6 0.3-1.3 0.5-2.3 0.5 -1.1 0-2-0.2-2.5-0.7 -0.5-0.4-0.9-1-1.1-1.8 -0.1-0.4-0.1-0.8-0.2-1.2 0-0.4 0-0.9 0-1.3v-6.7c0.1 0 0.2 0 0.4 0 0.1 0 0.2 0 0.3 0 0.1 0 0.2 0 0.3 0 0.6 0 1.2 0.1 1.6 0.4 0.4 0.3 0.6 0.8 0.6 1.5v4.7c0 0.4 0 0.7 0 1 0 0.3 0.1 0.6 0.2 0.8 0.1 0.2 0.3 0.4 0.5 0.5 0.2 0.1 0.6 0.2 1 0.2 0.6 0 1.1-0.1 1.5-0.4 0.4-0.2 0.6-0.6 0.6-0.9V167.1z"/><path fill="#0065BD" d="M405.8 168.2c0.3-0.3 0.7-0.6 1.2-0.9 0.5-0.3 1.2-0.5 2.1-0.5 0.6 0 1.2 0.1 1.7 0.3 0.5 0.2 1 0.5 1.4 1 0.4 0.4 0.7 1 1 1.8 0.2 0.7 0.4 1.6 0.4 2.7 0 1.2-0.1 2.3-0.4 3.1 -0.3 0.8-0.7 1.4-1.1 1.9 -0.5 0.5-1 0.8-1.5 1 -0.6 0.2-1.1 0.3-1.7 0.3 -0.5 0-0.9-0.1-1.2-0.2 -0.3-0.1-0.6-0.2-0.9-0.3 -0.2-0.1-0.4-0.3-0.5-0.4 -0.1-0.1-0.2-0.2-0.2-0.3v6h-3.3v-16.6c0.1 0 0.2 0 0.3 0 0.1 0 0.2 0 0.3 0 0.1 0 0.3 0 0.5 0 0.5 0 1 0.1 1.4 0.3C405.4 167.5 405.7 167.8 405.8 168.2zM410.1 172.7c0-0.5 0-0.9-0.1-1.3 -0.1-0.4-0.2-0.8-0.4-1.1 -0.2-0.3-0.4-0.5-0.7-0.7 -0.3-0.2-0.7-0.3-1.1-0.3 -0.7 0-1.1 0.1-1.4 0.4 -0.3 0.3-0.4 0.5-0.4 0.8v5.1c0.1 0.1 0.4 0.3 0.7 0.5 0.3 0.2 0.7 0.3 1.1 0.3 0.8 0 1.4-0.3 1.8-1C409.9 174.7 410.1 173.8 410.1 172.7z"/><path fill="#0065BD" d="M419.2 168.2c0.3-0.3 0.7-0.6 1.2-0.9 0.5-0.3 1.2-0.5 2.1-0.5 0.6 0 1.2 0.1 1.7 0.3 0.5 0.2 1 0.5 1.4 1 0.4 0.4 0.7 1 1 1.8 0.2 0.7 0.4 1.6 0.4 2.7 0 1.2-0.1 2.3-0.4 3.1 -0.3 0.8-0.7 1.4-1.1 1.9 -0.5 0.5-1 0.8-1.5 1 -0.6 0.2-1.1 0.3-1.7 0.3 -0.5 0-0.9-0.1-1.2-0.2 -0.3-0.1-0.6-0.2-0.9-0.3 -0.2-0.1-0.4-0.3-0.6-0.4 -0.1-0.1-0.2-0.2-0.2-0.3v6h-3.3v-16.6c0.1 0 0.2 0 0.3 0 0.1 0 0.2 0 0.3 0 0.1 0 0.3 0 0.5 0 0.5 0 1 0.1 1.4 0.3S419.1 167.8 419.2 168.2zM423.5 172.7c0-0.5 0-0.9-0.1-1.3 -0.1-0.4-0.2-0.8-0.4-1.1 -0.2-0.3-0.4-0.5-0.7-0.7 -0.3-0.2-0.7-0.3-1.1-0.3 -0.7 0-1.1 0.1-1.4 0.4 -0.3 0.3-0.4 0.5-0.4 0.8v5.1c0.1 0.1 0.4 0.3 0.7 0.5 0.3 0.2 0.7 0.3 1.1 0.3 0.8 0 1.4-0.3 1.8-1C423.3 174.7 423.5 173.8 423.5 172.7z"/><path fill="#0065BD" d="M440.4 172.8c0 0.8-0.1 1.6-0.3 2.3 -0.2 0.7-0.5 1.4-1 1.9 -0.5 0.6-1 1-1.8 1.3 -0.7 0.3-1.6 0.5-2.6 0.5 -1 0-1.9-0.2-2.6-0.5 -0.7-0.3-1.3-0.8-1.7-1.3 -0.4-0.6-0.8-1.2-1-1.9 -0.2-0.7-0.3-1.5-0.3-2.3 0-0.8 0.1-1.6 0.4-2.3 0.2-0.7 0.6-1.4 1.1-1.9 0.5-0.6 1.1-1 1.8-1.3 0.7-0.3 1.6-0.5 2.5-0.5 1 0 1.9 0.2 2.6 0.5 0.7 0.3 1.3 0.8 1.7 1.3 0.4 0.5 0.8 1.2 1 1.9C440.3 171.2 440.4 172 440.4 172.8zM437.1 172.8c0-0.4 0-0.9-0.1-1.3 -0.1-0.4-0.2-0.8-0.4-1.1 -0.2-0.3-0.4-0.6-0.7-0.8 -0.3-0.2-0.7-0.3-1.2-0.3 -0.5 0-0.9 0.1-1.2 0.3 -0.3 0.2-0.6 0.5-0.7 0.8 -0.2 0.3-0.3 0.7-0.4 1.1 -0.1 0.4-0.1 0.8-0.1 1.3 0 0.4 0 0.9 0.1 1.3 0.1 0.4 0.2 0.8 0.4 1.2 0.2 0.3 0.4 0.6 0.7 0.8 0.3 0.2 0.7 0.3 1.2 0.3 0.5 0 0.9-0.1 1.2-0.3 0.3-0.2 0.6-0.5 0.7-0.8 0.2-0.3 0.3-0.7 0.4-1.2C437.1 173.7 437.1 173.2 437.1 172.8z"/><path fill="#0065BD" d="M446.1 168.3c0.1-0.1 0.2-0.3 0.4-0.5 0.2-0.2 0.4-0.3 0.6-0.5 0.2-0.1 0.5-0.3 0.8-0.4 0.3-0.1 0.6-0.1 0.9-0.1 0.2 0 0.4 0 0.6 0 0.2 0 0.4 0.1 0.6 0.2s0.3 0.2 0.4 0.4c0.1 0.2 0.2 0.3 0.2 0.6 0 0.3-0.1 0.8-0.3 1.2 -0.2 0.5-0.4 0.8-0.5 1.2 -0.3-0.2-0.5-0.4-0.8-0.5 -0.3-0.1-0.6-0.2-1-0.2 -0.5 0-0.9 0.1-1.2 0.4 -0.3 0.3-0.5 0.6-0.5 1v7.4h-3.3v-11.4c0.1 0 0.2 0 0.3 0 0.1 0 0.2 0 0.3 0 0.1 0 0.3 0 0.5 0 0.5 0 1 0.1 1.3 0.3C445.7 167.6 446 167.9 446.1 168.3z"/><path fill="#0065BD" d="M452.2 176.8c-0.1-0.3-0.2-0.7-0.2-1 0-0.4 0-0.7 0-1.1v-11.1c0.1 0 0.2 0 0.4 0 0.1 0 0.2 0 0.4 0s0.3 0 0.4 0c0.3 0 0.5 0 0.8 0.1 0.3 0 0.5 0.1 0.7 0.3 0.2 0.1 0.4 0.3 0.5 0.6 0.1 0.2 0.2 0.6 0.2 1v1.7h3.4v2.4h-3.4v5.1c0 1.1 0.5 1.7 1.4 1.7 0.2 0 0.4 0 0.6-0.1 0.2-0.1 0.4-0.2 0.5-0.2 0.2-0.1 0.3-0.2 0.4-0.3 0.1-0.1 0.2-0.2 0.3-0.2 0.2 0.4 0.4 0.7 0.6 0.9 0.1 0.3 0.2 0.5 0.2 0.7 0 0.2-0.1 0.4-0.3 0.6 -0.2 0.2-0.4 0.4-0.7 0.6 -0.3 0.2-0.7 0.3-1.1 0.4 -0.4 0.1-0.9 0.2-1.4 0.2 -1 0-1.8-0.2-2.3-0.6C452.8 177.9 452.5 177.4 452.2 176.8z"/><path fill="#0065BD" d="M280.5 202.3c-0.1-0.3-0.2-0.7-0.2-1 0-0.4 0-0.7 0-1.1v-11.1c0.1 0 0.2 0 0.4 0 0.1 0 0.2 0 0.4 0s0.3 0 0.4 0c0.3 0 0.5 0 0.8 0.1 0.3 0 0.5 0.1 0.7 0.3 0.2 0.1 0.4 0.3 0.5 0.6 0.1 0.2 0.2 0.6 0.2 1v1.7h3.4v2.4h-3.4v5.1c0 1.1 0.5 1.7 1.4 1.7 0.2 0 0.4 0 0.6-0.1 0.2-0.1 0.4-0.2 0.5-0.2 0.2-0.1 0.3-0.2 0.4-0.3 0.1-0.1 0.2-0.2 0.3-0.2 0.2 0.4 0.4 0.7 0.6 0.9 0.1 0.3 0.2 0.5 0.2 0.7 0 0.2-0.1 0.4-0.3 0.6 -0.2 0.2-0.4 0.4-0.7 0.6 -0.3 0.2-0.7 0.3-1.1 0.4 -0.4 0.1-0.9 0.2-1.4 0.2 -1 0-1.8-0.2-2.3-0.6C281.2 203.4 280.8 202.9 280.5 202.3z"/><path fill="#0065BD" d="M296.5 197.4c0-0.4 0-0.7 0-1 0-0.3-0.1-0.6-0.2-0.8 -0.1-0.2-0.3-0.4-0.5-0.5 -0.2-0.1-0.6-0.2-1-0.2 -0.6 0-1.1 0.1-1.5 0.4 -0.4 0.2-0.6 0.6-0.6 0.9v7.8h-3.3v-16.9c0 0 0.1 0 0.4-0.1 0.2 0 0.5 0 0.7 0 0.3 0 0.5 0 0.8 0.1 0.3 0 0.5 0.1 0.7 0.3 0.2 0.1 0.4 0.3 0.5 0.6 0.1 0.2 0.2 0.6 0.2 1v4.8c0.1-0.1 0.3-0.3 0.5-0.5 0.2-0.2 0.4-0.3 0.7-0.4 0.3-0.1 0.6-0.2 0.9-0.3 0.4-0.1 0.8-0.1 1.2-0.1 1.1 0 2 0.2 2.5 0.7 0.5 0.4 0.9 1 1.1 1.8 0.1 0.4 0.1 0.8 0.2 1.2 0 0.4 0 0.9 0 1.3v6.8h-3.3V197.4z"/><path fill="#0065BD" d="M306 193.8c0.1-0.1 0.2-0.3 0.4-0.5 0.2-0.2 0.4-0.3 0.6-0.5 0.2-0.1 0.5-0.3 0.8-0.4 0.3-0.1 0.6-0.1 0.9-0.1 0.2 0 0.4 0 0.6 0 0.2 0 0.4 0.1 0.6 0.2 0.2 0.1 0.3 0.2 0.4 0.4 0.1 0.2 0.2 0.3 0.2 0.6 0 0.3-0.1 0.8-0.3 1.2 -0.2 0.5-0.4 0.8-0.5 1.2 -0.3-0.2-0.5-0.4-0.8-0.5 -0.3-0.1-0.6-0.2-1-0.2 -0.5 0-0.9 0.1-1.2 0.4 -0.3 0.3-0.5 0.6-0.5 1v7.4h-3.3v-11.4c0.1 0 0.2 0 0.3 0 0.1 0 0.2 0 0.3 0 0.1 0 0.3 0 0.5 0 0.5 0 1 0.1 1.3 0.3C305.6 193.1 305.9 193.4 306 193.8z"/><path fill="#0065BD" d="M322.4 198.3c0 0.8-0.1 1.6-0.3 2.3 -0.2 0.7-0.5 1.4-1 1.9 -0.5 0.6-1 1-1.8 1.3 -0.7 0.3-1.6 0.5-2.6 0.5 -1 0-1.9-0.2-2.6-0.5 -0.7-0.3-1.3-0.8-1.7-1.3 -0.4-0.6-0.8-1.2-1-1.9 -0.2-0.7-0.3-1.5-0.3-2.3 0-0.8 0.1-1.6 0.4-2.3 0.2-0.7 0.6-1.4 1.1-1.9 0.5-0.6 1.1-1 1.8-1.3 0.7-0.3 1.6-0.5 2.5-0.5 1 0 1.9 0.2 2.6 0.5 0.7 0.3 1.3 0.8 1.7 1.3 0.4 0.5 0.8 1.2 1 1.9C322.3 196.7 322.4 197.5 322.4 198.3zM319.2 198.3c0-0.4 0-0.9-0.1-1.3 -0.1-0.4-0.2-0.8-0.4-1.1 -0.2-0.3-0.4-0.6-0.7-0.8 -0.3-0.2-0.7-0.3-1.2-0.3 -0.5 0-0.9 0.1-1.2 0.3 -0.3 0.2-0.6 0.5-0.7 0.8 -0.2 0.3-0.3 0.7-0.4 1.1 -0.1 0.4-0.1 0.8-0.1 1.3 0 0.4 0 0.9 0.1 1.3 0.1 0.4 0.2 0.8 0.4 1.2 0.2 0.3 0.4 0.6 0.7 0.8 0.3 0.2 0.7 0.3 1.2 0.3 0.5 0 0.9-0.1 1.2-0.3 0.3-0.2 0.6-0.5 0.7-0.8 0.2-0.3 0.3-0.7 0.4-1.2C319.1 199.2 319.2 198.7 319.2 198.3z"/><path fill="#0065BD" d="M332.2 192.6c0 0 0.1 0 0.4 0 0.2 0 0.5 0 0.7 0 0.3 0 0.5 0 0.8 0.1 0.3 0.1 0.5 0.2 0.7 0.3 0.2 0.1 0.4 0.3 0.5 0.6 0.1 0.2 0.2 0.6 0.2 0.9v9.5h-2.2c-0.4 0-0.7-0.1-0.8-0.3 -0.1-0.2-0.2-0.5-0.2-0.9 -0.3 0.4-0.7 0.7-1.3 1s-1.3 0.5-2.3 0.5c-1.1 0-2-0.2-2.5-0.7 -0.5-0.4-0.9-1-1.1-1.8 -0.1-0.4-0.1-0.8-0.2-1.2 0-0.4 0-0.9 0-1.3v-6.7c0.1 0 0.2 0 0.4 0 0.1 0 0.2 0 0.3 0 0.1 0 0.2 0 0.3 0 0.6 0 1.2 0.1 1.6 0.4 0.4 0.3 0.6 0.8 0.6 1.5v4.7c0 0.4 0 0.7 0 1 0 0.3 0.1 0.6 0.2 0.8 0.1 0.2 0.3 0.4 0.5 0.5 0.2 0.1 0.6 0.2 1 0.2 0.6 0 1.1-0.1 1.5-0.4 0.4-0.2 0.6-0.6 0.6-0.9V192.6z"/><path fill="#0065BD" d="M348.7 203.1c0 0.9-0.1 1.8-0.3 2.6 -0.2 0.8-0.5 1.4-1 2 -0.5 0.6-1.1 1-1.8 1.3 -0.8 0.3-1.7 0.5-2.8 0.5 -1 0-1.7-0.1-2.4-0.2 -0.6-0.1-1.1-0.3-1.5-0.5 -0.3-0.2-0.5-0.4-0.6-0.6 -0.1-0.2-0.1-0.4-0.1-0.6 0-0.3 0.1-0.6 0.3-0.9 0.2-0.3 0.4-0.7 0.6-0.9 0.1 0.1 0.3 0.2 0.5 0.4 0.2 0.1 0.4 0.3 0.7 0.4 0.3 0.1 0.6 0.3 1 0.3 0.4 0.1 0.8 0.1 1.2 0.1 0.6 0 1.1-0.1 1.5-0.3 0.4-0.2 0.7-0.4 0.9-0.7 0.2-0.3 0.4-0.7 0.5-1.1 0.1-0.4 0.1-1 0.1-1.5V203c-0.2 0.3-0.6 0.5-1.1 0.8 -0.5 0.2-1.1 0.3-1.9 0.3 -0.6 0-1.2-0.1-1.7-0.3 -0.6-0.2-1-0.5-1.5-0.9 -0.4-0.4-0.8-1-1-1.8 -0.3-0.7-0.4-1.6-0.4-2.7 0-1.1 0.1-2 0.4-2.8 0.3-0.8 0.6-1.4 1.1-1.9 0.4-0.5 0.9-0.8 1.5-1.1 0.6-0.2 1.2-0.3 1.8-0.3 0.7 0 1.3 0.1 1.8 0.4 0.5 0.2 0.8 0.5 1.1 0.9 0.1-0.4 0.4-0.6 0.7-0.8 0.4-0.2 0.8-0.2 1.2-0.2 0.1 0 0.3 0 0.4 0 0.1 0 0.3 0 0.4 0 0.1 0 0.2 0 0.4 0V203.1zM341.4 198.2c0 1.1 0.2 2 0.5 2.7 0.3 0.6 1 1 1.9 1 0.6 0 1-0.1 1.3-0.3 0.3-0.2 0.5-0.5 0.5-0.9v-5.1c-0.1-0.1-0.3-0.3-0.7-0.5 -0.3-0.2-0.7-0.3-1.1-0.3C342.2 194.8 341.4 195.9 341.4 198.2z"/><path fill="#0065BD" d="M358.9 197.4c0-0.4 0-0.7 0-1 0-0.3-0.1-0.6-0.2-0.8 -0.1-0.2-0.3-0.4-0.5-0.5 -0.2-0.1-0.6-0.2-1-0.2 -0.6 0-1.1 0.1-1.5 0.4 -0.4 0.2-0.6 0.6-0.6 0.9v7.8h-3.3v-16.9c0 0 0.1 0 0.4-0.1 0.2 0 0.5 0 0.7 0 0.3 0 0.5 0 0.8 0.1 0.3 0 0.5 0.1 0.7 0.3 0.2 0.1 0.4 0.3 0.5 0.6 0.1 0.2 0.2 0.6 0.2 1v4.8c0.1-0.1 0.3-0.3 0.5-0.5 0.2-0.2 0.4-0.3 0.7-0.4 0.3-0.1 0.6-0.2 0.9-0.3 0.4-0.1 0.8-0.1 1.2-0.1 1.1 0 2 0.2 2.5 0.7 0.5 0.4 0.9 1 1.1 1.8 0.1 0.4 0.1 0.8 0.2 1.2 0 0.4 0 0.9 0 1.3v6.8h-3.3V197.4z"/><path fill="#0065BD" d="M370.9 202.3c-0.1-0.3-0.2-0.7-0.2-1 0-0.4 0-0.7 0-1.1v-11.1c0.1 0 0.2 0 0.4 0 0.1 0 0.2 0 0.4 0 0.1 0 0.3 0 0.4 0 0.3 0 0.5 0 0.8 0.1 0.3 0 0.5 0.1 0.7 0.3 0.2 0.1 0.4 0.3 0.5 0.6 0.1 0.2 0.2 0.6 0.2 1v1.7h3.4v2.4h-3.4v5.1c0 1.1 0.5 1.7 1.4 1.7 0.2 0 0.4 0 0.6-0.1 0.2-0.1 0.4-0.2 0.5-0.2 0.2-0.1 0.3-0.2 0.4-0.3 0.1-0.1 0.2-0.2 0.3-0.2 0.2 0.4 0.4 0.7 0.6 0.9s0.2 0.5 0.2 0.7c0 0.2-0.1 0.4-0.3 0.6 -0.2 0.2-0.4 0.4-0.7 0.6 -0.3 0.2-0.7 0.3-1.1 0.4 -0.4 0.1-0.9 0.2-1.4 0.2 -1 0-1.8-0.2-2.3-0.6C371.5 203.4 371.1 202.9 370.9 202.3z"/><path fill="#0065BD" d="M385.3 202c0.4 0 0.8 0 1.1-0.1 0.3-0.1 0.6-0.2 0.8-0.3 0.2-0.1 0.5-0.3 0.6-0.4 0.2-0.2 0.3-0.3 0.5-0.4 0.2 0.2 0.4 0.5 0.6 0.9 0.2 0.4 0.3 0.7 0.3 0.9 0 0.4-0.2 0.7-0.6 1 -0.3 0.3-0.8 0.5-1.4 0.7 -0.6 0.2-1.3 0.3-2.2 0.3 -0.8 0-1.5-0.1-2.2-0.3 -0.7-0.2-1.4-0.5-1.9-1 -0.6-0.5-1-1.1-1.4-1.9 -0.4-0.8-0.5-1.8-0.5-3.1 0-1 0.2-1.9 0.5-2.6 0.3-0.7 0.7-1.3 1.2-1.8 0.5-0.5 1.1-0.8 1.8-1.1 0.7-0.2 1.3-0.3 2-0.3 0.9 0 1.7 0.1 2.3 0.4 0.6 0.3 1.1 0.7 1.5 1.1 0.4 0.5 0.7 1 0.9 1.6 0.2 0.6 0.3 1.2 0.3 1.9 0 0.1 0 0.2 0 0.3 0 0.1 0 0.3 0 0.4 0 0.1 0 0.3 0 0.4 0 0.1 0 0.2 0 0.3h-7.1c0.1 0.9 0.3 1.6 0.8 2.2C383.5 201.7 384.3 202 385.3 202zM386.4 197.1c0-0.8-0.1-1.4-0.4-1.9 -0.3-0.5-0.8-0.7-1.6-0.7 -0.7 0-1.2 0.2-1.6 0.7 -0.4 0.5-0.6 1.1-0.6 1.9H386.4z"/><path fill="#0065BD" d="M394.9 193.8c0.1-0.1 0.2-0.3 0.4-0.5 0.2-0.2 0.4-0.3 0.6-0.5 0.2-0.1 0.5-0.3 0.8-0.4 0.3-0.1 0.6-0.1 0.9-0.1 0.2 0 0.4 0 0.6 0 0.2 0 0.4 0.1 0.6 0.2 0.2 0.1 0.3 0.2 0.4 0.4 0.1 0.2 0.2 0.3 0.2 0.6 0 0.3-0.1 0.8-0.3 1.2 -0.2 0.5-0.4 0.8-0.5 1.2 -0.3-0.2-0.5-0.4-0.8-0.5 -0.3-0.1-0.6-0.2-1-0.2 -0.5 0-0.9 0.1-1.2 0.4 -0.3 0.3-0.5 0.6-0.5 1v7.4h-3.3v-11.4c0.1 0 0.2 0 0.3 0 0.1 0 0.2 0 0.3 0 0.1 0 0.3 0 0.5 0 0.5 0 1 0.1 1.3 0.3C394.5 193.1 394.8 193.4 394.9 193.8z"/><path fill="#0065BD" d="M404.1 204h-3.3v-11.4c0.1 0 0.2 0 0.3 0 0.1 0 0.2 0 0.3 0 0.1 0 0.3 0 0.5 0 0.5 0 0.9 0.1 1.3 0.3 0.4 0.2 0.6 0.5 0.7 1 0.3-0.4 0.7-0.7 1.3-1 0.6-0.3 1.3-0.5 2.3-0.5 0.9 0 1.6 0.2 2 0.5 0.4 0.3 0.8 0.7 1 1.1 0.3-0.4 0.8-0.8 1.4-1.1 0.6-0.3 1.3-0.5 2.3-0.5 0.6 0 1.1 0.1 1.5 0.2 0.4 0.1 0.8 0.3 1 0.5 0.3 0.2 0.5 0.5 0.6 0.8 0.2 0.3 0.3 0.6 0.3 0.9 0.1 0.4 0.1 0.8 0.1 1.2 0 0.4 0 0.9 0 1.3v6.8h-3.3v-6.6c0-0.4 0-0.7 0-1 0-0.3-0.1-0.5-0.2-0.7 -0.1-0.2-0.3-0.4-0.5-0.5 -0.2-0.1-0.5-0.2-0.9-0.2 -0.4 0-0.8 0.1-1.2 0.3 -0.4 0.2-0.6 0.4-0.8 0.6 0 0.5 0.1 0.9 0.1 1.4v6.6h-3.3v-6.6c0-0.4 0-0.7 0-1 0-0.3-0.1-0.6-0.2-0.8 -0.1-0.2-0.3-0.4-0.5-0.5 -0.2-0.1-0.5-0.2-1-0.2 -0.6 0-1 0.1-1.4 0.4 -0.4 0.2-0.5 0.6-0.5 0.9V204z"/><path fill="#0065BD" d="M424.1 188.8c0 0.5-0.2 0.9-0.5 1.2 -0.3 0.3-0.8 0.5-1.2 0.5 -0.5 0-0.9-0.2-1.2-0.5 -0.3-0.3-0.5-0.7-0.5-1.2 0-0.5 0.2-0.9 0.5-1.3 0.3-0.3 0.8-0.5 1.2-0.5 0.5 0 0.9 0.2 1.2 0.5C424 187.9 424.1 188.3 424.1 188.8zM424.1 204.2c-0.1 0-0.2 0.1-0.4 0.1 -0.2 0-0.5 0-0.7 0 -0.3 0-0.6 0-0.9-0.1 -0.3-0.1-0.5-0.2-0.7-0.3 -0.2-0.2-0.3-0.4-0.4-0.6 -0.1-0.3-0.2-0.6-0.2-1v-9.6c0 0 0.1 0 0.4-0.1 0.2 0 0.5 0 0.7 0s0.5 0 0.8 0.1c0.3 0 0.5 0.1 0.7 0.3 0.2 0.1 0.4 0.3 0.5 0.6 0.1 0.2 0.2 0.6 0.2 1V204.2z"/><path fill="#0065BD" d="M430.4 204h-3.3v-11.4c0.1 0 0.2 0 0.3 0 0.1 0 0.2 0 0.3 0 0.1 0 0.3 0 0.5 0 0.5 0 0.9 0.1 1.3 0.3 0.4 0.2 0.6 0.5 0.7 1 0.3-0.4 0.7-0.7 1.3-1 0.6-0.3 1.3-0.5 2.3-0.5 1.1 0 2 0.2 2.5 0.7 0.5 0.4 0.9 1 1.1 1.8 0.1 0.4 0.1 0.8 0.2 1.2 0 0.4 0 0.9 0 1.3v6.8h-3.3v-6.6c0-0.4 0-0.7 0-1 0-0.3-0.1-0.6-0.2-0.8 -0.1-0.2-0.3-0.4-0.5-0.5 -0.2-0.1-0.6-0.2-1-0.2 -0.6 0-1.1 0.1-1.5 0.4 -0.4 0.2-0.6 0.6-0.6 0.9V204z"/><path fill="#0065BD" d="M450 201.2c0 1.3 0.2 2.2 0.6 2.8 -0.3 0.1-0.6 0.2-0.8 0.2 -0.2 0-0.5 0.1-0.8 0.1 -0.6 0-1-0.1-1.3-0.3 -0.3-0.2-0.5-0.5-0.6-1 -0.4 0.4-0.8 0.7-1.4 0.9 -0.6 0.3-1.3 0.4-2.1 0.4 -0.4 0-0.9-0.1-1.3-0.2 -0.4-0.1-0.8-0.3-1.2-0.6 -0.4-0.3-0.6-0.6-0.9-1.1s-0.3-1-0.3-1.7c0-0.8 0.2-1.5 0.6-2 0.4-0.5 0.9-0.9 1.5-1.2 0.6-0.3 1.2-0.5 1.9-0.6 0.7-0.1 1.3-0.2 1.9-0.2 0.2 0 0.4 0 0.6 0 0.2 0 0.4 0 0.5 0v-0.4c0-0.6-0.2-1.1-0.5-1.3 -0.3-0.3-0.9-0.4-1.6-0.4 -0.7 0-1.3 0.1-1.8 0.3 -0.5 0.2-1.1 0.5-1.6 0.8 -0.2-0.3-0.4-0.6-0.5-0.9 -0.1-0.3-0.2-0.6-0.2-0.7 0-0.2 0.1-0.4 0.4-0.6 0.2-0.2 0.6-0.4 1-0.6 0.4-0.2 0.9-0.3 1.5-0.4 0.6-0.1 1.2-0.2 1.8-0.2 0.9 0 1.6 0.1 2.2 0.3 0.6 0.2 1.1 0.4 1.5 0.8 0.4 0.4 0.6 0.8 0.8 1.4 0.2 0.6 0.2 1.2 0.2 1.9V201.2zM446.9 198.4c-0.1 0-0.2 0-0.3 0 -0.1 0-0.2 0-0.3 0 -0.4 0-0.8 0.1-1.2 0.1 -0.4 0.1-0.7 0.2-1 0.3 -0.3 0.2-0.6 0.4-0.7 0.6 -0.2 0.3-0.3 0.6-0.3 1 0 0.4 0.1 0.8 0.4 1.1 0.3 0.3 0.7 0.5 1.3 0.5 0.3 0 0.6 0 0.9-0.1 0.3-0.1 0.5-0.2 0.7-0.3 0.2-0.1 0.4-0.3 0.5-0.4 0.1-0.2 0.2-0.3 0.2-0.4V198.4z"/><path fill="#0065BD" d="M456.3 204.2c-0.1 0-0.2 0.1-0.5 0.1 -0.2 0-0.5 0-0.7 0 -0.3 0-0.5 0-0.8-0.1 -0.2-0.1-0.5-0.2-0.7-0.3 -0.2-0.2-0.3-0.4-0.5-0.6 -0.1-0.3-0.2-0.6-0.2-1v-15.2c0 0 0.1 0 0.4-0.1 0.2 0 0.5 0 0.7 0 0.3 0 0.5 0 0.8 0.1 0.3 0 0.5 0.1 0.7 0.3 0.2 0.1 0.4 0.3 0.5 0.6 0.1 0.2 0.2 0.6 0.2 1V204.2z"/><path fill="#0065BD" d="M468.2 188.8c0 0.5-0.2 0.9-0.5 1.2 -0.3 0.3-0.8 0.5-1.2 0.5 -0.5 0-0.9-0.2-1.2-0.5 -0.3-0.3-0.5-0.7-0.5-1.2 0-0.5 0.2-0.9 0.5-1.3 0.3-0.3 0.8-0.5 1.2-0.5 0.5 0 0.9 0.2 1.2 0.5C468 187.9 468.2 188.3 468.2 188.8zM468.2 204.2c-0.1 0-0.2 0.1-0.4 0.1 -0.2 0-0.5 0-0.7 0 -0.3 0-0.6 0-0.9-0.1 -0.3-0.1-0.5-0.2-0.7-0.3 -0.2-0.2-0.3-0.4-0.4-0.6 -0.1-0.3-0.2-0.6-0.2-1v-9.6c0 0 0.1 0 0.4-0.1 0.2 0 0.5 0 0.7 0 0.3 0 0.5 0 0.8 0.1 0.3 0 0.5 0.1 0.7 0.3 0.2 0.1 0.4 0.3 0.5 0.6 0.1 0.2 0.2 0.6 0.2 1V204.2z"/><path fill="#0065BD" d="M474.5 204.2c-0.1 0-0.2 0.1-0.5 0.1 -0.2 0-0.5 0-0.7 0 -0.3 0-0.5 0-0.8-0.1 -0.2-0.1-0.5-0.2-0.7-0.3 -0.2-0.2-0.3-0.4-0.5-0.6 -0.1-0.3-0.2-0.6-0.2-1v-15.2c0 0 0.1 0 0.4-0.1 0.2 0 0.5 0 0.7 0 0.3 0 0.5 0 0.8 0.1 0.3 0 0.5 0.1 0.7 0.3 0.2 0.1 0.4 0.3 0.5 0.6 0.1 0.2 0.2 0.6 0.2 1V204.2z"/><path fill="#0065BD" d="M480.9 204.2c-0.1 0-0.2 0.1-0.5 0.1 -0.2 0-0.5 0-0.7 0 -0.3 0-0.5 0-0.8-0.1 -0.2-0.1-0.5-0.2-0.7-0.3 -0.2-0.2-0.3-0.4-0.5-0.6 -0.1-0.3-0.2-0.6-0.2-1v-15.2c0 0 0.1 0 0.4-0.1 0.2 0 0.5 0 0.7 0 0.3 0 0.5 0 0.8 0.1 0.3 0 0.5 0.1 0.7 0.3 0.2 0.1 0.4 0.3 0.5 0.6 0.1 0.2 0.2 0.6 0.2 1V204.2z"/><path fill="#0065BD" d="M487.2 204h-3.3v-11.4c0.1 0 0.2 0 0.3 0 0.1 0 0.2 0 0.3 0 0.1 0 0.3 0 0.5 0 0.5 0 0.9 0.1 1.3 0.3 0.4 0.2 0.6 0.5 0.7 1 0.3-0.4 0.7-0.7 1.3-1 0.6-0.3 1.3-0.5 2.3-0.5 1.1 0 2 0.2 2.5 0.7 0.5 0.4 0.9 1 1.1 1.8 0.1 0.4 0.1 0.8 0.2 1.2 0 0.4 0 0.9 0 1.3v6.8h-3.3v-6.6c0-0.4 0-0.7 0-1 0-0.3-0.1-0.6-0.2-0.8 -0.1-0.2-0.3-0.4-0.5-0.5 -0.2-0.1-0.6-0.2-1-0.2 -0.6 0-1.1 0.1-1.5 0.4 -0.4 0.2-0.6 0.6-0.6 0.9V204z"/><path fill="#0065BD" d="M503.3 202c0.4 0 0.8 0 1.1-0.1 0.3-0.1 0.6-0.2 0.8-0.3 0.2-0.1 0.4-0.3 0.6-0.4 0.2-0.2 0.3-0.3 0.5-0.4 0.2 0.2 0.4 0.5 0.6 0.9 0.2 0.4 0.3 0.7 0.3 0.9 0 0.4-0.2 0.7-0.6 1 -0.3 0.3-0.8 0.5-1.4 0.7 -0.6 0.2-1.3 0.3-2.2 0.3 -0.8 0-1.5-0.1-2.2-0.3 -0.7-0.2-1.4-0.5-1.9-1 -0.6-0.5-1-1.1-1.4-1.9 -0.4-0.8-0.5-1.8-0.5-3.1 0-1 0.2-1.9 0.5-2.6 0.3-0.7 0.7-1.3 1.2-1.8 0.5-0.5 1.1-0.8 1.8-1.1 0.7-0.2 1.3-0.3 2-0.3 0.9 0 1.7 0.1 2.3 0.4 0.6 0.3 1.1 0.7 1.5 1.1 0.4 0.5 0.7 1 0.9 1.6 0.2 0.6 0.3 1.2 0.3 1.9 0 0.1 0 0.2 0 0.3 0 0.1 0 0.3 0 0.4 0 0.1 0 0.3 0 0.4 0 0.1 0 0.2 0 0.3h-7.1c0.1 0.9 0.3 1.6 0.8 2.2C501.5 201.7 502.3 202 503.3 202zM504.4 197.1c0-0.8-0.1-1.4-0.4-1.9 -0.3-0.5-0.8-0.7-1.6-0.7 -0.7 0-1.2 0.2-1.6 0.7 -0.4 0.5-0.6 1.1-0.6 1.9H504.4z"/><path fill="#0065BD" d="M517.7 194c0 0.2-0.1 0.5-0.2 0.9 -0.2 0.3-0.3 0.6-0.5 0.9 -0.2-0.1-0.4-0.3-0.6-0.4 -0.2-0.1-0.5-0.3-0.8-0.4 -0.3-0.1-0.6-0.2-0.9-0.3 -0.3-0.1-0.6-0.1-0.9-0.1 -0.2 0-0.4 0-0.6 0 -0.2 0-0.4 0.1-0.5 0.1 -0.2 0.1-0.3 0.2-0.4 0.3 -0.1 0.1-0.2 0.3-0.2 0.5 0 0.5 0.6 0.9 1.8 1.2 0.5 0.1 1 0.2 1.4 0.4 0.5 0.2 0.9 0.4 1.3 0.6 0.4 0.3 0.7 0.6 0.9 1 0.2 0.4 0.3 0.9 0.3 1.6 0 0.6-0.1 1.2-0.4 1.7 -0.2 0.5-0.6 0.9-1 1.2s-0.9 0.6-1.5 0.8c-0.6 0.2-1.2 0.3-1.9 0.3 -0.7 0-1.3-0.1-1.8-0.2 -0.5-0.1-0.9-0.2-1.2-0.4 -0.2-0.1-0.5-0.2-0.7-0.4 -0.3-0.2-0.4-0.4-0.4-0.8 0-0.3 0.1-0.6 0.2-0.9 0.2-0.3 0.3-0.6 0.6-0.9 0.1 0.1 0.3 0.3 0.5 0.4 0.2 0.1 0.5 0.3 0.7 0.4 0.3 0.1 0.6 0.2 0.9 0.3 0.3 0.1 0.6 0.1 1 0.1 0.2 0 0.4 0 0.6 0 0.2 0 0.4-0.1 0.6-0.2 0.2-0.1 0.3-0.2 0.4-0.4 0.1-0.2 0.2-0.4 0.2-0.6 0-0.5-0.2-0.8-0.5-1 -0.4-0.2-0.9-0.4-1.6-0.5 -0.5-0.1-0.9-0.2-1.3-0.4 -0.4-0.2-0.8-0.4-1.2-0.6 -0.3-0.3-0.6-0.6-0.8-1 -0.2-0.4-0.3-0.9-0.3-1.5 0-0.6 0.1-1.1 0.4-1.5 0.3-0.4 0.6-0.8 1-1.1 0.4-0.3 0.9-0.5 1.5-0.7 0.6-0.2 1.1-0.2 1.8-0.2 0.6 0 1.2 0 1.7 0.1 0.5 0.1 0.9 0.2 1.3 0.4C517.3 193.1 517.6 193.5 517.7 194z"/><path fill="#0065BD" d="M528 194c0 0.2-0.1 0.5-0.2 0.9 -0.2 0.3-0.3 0.6-0.5 0.9 -0.2-0.1-0.4-0.3-0.6-0.4 -0.2-0.1-0.5-0.3-0.8-0.4 -0.3-0.1-0.6-0.2-0.9-0.3 -0.3-0.1-0.6-0.1-0.9-0.1 -0.2 0-0.4 0-0.6 0 -0.2 0-0.4 0.1-0.5 0.1 -0.2 0.1-0.3 0.2-0.4 0.3 -0.1 0.1-0.2 0.3-0.2 0.5 0 0.5 0.6 0.9 1.8 1.2 0.5 0.1 1 0.2 1.4 0.4 0.5 0.2 0.9 0.4 1.3 0.6 0.4 0.3 0.7 0.6 0.9 1 0.2 0.4 0.3 0.9 0.3 1.6 0 0.6-0.1 1.2-0.4 1.7 -0.2 0.5-0.6 0.9-1 1.2 -0.4 0.3-0.9 0.6-1.5 0.8 -0.6 0.2-1.2 0.3-1.9 0.3 -0.7 0-1.3-0.1-1.8-0.2 -0.5-0.1-0.9-0.2-1.2-0.4 -0.2-0.1-0.5-0.2-0.7-0.4 -0.3-0.2-0.4-0.4-0.4-0.8 0-0.3 0.1-0.6 0.2-0.9 0.2-0.3 0.3-0.6 0.6-0.9 0.1 0.1 0.3 0.3 0.5 0.4 0.2 0.1 0.5 0.3 0.7 0.4 0.3 0.1 0.6 0.2 0.9 0.3 0.3 0.1 0.6 0.1 1 0.1 0.2 0 0.4 0 0.6 0 0.2 0 0.4-0.1 0.6-0.2 0.2-0.1 0.3-0.2 0.4-0.4 0.1-0.2 0.2-0.4 0.2-0.6 0-0.5-0.2-0.8-0.5-1 -0.4-0.2-0.9-0.4-1.6-0.5 -0.5-0.1-0.9-0.2-1.3-0.4 -0.4-0.2-0.8-0.4-1.2-0.6 -0.3-0.3-0.6-0.6-0.8-1 -0.2-0.4-0.3-0.9-0.3-1.5 0-0.6 0.1-1.1 0.4-1.5 0.3-0.4 0.6-0.8 1-1.1 0.4-0.3 0.9-0.5 1.5-0.7 0.6-0.2 1.1-0.2 1.8-0.2 0.6 0 1.2 0 1.7 0.1 0.5 0.1 0.9 0.2 1.3 0.4C527.6 193.1 527.9 193.5 528 194z"/></svg>