<svg xmlns="http://www.w3.org/2000/svg" viewBox="0 0 277 274"><path fill="#FFFFFF" d="M7.2 34.5c3.3-19 10.3-29.1 28.1-30.8 20.7-2 24.8-0.6 82.3-2.8 45.9-1.8 106 0 125.7 1.1 16.2 1 29.1 7.5 30 25.5 1.2 21.4 4 61.6 3.6 114.1 -0.3 49.1-0.9 83.8-1.9 92.6 -1.7 15.1-12.1 30.1-27.7 32.4 -21.3 3.2-73.4 7.9-98.2 7.3 -25.1-0.6-100.7-1.7-114.5-3.6 -16.2-2.3-28.5-8-31.3-29 -2.5-18.5-3.5-56.4-3.2-97.6C0.4 101.4 5.1 50.2 7.2 34.5"/><path fill="#FFCD00" d="M243.1 153c-5.4-9.2-14.8-17.5-26.4-22.9 -7.8-3.6-12.6-3.9-20-5.2 7.6-1.8 10.5-2.4 15.5-6.2 15.1-11.3 30.7-37.6 24.6-44.8 -7.6-8.9-23.4-6.7-39.5-0.9 -0.9 0.3-1.7 0.7-2.6 1.1 -1.7-15.7 1.1-34.8-9.1-42.9 -7.4-5.9-32.7 20.6-40.7 38.8C133.4 63.8 112.9 49 101.6 52c-6.1 1.6-6.6 30.5 0.6 44 4.5 8.5 27.7 18.9 41.6 25.1l-5.1-1.9c-14.7-5.9-31.2-11.7-45.5-6 -17.3 7-39.8 29.9-37.2 36 7.9 18.3 53.1 19.6 77.6 12.8 12.7-3.5 23.3-19.6 10.5-2.3 -6.9 9.3-4 32.8 1.1 44.3 7.9 18 25.7 37.4 35.2 35.6 9.5-1.7 20.3-34.5 18.8-51.1 -0.8-8.9-6.6-19.7-12-27.5 2 1.4 4.8 4 9.7 5.3C217.1 171.9 258.6 176.4 243.1 153"/><path fill="#FF9E1B" d="M190.8 102.8c-1-3.2-2.8-6.8-6.5-9.9 -0.6-0.5-1.3-1-2.1-1.4 0-1.7-0.5-4-1.6-5.9 -1.2-2.1-2.6-3.4-3.8-4.2 -0.5-0.4-1.4-1-1.8-1.2l-0.3-0.1 -0.1 0 -0.5-0.2 -0.2-0.1 -0.9-0.4c-2.5-0.8-4.4-0.8-5.9-0.6 -2.7 0.4-4.2 1-5.5 1.6 -2.5 1.1-4.1 2.2-5.7 3.1 -0.2 0.1-0.4 0.3-0.7 0.4 -0.1-0.1-0.1-0.1-0.2-0.2 -1.1-1-2.2-1.8-3.4-2.4 -1.2-0.6-2.7-1.1-4.2-1.2 -1.5-0.1-2.9 0.1-4.3 0.4 -1.8 0.4-3.6 1.2-5.4 2.1 -1.1 0.6-2.2 1-3.2 1.5 -0.9 0.4-1.6 0.8-2.6 1.4 -1.9 1.1-3.6 2.5-5 4.1 -0.7 0.8-1.3 1.6-1.9 2.5 -0.3 0.4-0.6 1-0.7 1.2l-0.4 0.7c-0.2 0.3-0.3 0.6-0.5 1 -0.6 1.3-1.1 2.9-1.1 4.6 0 0.8 0 1.7 0.2 2.5 0.1 0.8 0.3 1.5 0.4 1.7 0.8 1.9 1.7 1.7 2.6 2.7 0.5 0.5 0.3 1.2 0 1.6 -0.3 0.4-0.7 0.7-1.2 0.9 -0.5 0.3-0.8 0.4-1.3 1.1 -1.4 2-1.1 2.4-1.5 3.4 -0.2 0.9-0.3 2-0.2 3.1 0.1 2.3 1.5 4.6 2.8 5.8 1.3 1.2 2.6 1.9 3.7 2.4 2.2 1 4.2 1.5 6 2.1 1.3 0.4 2.5 1 3.3 1.4 0 1.5 0.5 3 1.2 4.2 1.1 1.8 2.5 3 4 4 3 1.9 6.5 2.9 10 3.1 7 0.5 15.3-1.9 21.6-7.4 -6.4 1.7-11.4 1.1-14.1 0.2 -1.4-0.2-2.6-1.3-2.9-1.6 -5.3-5 4.2-3.7 4.2-3.7s-3.8-1.5-5.8-5.2c-1.2-2.3 0.4-5.9 3.7-4.4 3 2.4 1-1.3 1-1.3s-2.2-5.8 1.2-8.9c1.7-1.6 5.5 0.1 6.5 3.8 1.5 4.3 1.4 1.5 3.8-0.3 2.3-1.9 9.7-1.4 7 7.8 -1.2 3.9-1.9 7.4 1.3 10.2 2.4-1.5 3.7-2.1 5.5-3.7 1.7-1.5 2.5-2.1 4.1-5.3C191.9 115.1 192.7 109.3 190.8 102.8"/><path fill="#0065BD" d="M107.2 174.2c-1.8 0-3.3 1.4-3.3 3.3 0 1.9 1.5 3.3 3.3 3.3 1.8 0 3.3-1.4 3.3-3.3C110.5 175.6 109 174.2 107.2 174.2"/><path fill="#0065BD" d="M118.5 190.8c0-1.3 0.4-2.5 1.1-3.4 0.7-0.8 1.7-1.3 3-1.3 1.5 0 2.5 0.4 3 1.3 0.6 0.9 0.8 2.1 0.8 3.3H118.5zM131.5 188c-0.3-1.1-0.9-2.1-1.6-3 -0.7-0.9-1.7-1.6-2.9-2.1 -1.2-0.5-2.6-0.8-4.3-0.8 -1.3 0-2.6 0.2-3.8 0.6 -1.2 0.4-2.3 1.1-3.3 2 -1 0.9-1.8 2-2.3 3.4 -0.6 1.4-0.9 3-0.9 4.8 0 2.3 0.3 4.2 1 5.7 0.7 1.5 1.5 2.7 2.6 3.6 1.1 0.9 2.3 1.5 3.7 1.9 1.4 0.4 2.8 0.5 4.2 0.5 1.6 0 2.9-0.2 4.1-0.5 1.2-0.3 2.1-0.8 2.7-1.2 0.8-0.5 1.1-1.1 1.1-1.8 0-0.4-0.2-1-0.6-1.7 -0.4-0.7-0.8-1.3-1.1-1.7 -0.3 0.2-0.6 0.5-0.9 0.8 -0.3 0.3-0.7 0.5-1.2 0.8 -0.5 0.2-1 0.4-1.5 0.6 -0.6 0.2-1.2 0.2-2 0.2 -2 0-3.4-0.5-4.3-1.6 -0.9-1.1-1.4-2.4-1.5-4.1h13.3c0-0.2 0.1-0.3 0.1-0.6 0-0.2 0-0.5 0-0.8 0-0.3 0-0.5 0-0.8v-0.6C132 190.3 131.8 189.1 131.5 188"/><path fill="#0065BD" d="M110.3 182.4h-2.7c-2.4 0-3.5 1.6-3.5 3.7v18.3h6.1V182.4z"/><path fill="#0065BD" d="M107.2 208.1c-1.8 0-3.3 1.4-3.3 3.3 0 1.9 1.5 3.3 3.3 3.3 1.8 0 3.3-1.4 3.3-3.3C110.5 209.5 109 208.1 107.2 208.1"/><path fill="#0065BD" d="M104.2 220v18.3h6.1v-22h-2.7C105.3 216.2 104.2 217.9 104.2 220"/><path fill="#0065BD" d="M75.3 186.4c2.3 0 3.9 2.1 3.9 4.8l0 0.1v5 1.7c-1 1.4-2.6 2.2-4 2.2 -3.4 0-4.6-3.1-4.6-6.8C70.6 188.7 72.4 186.4 75.3 186.4M73.7 204.6c2.2 0 4.2-1.1 5.5-2.4 0.3 1.7 1.3 2.2 3.3 2.2h2.7v-22h-2.8c-1.9 0-2.7 1.1-3.1 2.1l0 0c0 0 0 0.1 0 0.1 -1.2-1.5-3.1-2.5-5.5-2.5 -4.7 0-9.5 4-9.5 11.7C64.4 199.5 67.7 204.6 73.7 204.6"/><path fill="#0065BD" d="M56 233c-3.4 0-8.2-2.3-8.2-10.6 0-7.4 3.9-9.9 8-9.9 1.8 0 4.1 0.4 6.5 2l0.9-2.4c1.2-2.9-2.2-4.9-7.5-4.9 -8.9 0-14.3 7.2-14.3 15.6 0 8.4 4.1 15.7 14 15.7 2.1 0 3.9-0.2 5.4-0.7 1.6-0.5 2.8-1 3.6-1.6l-1.7-4.9C60.8 232.3 58.3 233 56 233"/><path fill="#0065BD" d="M81.8 216.2h-2.7l0 16c-1.4 0.8-3.2 1.2-4.1 1.2 -0.8 0-1.4-0.1-1.8-0.3 -0.4-0.2-0.8-0.5-1-0.9 -0.2-0.4-0.3-0.9-0.4-1.5 0-0.6-0.1-1.2-0.1-1.9v-8.9c0-2.1-1.1-3.7-3.5-3.7h-2.7v12.9c0 0.8 0 1.6 0.1 2.4 0 0.8 0.1 1.7 0.3 2.3 0.3 1.4 1 2.5 2 3.3 1 0.8 2.6 1.3 4.7 1.3 1.7 0 4.4-0.6 6.4-2.5 0.3 1.8 1.3 2.3 3.3 2.3h2.7V220C85.3 217.9 84.2 216.2 81.8 216.2"/><path fill="#0065BD" d="M99.2 182c-2.1 0-3.7 1.4-4.7 2.7 -0.4-1.4-1.5-2.3-3.3-2.3h-2.7v22h6.1v-13.3l0 0.1c0-5.3 4.5-5.1 6.9-3.4l0.5-2.6C102.6 182.3 100.1 182 99.2 182"/><path fill="#0065BD" d="M118.5 224.7c0-1.3 0.4-2.5 1.1-3.4 0.7-0.8 1.7-1.3 3-1.3 1.5 0 2.5 0.4 3 1.3 0.6 0.9 0.8 2.1 0.8 3.3H118.5zM129.9 218.8c-0.7-0.9-1.7-1.6-2.9-2.1 -1.2-0.5-2.6-0.8-4.3-0.8 -1.3 0-2.6 0.2-3.8 0.6 -1.2 0.4-2.3 1.1-3.3 2 -1 0.9-1.8 2-2.3 3.4 -0.6 1.4-0.9 3-0.9 4.8 0 2.3 0.3 4.2 1 5.7 0.7 1.5 1.5 2.7 2.6 3.6 1.1 0.9 2.3 1.5 3.7 1.9 1.4 0.4 2.8 0.5 4.2 0.5 1.6 0 2.9-0.2 4.1-0.5 1.2-0.3 2.1-0.8 2.7-1.2 0.8-0.5 1.1-1.1 1.1-1.8 0-0.4-0.2-1-0.6-1.7 -0.4-0.7-0.8-1.3-1.1-1.7 -0.3 0.2-0.6 0.5-0.9 0.8 -0.3 0.3-0.7 0.5-1.2 0.8 -0.5 0.2-1 0.4-1.5 0.6 -0.6 0.2-1.2 0.2-2 0.2 -2 0-3.4-0.5-4.3-1.6 -0.9-1.1-1.4-2.4-1.5-4.1h13.3c0-0.2 0.1-0.4 0.1-0.6 0-0.2 0-0.5 0-0.8 0-0.3 0-0.5 0-0.8v-0.6c0-1.2-0.2-2.4-0.5-3.6C131.2 220.7 130.6 219.7 129.9 218.8"/><path fill="#0065BD" d="M99.2 215.9c-2.1 0-3.7 1.4-4.7 2.7 -0.4-1.4-1.5-2.3-3.3-2.3h-2.7v22h6.1v-13.3l0 0.1c0-5.3 4.5-5.1 6.9-3.4l0.5-2.6C102.6 216.2 100.1 215.9 99.2 215.9"/><path fill="#0065BD" d="M46.9 199.7h2l6.4-13.9 1.3 18.6h6l-2.2-30.5h-5.7l-8.1 18.5 -8.1-18.5h-5.7l-2.2 30.5h6l1.3-18.6 5.4 11.8C43.9 199.5 44.9 199.7 46.9 199.7"/><path fill="#FFFFFF" d="M133.9 78.1c0.6 2.2 0.3 2.6-0.1 3 -0.2 0.2-0.5 0.3-0.8 0 -0.4 0-0.8-0.3-1.3-0.6 -0.2-0.1-0.4-0.4-0.6-0.5l-0.2-0.2c-0.2-0.3-0.9-1.2-1.7-2.1l-0.9-1.3 -1.1-1.5c-1.7-2.3-3.1-4.9-2.9-4.9 0.2-0.1 0.9 0.6 1.5 0.6 0.9 0 6.4 3.9 7 5C133.5 76.7 133.9 78.1 133.9 78.1z"/><path fill="#FFFFFF" d="M175.1 64.2c-1.3 0.9-2.4 2.1-3.2 4.4 0 0-0.9 2.9-0.8 4.6 0.1 1.7 3.1 1.6 3.4 1.4 0.3-0.1 0.8-0.5 1.4-2.1 0 0 0.7-2 1.3-3.7 0.6-1.6 0.6-2.2 0.7-3.4 0 0 0.1-2-0.3-2.3 -0.4-0.3-0.6-0.1-1.5 0.3L175.1 64.2z"/><path fill="#FFFFFF" d="M174.4 152.9c-0.1 0.3 0.1 1.3 0.1 1.6 0 0.2-0.2 0.8-0.2 0.8 -0.2 0.6-0.1 1.5-0.4 2.6 -0.2 1.1-1.2 2.1-1.6 2.7 -0.3 0.6-0.7 1.7-0.9 1.7 -0.3 0-0.9-0.8-0.6-1.7 0.3-0.8-0.4-3.4-0.4-3.4 -0.4-1.9 0-1.8-0.1-2.6 -0.2-1-0.6-2.7-0.9-4.3l-0.1-1c0 0-0.1-0.8 0-1.2 0-0.4 0.1-1.5 1-1.8 0.8-0.3 2.3 1.2 2.8 2.1 0.5 0.8 1.1 2 1.1 3C174.4 151.6 174.6 152.6 174.4 152.9"/><path fill="#FFFFFF" d="M128.1 129.9c2.6 0 2.8 0.5 3.1 1.1 0.1 0.4-0.2 0.7-0.4 1.1 -0.2 0.4-0.7 0.9-1.3 1.4 -0.2 0.2-0.6 0.4-0.8 0.5l-0.3 0.2c-0.4 0.2-1.7 0.8-3.1 1.4l-1.8 0.8 -2.1 0.9c-3.3 1.4-6.7 2.6-6.7 2.1 0 0 0.1-0.2 1.2-1.2 0.8-0.8 0.2-0.4-0.4-0.5 -0.6-0.1 7.2-6.6 9.2-7.2C126.5 130 128.1 129.9 128.1 129.9z"/><path fill="#FFFFFF" d="M191.7 131.5c0 0 0.2-0.1 0.8-0.2 0.7-0.1 2.3 0.4 2.7 0.6 0.4 0.2 0.9 0.6 1.4 1 0.5 0.4 2.9 2.8 3.5 3.3l0.8 1c0.6 0.5 1.1 0.8 0.9 1.1 -0.2 0.2-0.9-0.2-1.7-0.3 -0.8-0.1-2.7-0.7-3.7-0.9 -0.9-0.2-2.9-0.5-3.2-0.5 -0.3-0.1-0.2-0.2-0.4-0.3 -0.2-0.1-1.1-0.2-1.5-0.5 -0.4-0.3-2-1.8-2.1-2.3 -0.1-0.5 0.6-0.8 0.6-0.8C189.8 132.1 190.4 131.6 191.7 131.5"/><path fill="#FFFFFF" d="M184.9 140.4c0 0 0 0.4 0.2 0.8 0.2 0.4 1.5 1.8 1.7 2.2 0.3 0.3 0.8 0.7 1.3 0.9 0.4 0.2 1.2 0.5 1.2 0.5 1.2 0.4 1.6 0.3 2.3 0.6l1.2 0.4c0.7 0.3 1.2 0.6 1.4 0.4 0.1-0.2-0.3-0.4-0.7-1 -0.4-0.6-0.9-2.2-1.5-2.7 -0.6-1-1.2-1.9-1.5-2.3 -0.2-0.3-0.6-0.5-0.7-0.7 -0.1-0.2 0-0.2-0.4-0.6 -0.4-0.4-3.2-1.7-3.7-1.5 -0.5 0.2-0.4 0.9-0.4 0.9C184.7 138.4 184.5 139.1 184.9 140.4"/><path fill="#FFFFFF" d="M132.3 146.6c-0.5 0.1-1.2 0.6-1.6 0.8 -0.5 0.2-1.5 0.1-2.4 0 -0.9-0.1-1.4 0.2-1.5 0 -0.1-0.1 0.3-1 0.9-1.2 1.4-0.3 2.2-1.7 2.2-1.7 1.2-1.1 1.2-0.7 1.8-1.2 0.6-0.6 1.7-1.6 2.7-2.5l0.6-0.5c0 0 0.5-0.4 0.8-0.5 0.3-0.1 1.1-0.2 1.3-0.1 0.7 0.4 0.2 2.3-0.2 3 -0.4 0.7-1.1 1.6-1.7 2C134.1 145.6 132.3 146.6 132.3 146.6z"/><path fill="#FFFFFF" d="M201 103.5c-0.9 0.2-2.2 0.5-3.1 0.4 -1-0.1-3.3-0.3-3.3-1.4 0-1.1 2.9-2.2 2.9-2.2 1.5-0.4 3.1-0.8 4.1-1 0.7-0.2 0.4-0.5 2.3-1 0 0 2.3-0.5 3.1-1.1 0.8-0.6 1.7-0.3 1.7-0.2 0 0.2-0.4 0.5-0.9 1.4 -0.2 0.3-0.7 1.7-1.4 2.3 -0.7 0.6-2 1-2.4 1.4C204 102.1 202.1 103.2 201 103.5z"/><path fill="#FFFFFF" d="M199.7 88c0 0-0.2 1.1-0.7 1.4l-0.2 0.2c-1.1 0.9-2.2 1.7-3 2.4 -0.8 0.6-3.3 1.8-3.9 1.7 -1.5-0.3-1.3-1.7-1-2.6 0.3-0.9 1.8-2 1.8-2C194 87.9 199.8 87.2 199.7 88z"/><path fill="#FFFFFF" d="M158.7 152.6c0.1 0.3-0.2 0.9-0.2 1.3 0 0.3 0.2 0.6 0.3 1 0.1 0.4 0 1.3 0.1 1.7 0.1 0.5 1 1.7 1.2 2.1 0.2 0.4 0.4 1.3 0.7 1.3 0.3 0.1 0.6-0.6 0.5-1.6 -0.1-1 0.2-1.9 0.5-2.5 0.3-0.6 0.1-1.4 0.2-2.1 0.2-0.8 0.6-2.2 0.9-3.5l0.1-0.8c0 0 0.2-0.5 0.1-1 -0.1-0.5-0.3-1-0.5-1.2 -0.2-0.2-0.5-0.1-0.5-0.1 -0.8 0.3-1.6 1-2.1 1.7 -0.4 0.6-1 1.7-1 2.5C158.8 151.5 158.5 152.3 158.7 152.6"/><path fill="#FFFFFF" d="M124.2 86c1.8 0.3 2.1 0 2.5-0.4 0.2-0.3 0.1-0.4 0-0.8 -0.1-0.4-0.3-0.8-0.5-1.1 -0.1-0.2-0.3-0.3-0.4-0.5l-0.2-0.1c-0.3-0.2-1-0.7-1.8-1.4l-1.1-0.8 -1.3-0.9c-1.9-1.4-4.1-2.5-4.2-2.2 0 0.1 0 0.1 0.3 0.7 0.3 0.7 0 0.4-0.2 0.6 -0.2 0.2 3.8 5.8 4.7 6.3C122.9 85.9 124.2 86 124.2 86z"/><path fill="#FFFFFF" d="M163.9 62.9c0.4-0.3 0.7 0.9 1.1 1.3l0.2 0.2c0.2 0.2 0.5 0.5 0.4 0.9 0 0 0.2 2.3 0.3 3.3 0.4 2.9 0.1 3.9 0.1 4 -0.1 0.3-0.3 0.7-0.4 0.8 -0.3 0.3-3.2 0.1-3.5-2.2 -0.2-1-0.1-3.4-0.1-3.4 0.2-2.2 1-4 1.6-4.4L163.9 62.9z"/></svg>