<svg xmlns="http://www.w3.org/2000/svg" viewBox="0 0 147.1 187.6"><path fill="#FFFFFF" d="M3.8 23.6c1.8-13.1 5.5-20 14.9-21.1 11-1.3 13.2-0.4 43.7-2 24.4-1.2 56.3-0.1 66.8 0.7 8.6 0.6 15.5 5.2 15.9 17.4 0.6 14.7 2.1 42.2 1.9 78.1 -0.2 33.6-0.5 57.4-1 63.4 -0.9 10.3-6.4 20.6-14.7 22.2 -11.3 2.2-39 5.4-52.2 5 -13.3-0.4-53.5-1.2-60.8-2.5 -8.6-1.6-15.1-5.5-16.6-19.9C0.4 152.5-0.1 126.5 0 98.3 0.2 69.5 2.7 34.4 3.8 23.6"/><path fill="#FFCD00" d="M129.2 81.3c-2.9-4.9-7.9-9.3-14-12.2 -4.1-1.9-6.7-2.1-10.6-2.8 4-1 5.6-1.3 8.2-3.3 8-6 16.3-20 13.1-23.8 -4-4.7-12.4-3.6-21-0.5 -0.5 0.2-0.9 0.4-1.4 0.6 -0.9-8.3 0.6-18.5-4.8-22.8C94.7 13.4 81.2 27.5 77 37.2c-6.1-3.3-17.1-11.2-23.1-9.6 -3.2 0.9-3.5 16.2 0.3 23.4 2.4 4.5 14.7 10 22.1 13.3l-2.7-1c-7.8-3.1-16.6-6.2-24.2-3.2C40.3 63.8 28.3 76 29.7 79.2 33.9 89 57.9 89.6 70.9 86c6.7-1.9 12.4-10.4 5.6-1.2 -3.7 4.9-2.1 17.4 0.6 23.5 4.2 9.6 13.7 19.9 18.7 18.9 5-0.9 10.8-18.3 10-27.2 -0.4-4.7-3.5-10.5-6.4-14.6 1.1 0.7 2.6 2.1 5.2 2.8C115.3 91.3 137.4 93.7 129.2 81.3"/><path fill="#FF9E1B" d="M101.4 54.6c-0.5-1.7-1.5-3.6-3.5-5.3 -0.3-0.3-0.7-0.5-1.1-0.7 0-0.9-0.3-2.1-0.9-3.1 -0.6-1.1-1.4-1.8-2-2.2 -0.3-0.2-0.7-0.5-1-0.6l-0.2-0.1h-0.1l-0.3-0.1 -0.1-0.1 -0.5-0.2c-1.3-0.4-2.3-0.4-3.1-0.3 -1.4 0.2-2.2 0.5-2.9 0.9 -1.3 0.6-2.2 1.2-3 1.6 -0.1 0.1-0.2 0.2-0.4 0.2 -0.1-0.1-0.1-0.1-0.1-0.1 -0.6-0.5-1.2-1-1.8-1.3 -0.6-0.3-1.4-0.6-2.2-0.6 -0.8-0.1-1.5 0.1-2.3 0.2 -1 0.2-1.9 0.6-2.9 1.1 -0.6 0.3-1.2 0.5-1.7 0.8 -0.5 0.2-0.9 0.4-1.4 0.7 -1 0.6-1.9 1.3-2.7 2.2 -0.4 0.4-0.7 0.9-1 1.3 -0.2 0.2-0.3 0.5-0.4 0.6l-0.2 0.4c-0.1 0.2-0.2 0.3-0.3 0.5C65.2 51.2 65 52 65 52.9c0 0.4 0 0.9 0.1 1.3 0.1 0.4 0.2 0.8 0.2 0.9 0.4 1 0.9 0.9 1.4 1.4 0.3 0.3 0.2 0.6 0 0.9 -0.2 0.2-0.4 0.4-0.6 0.5 -0.3 0.2-0.4 0.2-0.7 0.6 -0.7 1.1-0.6 1.3-0.8 1.8 -0.1 0.5-0.2 1.1-0.1 1.6 0.1 1.2 0.8 2.4 1.5 3.1 0.7 0.6 1.4 1 2 1.3 1.2 0.5 2.2 0.8 3.2 1.1 0.7 0.2 1.3 0.5 1.8 0.7 0 0.8 0.3 1.6 0.6 2.2 0.6 1 1.3 1.6 2.1 2.1 1.6 1 3.5 1.5 5.3 1.6 3.7 0.3 8.1-1 11.5-3.9 -3.4 0.9-6.1 0.6-7.5 0.1 -0.7-0.1-1.4-0.7-1.5-0.9 -2.8-2.7 2.2-2 2.2-2s-2-0.8-3.1-2.8c-0.6-1.2 0.2-3.1 2-2.3 1.6 1.3 0.5-0.7 0.5-0.7s-1.2-3.1 0.6-4.7c0.9-0.9 2.9 0.1 3.5 2 0.8 2.3 0.7 0.8 2-0.2 1.2-1 5.2-0.7 3.7 4.1 -0.6 2.1-1 3.9 0.7 5.4 1.3-0.8 2-1.1 2.9-2 0.9-0.8 1.3-1.1 2.2-2.8C102 61.2 102.4 58 101.4 54.6"/><path fill="#0065BD" d="M56.9 92.6c-1 0-1.8 0.7-1.8 1.8 0 1 0.8 1.8 1.8 1.8s1.8-0.7 1.8-1.8C58.7 93.3 57.9 92.6 56.9 92.6"/><path fill="#0065BD" d="M62.9 101.4c0-0.7 0.2-1.3 0.6-1.8 0.4-0.4 0.9-0.7 1.6-0.7 0.8 0 1.3 0.2 1.6 0.7 0.3 0.5 0.4 1.1 0.4 1.8L62.9 101.4 62.9 101.4zM69.9 99.8c-0.2-0.6-0.5-1.1-0.9-1.6 -0.4-0.5-0.9-0.9-1.5-1.1 -0.6-0.3-1.4-0.4-2.3-0.4 -0.7 0-1.4 0.1-2 0.3s-1.2 0.6-1.8 1.1 -1 1.1-1.2 1.8c-0.3 0.7-0.5 1.6-0.5 2.6 0 1.2 0.2 2.2 0.5 3 0.4 0.8 0.8 1.4 1.4 1.9 0.6 0.5 1.2 0.8 2 1 0.7 0.2 1.5 0.3 2.2 0.3 0.9 0 1.5-0.1 2.2-0.3 0.6-0.2 1.1-0.4 1.4-0.6 0.4-0.3 0.6-0.6 0.6-1 0-0.2-0.1-0.5-0.3-0.9 -0.2-0.4-0.4-0.7-0.6-0.9 -0.2 0.1-0.3 0.3-0.5 0.4 -0.2 0.2-0.4 0.3-0.6 0.4 -0.3 0.1-0.5 0.2-0.8 0.3 -0.3 0.1-0.6 0.1-1.1 0.1 -1.1 0-1.8-0.3-2.3-0.9 -0.5-0.6-0.7-1.3-0.8-2.2h7.1c0-0.1 0.1-0.2 0.1-0.3 0-0.1 0-0.3 0-0.4s0-0.3 0-0.4v-0.3C70.1 101.1 70 100.5 69.9 99.8"/><path fill="#0065BD" d="M58.6 96.9h-1.4c-1.3 0-1.9 0.9-1.9 2v9.7h3.2L58.6 96.9 58.6 96.9z"/><path fill="#0065BD" d="M56.9 110.5c-1 0-1.8 0.7-1.8 1.8 0 1 0.8 1.8 1.8 1.8s1.8-0.7 1.8-1.8S57.9 110.5 56.9 110.5"/><path fill="#0065BD" d="M55.3 116.9v9.7h3.2v-11.7h-1.4C55.9 114.9 55.3 115.7 55.3 116.9"/><path fill="#0065BD" d="M40 99.1c1.2 0 2.1 1.1 2.1 2.6v0.1 2.7 0.9c-0.5 0.7-1.4 1.2-2.1 1.2 -1.8 0-2.4-1.6-2.4-3.6C37.5 100.3 38.4 99.1 40 99.1M39.1 108.7c1.2 0 2.2-0.6 2.9-1.3 0.2 0.9 0.7 1.2 1.8 1.2h1.4V96.9h-1.4c-1 0-1.4 0.6-1.6 1.1l0 0V98c-0.6-0.8-1.6-1.3-2.9-1.3 -2.5 0-5 2.1-5 6.2C34.2 106 36 108.7 39.1 108.7"/><path fill="#0065BD" d="M29.7 123.8c-1.8 0-4.4-1.2-4.4-5.6 0-3.9 2.1-5.3 4.3-5.3 1 0 2.2 0.2 3.5 1.1l0.5-1.3c0.6-1.5-1.2-2.6-4-2.6 -4.7 0-7.6 3.8-7.6 8.3 0 4.5 2.2 8.3 7.4 8.3 1.1 0 2.1-0.1 2.9-0.4 0.9-0.3 1.5-0.5 1.9-0.9l-0.9-2.6C32.3 123.4 31 123.8 29.7 123.8"/><path fill="#0065BD" d="M43.4 114.9H42v8.5c-0.7 0.4-1.7 0.6-2.2 0.6 -0.4 0-0.7-0.1-1-0.2 -0.2-0.1-0.4-0.3-0.5-0.5 -0.1-0.2-0.2-0.5-0.2-0.8 0-0.3-0.1-0.6-0.1-1v-4.7c0-1.1-0.6-2-1.9-2h-1.4v6.9c0 0.4 0 0.9 0.1 1.3 0 0.4 0.1 0.9 0.2 1.2 0.2 0.7 0.5 1.3 1.1 1.8s1.4 0.7 2.5 0.7c0.9 0 2.3-0.3 3.4-1.3 0.2 1 0.7 1.2 1.8 1.2h1.4v-9.7C45.3 115.7 44.7 114.9 43.4 114.9"/><path fill="#0065BD" d="M52.7 96.7c-1.1 0-2 0.7-2.5 1.4 -0.2-0.7-0.8-1.2-1.8-1.2H47v11.7h3.2v-7.1 0.1c0-2.8 2.4-2.7 3.7-1.8l0.3-1.4C54.5 96.9 53.2 96.7 52.7 96.7"/><path fill="#0065BD" d="M62.9 119.4c0-0.7 0.2-1.3 0.6-1.8 0.4-0.4 0.9-0.7 1.6-0.7 0.8 0 1.3 0.2 1.6 0.7 0.3 0.5 0.4 1.1 0.4 1.8L62.9 119.4 62.9 119.4zM69 116.3c-0.4-0.5-0.9-0.9-1.5-1.1s-1.4-0.4-2.3-0.4c-0.7 0-1.4 0.1-2 0.3 -0.6 0.2-1.2 0.6-1.8 1.1s-1 1.1-1.2 1.8c-0.3 0.7-0.5 1.6-0.5 2.6 0 1.2 0.2 2.2 0.5 3 0.4 0.8 0.8 1.4 1.4 1.9 0.6 0.5 1.2 0.8 2 1 0.7 0.2 1.5 0.3 2.2 0.3 0.9 0 1.5-0.1 2.2-0.3 0.6-0.2 1.1-0.4 1.4-0.6 0.4-0.3 0.6-0.6 0.6-1 0-0.2-0.1-0.5-0.3-0.9 -0.2-0.4-0.4-0.7-0.6-0.9 -0.2 0.1-0.3 0.3-0.5 0.4 -0.2 0.2-0.4 0.3-0.6 0.4 -0.3 0.1-0.5 0.2-0.8 0.3 -0.3 0.1-0.6 0.1-1.1 0.1 -1.1 0-1.8-0.3-2.3-0.9 -0.5-0.6-0.7-1.3-0.8-2.2h7.1c0-0.1 0.1-0.2 0.1-0.3 0-0.1 0-0.3 0-0.4s0-0.3 0-0.4v-0.3c0-0.6-0.1-1.3-0.3-1.9C69.7 117.3 69.4 116.7 69 116.3"/><path fill="#0065BD" d="M52.7 114.7c-1.1 0-2 0.7-2.5 1.4 -0.2-0.7-0.8-1.2-1.8-1.2H47v11.7h3.2v-7.1 0.1c0-2.8 2.4-2.7 3.7-1.8l0.3-1.4C54.5 114.9 53.2 114.7 52.7 114.7"/><path fill="#0065BD" d="M24.9 106.1H26l3.4-7.4 0.7 9.9h3.2l-1.2-16.2h-3l-4.4 9.9 -4.3-9.8h-3l-1.2 16.2h3.2l0.7-9.9 2.9 6.3C23.3 106 23.8 106.1 24.9 106.1"/><path fill="#FFFFFF" d="M71.1 41.5c0.3 1.2 0.2 1.4-0.1 1.6 -0.1 0.1-0.3 0.2-0.4 0 -0.2 0-0.4-0.2-0.7-0.3 -0.1-0.1-0.2-0.2-0.3-0.3l-0.1-0.1c-0.1-0.2-0.5-0.6-0.9-1.1l-0.5-0.7 -0.6-0.8c-0.9-1.2-1.6-2.6-1.5-2.6 0.1-0.1 0.5 0.3 0.8 0.3 0.5 0 3.4 2.1 3.7 2.7C70.9 40.7 71.1 41.5 71.1 41.5z"/><path fill="#FFFFFF" d="M93 34.1c-0.7 0.5-1.3 1.1-1.7 2.3 0 0-0.5 1.5-0.4 2.4 0.1 0.9 1.6 0.9 1.8 0.7 0.2-0.1 0.4-0.3 0.7-1.1 0 0 0.4-1.1 0.7-2 0.3-0.9 0.3-1.2 0.4-1.8 0 0 0.1-1.1-0.2-1.2 -0.2-0.2-0.3-0.1-0.8 0.2L93 34.1z"/><path fill="#FFFFFF" d="M92.7 81.2c-0.1 0.2 0.1 0.7 0.1 0.9 0 0.1-0.1 0.4-0.1 0.4 -0.1 0.3-0.1 0.8-0.2 1.4 -0.1 0.6-0.6 1.1-0.9 1.4 -0.2 0.3-0.4 0.9-0.5 0.9 -0.2 0-0.5-0.4-0.3-0.9 0.2-0.4-0.2-1.8-0.2-1.8 -0.2-1 0-1-0.1-1.4 -0.1-0.5-0.3-1.4-0.5-2.3L90 79.3c0 0-0.1-0.4 0-0.6 0-0.2 0.1-0.8 0.5-1 0.4-0.2 1.2 0.6 1.5 1.1 0.3 0.4 0.6 1.1 0.6 1.6C92.7 80.6 92.8 81.1 92.7 81.2"/><path fill="#FFFFFF" d="M68 69c1.4 0 1.5 0.3 1.6 0.6 0.1 0.2-0.1 0.4-0.2 0.6 -0.1 0.2-0.4 0.5-0.7 0.7 -0.1 0.1-0.3 0.2-0.4 0.3l-0.2 0.1c-0.2 0.1-0.9 0.4-1.6 0.7l-1 0.4L64.5 73c-1.8 0.7-3.6 1.4-3.6 1.1 0 0 0.1-0.1 0.6-0.6 0.4-0.4 0.1-0.2-0.2-0.3 -0.3-0.1 3.8-3.5 4.9-3.8C67.2 69 68 69 68 69z"/><path fill="#FFFFFF" d="M101.8 69.8c0 0 0.1-0.1 0.4-0.1 0.4-0.1 1.2 0.2 1.4 0.3 0.2 0.1 0.5 0.3 0.7 0.5s1.5 1.5 1.9 1.8l0.4 0.5c0.3 0.3 0.6 0.4 0.5 0.6 -0.1 0.1-0.5-0.1-0.9-0.2 -0.4-0.1-1.4-0.4-2-0.5 -0.5-0.1-1.5-0.3-1.7-0.3 -0.2-0.1-0.1-0.1-0.2-0.2 -0.1-0.1-0.6-0.1-0.8-0.3 -0.2-0.2-1.1-1-1.1-1.2 -0.1-0.3 0.3-0.4 0.3-0.4C100.8 70.1 101.2 69.9 101.8 69.8"/><path fill="#FFFFFF" d="M98.2 74.6c0 0 0 0.2 0.1 0.4 0.1 0.2 0.8 1 0.9 1.2 0.2 0.2 0.4 0.4 0.7 0.5 0.2 0.1 0.6 0.3 0.6 0.3 0.6 0.2 0.9 0.2 1.2 0.3l0.6 0.2c0.4 0.2 0.6 0.3 0.7 0.2 0.1-0.1-0.2-0.2-0.4-0.5 -0.2-0.3-0.5-1.2-0.8-1.4 -0.3-0.5-0.6-1-0.8-1.2 -0.1-0.2-0.3-0.3-0.4-0.4 -0.1-0.1 0-0.1-0.2-0.3 -0.2-0.2-1.7-0.9-2-0.8s-0.2 0.5-0.2 0.5C98.1 73.5 98.1 73.9 98.2 74.6"/><path fill="#FFFFFF" d="M70.3 77.9c-0.3 0.1-0.6 0.3-0.9 0.4 -0.3 0.1-0.8 0.1-1.3 0 -0.5-0.1-0.7 0.1-0.8 0 -0.1-0.1 0.2-0.5 0.5-0.6 0.7-0.2 1.2-0.9 1.2-0.9 0.6-0.6 0.6-0.4 1-0.6 0.3-0.3 0.9-0.9 1.4-1.3l0.3-0.3c0 0 0.3-0.2 0.4-0.3 0.2-0.1 0.6-0.1 0.7-0.1 0.4 0.2 0.1 1.2-0.1 1.6 -0.2 0.4-0.6 0.9-0.9 1.1C71.2 77.4 70.3 77.9 70.3 77.9z"/><path fill="#FFFFFF" d="M106.8 54.9c-0.5 0.1-1.2 0.3-1.6 0.2 -0.5-0.1-1.8-0.2-1.8-0.7 0-0.6 1.5-1.2 1.5-1.2 0.8-0.2 1.6-0.4 2.2-0.5 0.4-0.1 0.2-0.3 1.2-0.5 0 0 1.2-0.3 1.6-0.6 0.4-0.3 0.9-0.2 0.9-0.1 0 0.1-0.2 0.3-0.5 0.7 -0.1 0.2-0.4 0.9-0.7 1.2s-1.1 0.5-1.3 0.7C108.4 54.3 107.4 54.8 106.8 54.9z"/><path fill="#FFFFFF" d="M106.1 46.8c0 0-0.1 0.6-0.4 0.7l-0.1 0.1c-0.6 0.5-1.2 0.9-1.6 1.3 -0.4 0.3-1.8 1-2.1 0.9 -0.8-0.2-0.7-0.9-0.5-1.4 0.2-0.5 1-1.1 1-1.1C103.1 46.7 106.1 46.3 106.1 46.8z"/><path fill="#FFFFFF" d="M84.3 81c0.1 0.2-0.1 0.5-0.1 0.7 0 0.2 0.1 0.3 0.2 0.5 0.1 0.2 0 0.7 0.1 0.9 0.1 0.3 0.5 0.9 0.6 1.1s0.2 0.7 0.4 0.7c0.2 0.1 0.3-0.3 0.3-0.9 -0.1-0.5 0.1-1 0.3-1.3 0.2-0.3 0.1-0.7 0.1-1.1 0.1-0.4 0.3-1.2 0.5-1.9l0.1-0.4c0 0 0.1-0.3 0.1-0.5 -0.1-0.3-0.2-0.5-0.3-0.6 -0.1-0.1-0.3-0.1-0.3-0.1 -0.4 0.2-0.9 0.5-1.1 0.9 -0.2 0.3-0.5 0.9-0.5 1.3C84.4 80.5 84.2 80.9 84.3 81"/><path fill="#FFFFFF" d="M66 45.6c1 0.2 1.1 0 1.3-0.2 0.1-0.2 0.1-0.2 0-0.4 -0.1-0.2-0.2-0.4-0.3-0.6 -0.1-0.1-0.2-0.2-0.2-0.3l-0.1-0.1c-0.2-0.1-0.5-0.4-1-0.7l-0.6-0.4 -0.7-0.5c-1-0.7-2.2-1.3-2.2-1.2 0 0.1 0 0.1 0.2 0.4 0.2 0.4 0 0.2-0.1 0.3 -0.1 0.1 2 3.1 2.5 3.3C65.3 45.6 66 45.6 66 45.6z"/><path fill="#FFFFFF" d="M87.1 33.4c0.2-0.2 0.4 0.5 0.6 0.7l0.1 0.1c0.1 0.1 0.3 0.3 0.2 0.5 0 0 0.1 1.2 0.2 1.8 0.2 1.5 0.1 2.1 0.1 2.1 -0.1 0.2-0.2 0.4-0.2 0.4 -0.2 0.2-1.7 0.1-1.9-1.2C86 37.2 86.1 36 86.1 36c0.1-1.2 0.5-2.1 0.9-2.3L87.1 33.4z"/><path fill="#0065BD" d="M21.5 159.2c-0.1 0.1-0.1 0.1-0.2 0.2 -0.1 0.1-0.2 0.2-0.4 0.2 -0.2 0.1-0.4 0.1-0.6 0.2 -0.3 0.1-0.5 0.1-0.9 0.1 -0.6 0-1.1-0.1-1.5-0.3 -0.4-0.2-0.8-0.5-1.1-0.8 -0.3-0.3-0.5-0.7-0.6-1.2s-0.2-1-0.2-1.5c0-0.5 0.1-1.1 0.2-1.5 0.2-0.5 0.4-0.9 0.6-1.2 0.3-0.4 0.6-0.6 1.1-0.8 0.4-0.2 1-0.3 1.5-0.3 0.3 0 0.5 0 0.8 0.1 0.2 0.1 0.4 0.1 0.6 0.2 0.2 0.1 0.3 0.2 0.4 0.2 0.1 0.1 0.2 0.2 0.3 0.2 0.1 0.1 0.1 0.1 0.2 0.2 0.1 0.1 0.1 0.2 0.1 0.3 0 0.2-0.1 0.3-0.2 0.4 -0.1 0.2-0.2 0.3-0.4 0.4 -0.1-0.1-0.2-0.2-0.3-0.3 -0.1-0.1-0.2-0.2-0.4-0.3s-0.3-0.1-0.5-0.2c-0.2-0.1-0.4-0.1-0.6-0.1 -0.4 0-0.7 0.1-1 0.2 -0.3 0.2-0.5 0.4-0.6 0.6 -0.2 0.3-0.3 0.5-0.3 0.9 -0.1 0.3-0.1 0.6-0.1 1 0 0.4 0.1 0.7 0.1 1 0.1 0.3 0.2 0.6 0.3 0.9 0.2 0.3 0.4 0.4 0.6 0.6 0.3 0.2 0.6 0.2 1 0.2 0.2 0 0.4 0 0.6-0.1 0.2-0.1 0.3-0.1 0.5-0.2 0.2-0.1 0.3-0.2 0.4-0.2 0.1-0.1 0.2-0.2 0.3-0.2 0.1 0.1 0.1 0.1 0.2 0.2 0.1 0.1 0.1 0.2 0.2 0.2 0.1 0.1 0.1 0.2 0.2 0.3 0.1 0.1 0.1 0.2 0.1 0.2 0 0.1 0 0.2-0.1 0.3C21.7 159 21.7 159.1 21.5 159.2z"/><path fill="#0065BD" d="M27.2 158.3c0 0.6 0.1 1 0.3 1.3 -0.2 0.1-0.3 0.1-0.4 0.1 -0.1 0-0.2 0.1-0.4 0.1 -0.3 0-0.5-0.1-0.6-0.2 -0.2-0.1-0.2-0.3-0.3-0.4 -0.2 0.2-0.4 0.3-0.6 0.4 -0.3 0.1-0.6 0.2-1 0.2 -0.2 0-0.4-0.1-0.6-0.1 -0.2-0.1-0.4-0.2-0.5-0.3 -0.2-0.1-0.3-0.3-0.4-0.5 -0.1-0.2-0.2-0.5-0.2-0.7 0-0.4 0.1-0.7 0.3-0.9 0.2-0.2 0.4-0.4 0.7-0.6 0.3-0.2 0.6-0.2 0.9-0.3 0.3-0.1 0.6-0.1 0.9-0.1 0.1 0 0.2 0 0.3 0s0.2 0 0.3 0v-0.2c0-0.3-0.1-0.5-0.2-0.6s-0.4-0.2-0.7-0.2 -0.6 0.1-0.9 0.2c-0.3 0.1-0.5 0.2-0.7 0.4 -0.1-0.1-0.2-0.3-0.3-0.4 -0.1-0.2-0.1-0.3-0.1-0.3 0-0.1 0.1-0.2 0.2-0.3 0.1-0.1 0.3-0.2 0.5-0.3 0.2-0.1 0.4-0.2 0.7-0.2 0.3-0.1 0.5-0.1 0.8-0.1 0.4 0 0.7 0.1 1 0.1 0.3 0.1 0.5 0.2 0.7 0.4 0.2 0.2 0.3 0.4 0.4 0.6 0.1 0.3 0.1 0.5 0.1 0.9L27.2 158.3 27.2 158.3zM25.9 157c-0.1 0-0.1 0-0.2 0 -0.1 0-0.1 0-0.2 0 -0.2 0-0.4 0.1-0.5 0.1 -0.2 0.1-0.3 0.1-0.5 0.2 -0.2 0.1-0.3 0.2-0.3 0.3 -0.1 0.1-0.2 0.3-0.2 0.5s0.1 0.4 0.2 0.5c0.1 0.2 0.3 0.2 0.6 0.2 0.2 0 0.3 0 0.4-0.1 0.1-0.1 0.2-0.1 0.3-0.2 0.1-0.1 0.2-0.1 0.2-0.2 0.1-0.1 0.1-0.2 0.1-0.2L25.9 157z"/><path fill="#0065BD" d="M30.1 154.8c0.1-0.1 0.1-0.2 0.2-0.2 0.1-0.1 0.2-0.2 0.3-0.2 0.1-0.1 0.2-0.1 0.4-0.2 0.1-0.1 0.3-0.1 0.4-0.1 0.1 0 0.2 0 0.3 0 0.1 0 0.2 0.1 0.3 0.1 0.1 0.1 0.2 0.1 0.2 0.2 0.1 0.1 0.1 0.2 0.1 0.3 0 0.2-0.1 0.4-0.1 0.5 -0.1 0.2-0.2 0.4-0.3 0.5 -0.1-0.1-0.3-0.2-0.4-0.3 -0.1-0.1-0.3-0.1-0.4-0.1 -0.2 0-0.4 0.1-0.6 0.2 -0.2 0.2-0.2 0.3-0.2 0.5v3.5h-1.5v-5.3c0.1 0 0.1 0 0.2 0 0.1 0 0.1 0 0.2 0 0.1 0 0.1 0 0.2 0 0.2 0 0.4 0.1 0.6 0.2C30 154.5 30.1 154.6 30.1 154.8z"/><path fill="#0065BD" d="M35.5 158.6c0.2 0 0.4 0 0.5-0.1 0.2-0.1 0.3-0.1 0.4-0.2 0.1-0.1 0.2-0.1 0.3-0.2 0.1-0.1 0.2-0.2 0.2-0.2 0.1 0.1 0.2 0.3 0.3 0.4 0.1 0.2 0.2 0.3 0.2 0.4 0 0.2-0.1 0.3-0.3 0.4 -0.2 0.1-0.4 0.2-0.6 0.3 -0.3 0.1-0.6 0.1-1 0.1 -0.4 0-0.7-0.1-1-0.2s-0.6-0.3-0.9-0.5 -0.5-0.5-0.6-0.9c-0.2-0.4-0.3-0.9-0.3-1.4 0-0.5 0.1-0.9 0.2-1.2 0.2-0.3 0.3-0.6 0.6-0.9 0.3-0.2 0.5-0.4 0.8-0.5 0.3-0.1 0.6-0.2 1-0.2 0.4 0 0.7 0.1 1.1 0.2 0.3 0.1 0.5 0.3 0.7 0.5 0.2 0.2 0.3 0.5 0.4 0.7 0.1 0.3 0.1 0.6 0.1 0.9 0 0.1 0 0.1 0 0.2 0 0.1 0 0.1 0 0.2 0 0.1 0 0.1 0 0.2 0 0.1 0 0.1 0 0.2H34c0.1 0.4 0.2 0.7 0.4 1C34.6 158.5 35 158.6 35.5 158.6zM36 156.4c0-0.4-0.1-0.6-0.2-0.9 -0.2-0.2-0.4-0.3-0.7-0.3 -0.3 0-0.5 0.1-0.7 0.3 -0.2 0.2-0.3 0.5-0.3 0.9L36 156.4 36 156.4z"/><path fill="#0065BD" d="M45.4 158.3c0 0.6 0.1 1 0.3 1.3 -0.2 0.1-0.3 0.1-0.4 0.1 -0.1 0-0.2 0.1-0.4 0.1 -0.3 0-0.5-0.1-0.6-0.2 -0.2-0.1-0.2-0.3-0.3-0.4 -0.2 0.2-0.4 0.3-0.6 0.4 -0.3 0.1-0.6 0.2-1 0.2 -0.2 0-0.4-0.1-0.6-0.1 -0.2-0.1-0.4-0.2-0.5-0.3 -0.2-0.1-0.3-0.3-0.4-0.5 -0.1-0.2-0.2-0.5-0.2-0.7 0-0.4 0.1-0.7 0.3-0.9 0.2-0.2 0.4-0.4 0.7-0.6 0.3-0.2 0.6-0.2 0.9-0.3 0.3-0.1 0.6-0.1 0.9-0.1 0.1 0 0.2 0 0.3 0 0.1 0 0.2 0 0.3 0v-0.2c0-0.3-0.1-0.5-0.2-0.6 -0.2-0.1-0.4-0.2-0.7-0.2s-0.6 0.1-0.9 0.2c-0.3 0.1-0.5 0.2-0.7 0.4 -0.1-0.1-0.2-0.3-0.3-0.4 -0.1-0.2-0.1-0.3-0.1-0.3 0-0.1 0.1-0.2 0.2-0.3 0.1-0.1 0.3-0.2 0.5-0.3 0.2-0.1 0.4-0.2 0.7-0.2s0.5-0.1 0.8-0.1c0.4 0 0.7 0.1 1 0.1 0.3 0.1 0.5 0.2 0.7 0.4 0.2 0.2 0.3 0.4 0.4 0.6 0.1 0.3 0.1 0.5 0.1 0.9L45.4 158.3 45.4 158.3zM43.9 157c-0.1 0-0.1 0-0.2 0 -0.1 0-0.1 0-0.2 0 -0.2 0-0.4 0.1-0.5 0.1 -0.2 0.1-0.3 0.1-0.5 0.2 -0.2 0.1-0.3 0.2-0.3 0.3 -0.1 0.1-0.2 0.3-0.2 0.5s0.1 0.4 0.2 0.5 0.3 0.2 0.6 0.2c0.2 0 0.3 0 0.4-0.1 0.1-0.1 0.2-0.1 0.3-0.2 0.1-0.1 0.2-0.1 0.2-0.2 0.1-0.1 0.1-0.2 0.1-0.2L43.9 157z"/><path fill="#0065BD" d="M48.3 159.6h-1.5v-5.3c0.1 0 0.1 0 0.1 0 0.1 0 0.1 0 0.2 0 0.1 0 0.1 0 0.2 0 0.2 0 0.4 0.1 0.6 0.1 0.2 0.1 0.3 0.2 0.3 0.4 0.1-0.2 0.3-0.3 0.6-0.5 0.3-0.2 0.6-0.2 1.1-0.2 0.5 0 0.9 0.1 1.2 0.3 0.3 0.2 0.4 0.5 0.5 0.8 0.1 0.2 0.1 0.4 0.1 0.5 0 0.2 0 0.4 0 0.6v3.1h-1.5v-3c0-0.2 0-0.3 0-0.5s-0.1-0.3-0.1-0.4c-0.1-0.1-0.1-0.2-0.2-0.2 -0.1-0.1-0.3-0.1-0.5-0.1 -0.3 0-0.5 0.1-0.7 0.2 -0.2 0.1-0.3 0.3-0.3 0.4L48.3 159.6z"/><path fill="#0065BD" d="M56.8 159.6c-0.1 0-0.2-0.1-0.3-0.1 -0.1-0.1-0.1-0.2-0.1-0.3 -0.1 0.1-0.3 0.3-0.5 0.4 -0.3 0.2-0.6 0.2-1 0.2 -0.3 0-0.5-0.1-0.8-0.2 -0.3-0.1-0.5-0.2-0.7-0.4 -0.2-0.2-0.4-0.5-0.5-0.9 -0.1-0.3-0.2-0.8-0.2-1.3 0-0.5 0.1-1 0.2-1.3 0.1-0.4 0.3-0.6 0.5-0.9 0.2-0.2 0.4-0.4 0.7-0.5 0.3-0.1 0.5-0.2 0.9-0.2s0.6 0.1 0.8 0.2c0.2 0.1 0.4 0.2 0.5 0.3v-2.9c0 0 0.1 0 0.2-0.1 0.1 0 0.2 0 0.3 0 0.1 0 0.3 0 0.4 0.1 0.1 0 0.2 0.1 0.3 0.2 0.1 0.1 0.2 0.2 0.2 0.3 0.1 0.1 0.1 0.3 0.1 0.4v7H56.8zM54.3 157c0 0.3 0 0.5 0.1 0.7 0.1 0.2 0.1 0.4 0.2 0.5 0.1 0.2 0.2 0.3 0.4 0.3 0.2 0.1 0.3 0.1 0.6 0.1 0.2 0 0.4-0.1 0.5-0.2 0.2-0.1 0.2-0.2 0.2-0.4v-2.5c-0.1-0.1-0.2-0.1-0.3-0.2 -0.2-0.1-0.3-0.1-0.5-0.1 -0.4 0-0.7 0.2-0.9 0.4C54.4 156 54.3 156.4 54.3 157z"/><path fill="#0065BD" d="M65.4 155c0 0.1-0.1 0.3-0.1 0.4 -0.1 0.2-0.2 0.3-0.2 0.4 -0.1-0.1-0.2-0.1-0.3-0.2 -0.1-0.1-0.2-0.1-0.4-0.2 -0.2-0.1-0.3-0.1-0.4-0.2 -0.2-0.1-0.3-0.1-0.4-0.1 -0.1 0-0.2 0-0.3 0s-0.2 0.1-0.3 0.1c-0.1 0-0.1 0.1-0.2 0.2 -0.1 0.1-0.1 0.2-0.1 0.3 0 0.3 0.3 0.4 0.8 0.5 0.2 0.1 0.4 0.1 0.6 0.2s0.4 0.2 0.6 0.3c0.2 0.1 0.3 0.3 0.4 0.5 0.1 0.2 0.2 0.4 0.2 0.7 0 0.3-0.1 0.6-0.2 0.8s-0.3 0.4-0.5 0.6c-0.2 0.2-0.4 0.3-0.7 0.4 -0.3 0.1-0.6 0.1-0.9 0.1 -0.3 0-0.6 0-0.9-0.1 -0.2-0.1-0.4-0.1-0.6-0.2 -0.1-0.1-0.2-0.1-0.3-0.2 -0.1-0.1-0.2-0.2-0.2-0.4 0-0.1 0.1-0.3 0.1-0.4 0.1-0.2 0.2-0.3 0.3-0.4 0.1 0.1 0.2 0.1 0.3 0.2 0.1 0.1 0.2 0.1 0.3 0.2 0.1 0.1 0.3 0.1 0.4 0.2 0.2 0.1 0.3 0.1 0.5 0.1 0.1 0 0.2 0 0.3 0 0.1 0 0.2-0.1 0.3-0.1 0.1-0.1 0.2-0.1 0.2-0.2 0.1-0.1 0.1-0.2 0.1-0.3 0-0.2-0.1-0.4-0.3-0.5 -0.2-0.1-0.4-0.2-0.7-0.3 -0.2-0.1-0.4-0.1-0.6-0.2 -0.2-0.1-0.4-0.2-0.5-0.3 -0.2-0.1-0.3-0.3-0.4-0.5 -0.1-0.2-0.2-0.4-0.2-0.7s0.1-0.5 0.2-0.7c0.1-0.2 0.3-0.4 0.5-0.5 0.2-0.2 0.4-0.3 0.7-0.3s0.5-0.1 0.8-0.1c0.3 0 0.6 0 0.8 0.1 0.2 0.1 0.4 0.1 0.6 0.2C65.2 154.5 65.4 154.7 65.4 155z"/><path fill="#0065BD" d="M69.7 154.3c0 0 0.1 0 0.2 0s0.2 0 0.3 0c0.1 0 0.3 0 0.4 0.1 0.1 0.1 0.2 0.1 0.3 0.2 0.1 0.1 0.2 0.2 0.2 0.3 0.1 0.1 0.1 0.3 0.1 0.4v4.4h-1c-0.2 0-0.3-0.1-0.4-0.2s-0.1-0.3-0.1-0.4c-0.1 0.2-0.3 0.3-0.6 0.5s-0.6 0.2-1.1 0.2c-0.5 0-0.9-0.1-1.2-0.3 -0.3-0.2-0.4-0.5-0.5-0.8 -0.1-0.2-0.1-0.4-0.1-0.5 0-0.2 0-0.4 0-0.6v-3.1c0.1 0 0.1 0 0.2 0 0.1 0 0.1 0 0.2 0 0.1 0 0.1 0 0.2 0 0.3 0 0.5 0.1 0.7 0.2 0.2 0.1 0.3 0.4 0.3 0.7v2.2c0 0.2 0 0.3 0 0.5s0.1 0.3 0.1 0.4c0.1 0.1 0.1 0.2 0.2 0.2s0.3 0.1 0.4 0.1c0.3 0 0.5-0.1 0.7-0.2 0.2-0.1 0.3-0.3 0.3-0.4L69.7 154.3 69.7 154.3z"/><path fill="#0065BD" d="M74.2 154.8c0.1-0.2 0.3-0.3 0.5-0.4 0.3-0.2 0.6-0.2 1-0.2 0.3 0 0.5 0.1 0.8 0.2s0.5 0.3 0.6 0.4 0.3 0.5 0.5 0.8c0.1 0.3 0.2 0.7 0.2 1.3 0 0.6-0.1 1.1-0.2 1.4 -0.2 0.4-0.3 0.7-0.5 0.9 -0.2 0.2-0.4 0.4-0.7 0.5s-0.5 0.2-0.8 0.2c-0.2 0-0.4 0-0.6-0.1s-0.3-0.1-0.4-0.2c-0.1-0.1-0.2-0.1-0.3-0.2 -0.1-0.1-0.1-0.1-0.1-0.1v2.8h-1.5v-7.7c0.1 0 0.1 0 0.2 0s0.1 0 0.2 0c0.1 0 0.1 0 0.2 0 0.3 0 0.5 0.1 0.6 0.1C74 154.5 74.1 154.6 74.2 154.8zM76.1 156.9c0-0.2 0-0.4-0.1-0.6 -0.1-0.2-0.1-0.4-0.2-0.5 -0.1-0.2-0.2-0.3-0.3-0.3 -0.2-0.1-0.3-0.1-0.5-0.1 -0.3 0-0.5 0.1-0.6 0.2 -0.1 0.1-0.2 0.3-0.2 0.4v2.3c0.1 0.1 0.2 0.1 0.3 0.2 0.2 0.1 0.3 0.1 0.5 0.1 0.4 0 0.6-0.2 0.9-0.4C76.1 157.8 76.1 157.4 76.1 156.9z"/><path fill="#0065BD" d="M80.4 154.8c0.1-0.2 0.3-0.3 0.5-0.4 0.3-0.2 0.6-0.2 1-0.2 0.3 0 0.5 0.1 0.8 0.2s0.5 0.3 0.6 0.4c0.2 0.2 0.3 0.5 0.5 0.8 0.1 0.3 0.2 0.7 0.2 1.3 0 0.6-0.1 1.1-0.2 1.4 -0.2 0.4-0.3 0.7-0.5 0.9 -0.2 0.2-0.4 0.4-0.7 0.5s-0.5 0.2-0.8 0.2c-0.2 0-0.4 0-0.6-0.1s-0.3-0.1-0.4-0.2c-0.1-0.1-0.2-0.1-0.3-0.2 -0.1-0.1-0.1-0.1-0.1-0.1v2.8h-1.5v-7.7c0.1 0 0.1 0 0.2 0 0.1 0 0.1 0 0.2 0 0.1 0 0.1 0 0.2 0 0.3 0 0.5 0.1 0.6 0.1C80.2 154.5 80.3 154.6 80.4 154.8zM82.4 156.9c0-0.2 0-0.4-0.1-0.6 -0.1-0.2-0.1-0.4-0.2-0.5 -0.1-0.2-0.2-0.3-0.3-0.3 -0.2-0.1-0.3-0.1-0.5-0.1 -0.3 0-0.5 0.1-0.6 0.2 -0.1 0.1-0.2 0.3-0.2 0.4v2.3c0.1 0.1 0.2 0.1 0.3 0.2 0.2 0.1 0.3 0.1 0.5 0.1 0.4 0 0.6-0.2 0.9-0.4C82.3 157.8 82.4 157.4 82.4 156.9z"/><path fill="#0065BD" d="M90.2 156.9c0 0.4-0.1 0.7-0.2 1.1 -0.1 0.3-0.3 0.6-0.5 0.9 -0.2 0.3-0.5 0.5-0.8 0.6 -0.3 0.2-0.7 0.2-1.2 0.2 -0.5 0-0.9-0.1-1.2-0.2 -0.3-0.2-0.6-0.4-0.8-0.6 -0.2-0.3-0.4-0.5-0.5-0.9 -0.1-0.3-0.2-0.7-0.2-1.1 0-0.4 0.1-0.7 0.2-1.1 0.1-0.3 0.3-0.6 0.5-0.9 0.2-0.3 0.5-0.5 0.9-0.6 0.3-0.2 0.7-0.2 1.2-0.2 0.5 0 0.9 0.1 1.2 0.2 0.3 0.2 0.6 0.4 0.8 0.6 0.2 0.3 0.4 0.5 0.4 0.9C90.1 156.2 90.2 156.5 90.2 156.9zM88.7 156.9c0-0.2 0-0.4-0.1-0.6 -0.1-0.2-0.1-0.4-0.2-0.5 -0.1-0.2-0.2-0.3-0.3-0.4 -0.2-0.1-0.3-0.2-0.5-0.2 -0.2 0-0.4 0.1-0.5 0.2 -0.2 0.1-0.3 0.2-0.4 0.4 -0.1 0.2-0.2 0.3-0.2 0.5 -0.1 0.2-0.1 0.4-0.1 0.6 0 0.2 0 0.4 0.1 0.6 0.1 0.2 0.1 0.4 0.2 0.5 0.1 0.2 0.2 0.3 0.3 0.4 0.2 0.1 0.3 0.2 0.5 0.2s0.4-0.1 0.5-0.2c0.2-0.1 0.3-0.2 0.3-0.4 0.1-0.2 0.2-0.3 0.2-0.5C88.7 157.3 88.7 157.1 88.7 156.9z"/><path fill="#0065BD" d="M92.8 154.8c0.1-0.1 0.1-0.2 0.2-0.2 0.1-0.1 0.2-0.2 0.3-0.2 0.1-0.1 0.2-0.1 0.4-0.2 0.1-0.1 0.3-0.1 0.4-0.1 0.1 0 0.2 0 0.3 0 0.1 0 0.2 0.1 0.3 0.1 0.1 0.1 0.2 0.1 0.2 0.2 0.1 0.1 0.1 0.2 0.1 0.3 0 0.2-0.1 0.4-0.1 0.5 -0.1 0.2-0.2 0.4-0.3 0.5 -0.1-0.1-0.3-0.2-0.4-0.3 -0.1-0.1-0.3-0.1-0.4-0.1 -0.2 0-0.4 0.1-0.6 0.2 -0.2 0.2-0.2 0.3-0.2 0.5v3.5h-1.5v-5.3c0.1 0 0.1 0 0.2 0 0.1 0 0.1 0 0.2 0s0.1 0 0.2 0c0.2 0 0.4 0.1 0.6 0.2C92.7 154.5 92.8 154.6 92.8 154.8z"/><path fill="#0065BD" d="M95.7 158.8c-0.1-0.2-0.1-0.3-0.1-0.5s0-0.3 0-0.5v-5.2c0.1 0 0.1 0 0.2 0s0.1 0 0.2 0c0.1 0 0.1 0 0.2 0 0.1 0 0.2 0 0.4 0.1 0.1 0 0.2 0.1 0.3 0.2 0.1 0.1 0.2 0.2 0.2 0.3 0.1 0.1 0.1 0.3 0.1 0.4v0.8h1.5v1.1h-1.5v2.4c0 0.5 0.2 0.8 0.6 0.8 0.1 0 0.2 0 0.3-0.1 0.1-0.1 0.2-0.1 0.3-0.1 0.1-0.1 0.2-0.1 0.2-0.1 0.1-0.1 0.1-0.1 0.1-0.1 0.1 0.2 0.2 0.3 0.3 0.4 0.1 0.1 0.1 0.2 0.1 0.3 0 0.1-0.1 0.2-0.1 0.3 -0.1 0.1-0.2 0.2-0.3 0.3 -0.2 0.1-0.3 0.2-0.5 0.2s-0.4 0.1-0.6 0.1c-0.5 0-0.8-0.1-1.1-0.3C95.9 159.3 95.8 159.1 95.7 158.8z"/><path fill="#0065BD" d="M16.3 170.6c-0.1-0.2-0.1-0.3-0.1-0.5 0-0.2 0-0.3 0-0.5v-5.2c0.1 0 0.1 0 0.2 0 0.1 0 0.1 0 0.2 0 0.1 0 0.1 0 0.2 0 0.1 0 0.2 0 0.4 0.1 0.1 0 0.2 0.1 0.3 0.2 0.1 0.1 0.2 0.2 0.2 0.3 0.1 0.1 0.1 0.3 0.1 0.4v0.8h1.5v1.1h-1.5v2.4c0 0.5 0.2 0.8 0.6 0.8 0.1 0 0.2 0 0.3-0.1s0.2-0.1 0.3-0.1c0.1-0.1 0.2-0.1 0.2-0.1 0.1-0.1 0.1-0.1 0.1-0.1 0.1 0.2 0.2 0.3 0.3 0.4 0.1 0.1 0.1 0.2 0.1 0.3 0 0.1-0.1 0.2-0.1 0.3 -0.1 0.1-0.2 0.2-0.3 0.3 -0.2 0.1-0.3 0.2-0.5 0.2s-0.4 0.1-0.6 0.1c-0.5 0-0.8-0.1-1.1-0.3C16.6 171.1 16.4 170.9 16.3 170.6z"/><path fill="#0065BD" d="M23.7 168.3c0-0.2 0-0.3 0-0.5s-0.1-0.3-0.1-0.4c-0.1-0.1-0.1-0.2-0.2-0.2 -0.1-0.1-0.3-0.1-0.4-0.1 -0.3 0-0.5 0.1-0.7 0.2 -0.2 0.1-0.3 0.3-0.3 0.4v3.6h-1.5v-7.8c0 0 0.1 0 0.2-0.1 0.1 0 0.2 0 0.3 0 0.1 0 0.2 0 0.4 0.1 0.1 0 0.2 0.1 0.3 0.1 0.1 0.1 0.2 0.2 0.2 0.3 0.1 0.1 0.1 0.3 0.1 0.4v2.2c0.1-0.1 0.2-0.2 0.2-0.2 0.1-0.1 0.2-0.2 0.3-0.2 0.1-0.1 0.3-0.1 0.4-0.2s0.4-0.1 0.6-0.1c0.5 0 0.9 0.1 1.2 0.3 0.3 0.2 0.4 0.5 0.5 0.8 0.1 0.2 0.1 0.4 0.1 0.5 0 0.2 0 0.4 0 0.6v3.1h-1.5L23.7 168.3z"/><path fill="#0065BD" d="M28 166.6c0.1-0.1 0.1-0.2 0.2-0.2 0.1-0.1 0.2-0.2 0.3-0.2 0.1-0.1 0.2-0.1 0.4-0.2 0.1-0.1 0.3-0.1 0.4-0.1 0.1 0 0.2 0 0.3 0s0.2 0.1 0.3 0.1c0.1 0.1 0.2 0.1 0.2 0.2 0.1 0.1 0.1 0.2 0.1 0.3 0 0.2-0.1 0.4-0.1 0.5 -0.1 0.2-0.2 0.4-0.3 0.5 -0.1-0.1-0.3-0.2-0.4-0.3 -0.1-0.1-0.3-0.1-0.4-0.1 -0.2 0-0.4 0.1-0.6 0.2 -0.2 0.2-0.2 0.3-0.2 0.5v3.5h-1.5v-5.3c0.1 0 0.1 0 0.2 0 0.1 0 0.1 0 0.2 0 0.1 0 0.1 0 0.2 0 0.2 0 0.4 0.1 0.6 0.2C27.9 166.3 28 166.5 28 166.6z"/><path fill="#0065BD" d="M35.7 168.7c0 0.4-0.1 0.7-0.2 1.1 -0.1 0.3-0.3 0.6-0.5 0.9 -0.2 0.3-0.5 0.5-0.8 0.6 -0.3 0.2-0.7 0.2-1.2 0.2 -0.5 0-0.9-0.1-1.2-0.2 -0.3-0.2-0.6-0.4-0.8-0.6 -0.2-0.3-0.4-0.5-0.5-0.9 -0.1-0.3-0.2-0.7-0.2-1.1 0-0.4 0.1-0.7 0.2-1.1 0.1-0.3 0.3-0.6 0.5-0.9 0.2-0.3 0.5-0.5 0.9-0.6 0.3-0.2 0.7-0.2 1.2-0.2 0.5 0 0.9 0.1 1.2 0.2 0.3 0.2 0.6 0.4 0.8 0.6 0.2 0.3 0.4 0.5 0.4 0.9C35.6 168 35.7 168.4 35.7 168.7zM34.1 168.8c0-0.2 0-0.4-0.1-0.6s-0.1-0.4-0.2-0.5c-0.1-0.2-0.2-0.3-0.3-0.4 -0.2-0.1-0.3-0.2-0.5-0.2s-0.4 0.1-0.5 0.2c-0.2 0.1-0.3 0.2-0.4 0.4 -0.1 0.2-0.2 0.3-0.2 0.5 -0.1 0.2-0.1 0.4-0.1 0.6 0 0.2 0 0.4 0.1 0.6 0.1 0.2 0.1 0.4 0.2 0.5 0.1 0.2 0.2 0.3 0.3 0.4 0.2 0.1 0.3 0.2 0.5 0.2s0.4-0.1 0.5-0.2c0.2-0.1 0.3-0.2 0.3-0.4 0.1-0.2 0.2-0.3 0.2-0.5C34.1 169.1 34.1 169 34.1 168.8z"/><path fill="#0065BD" d="M40.2 166.1c0 0 0.1 0 0.2 0 0.1 0 0.2 0 0.3 0 0.1 0 0.3 0 0.4 0.1 0.1 0.1 0.2 0.1 0.3 0.2 0.1 0.1 0.2 0.2 0.2 0.3s0.1 0.3 0.1 0.4v4.4h-1c-0.2 0-0.3-0.1-0.4-0.2 -0.1-0.1-0.1-0.3-0.1-0.4 -0.1 0.2-0.3 0.3-0.6 0.5 -0.3 0.2-0.6 0.2-1.1 0.2 -0.5 0-0.9-0.1-1.2-0.3s-0.4-0.5-0.5-0.8c-0.1-0.2-0.1-0.4-0.1-0.5 0-0.2 0-0.4 0-0.6v-3.1c0.1 0 0.1 0 0.2 0 0.1 0 0.1 0 0.2 0s0.1 0 0.2 0c0.3 0 0.5 0.1 0.7 0.2 0.2 0.1 0.3 0.4 0.3 0.7v2.2c0 0.2 0 0.3 0 0.5 0 0.2 0.1 0.3 0.1 0.4s0.1 0.2 0.2 0.2c0.1 0.1 0.3 0.1 0.4 0.1 0.3 0 0.5-0.1 0.7-0.2 0.2-0.1 0.3-0.3 0.3-0.4L40.2 166.1 40.2 166.1z"/><path fill="#0065BD" d="M47.9 171c0 0.4-0.1 0.9-0.1 1.2 -0.1 0.4-0.2 0.7-0.4 0.9 -0.2 0.3-0.5 0.5-0.9 0.6 -0.4 0.2-0.8 0.2-1.3 0.2 -0.4 0-0.8-0.1-1.1-0.1 -0.3-0.1-0.5-0.2-0.7-0.3 -0.2-0.1-0.3-0.2-0.3-0.3 -0.1-0.1-0.1-0.2-0.1-0.3 0-0.1 0.1-0.3 0.2-0.4 0.1-0.2 0.2-0.3 0.3-0.4 0.1 0.1 0.1 0.1 0.2 0.2s0.2 0.1 0.3 0.2c0.2 0.1 0.3 0.1 0.4 0.2 0.2 0.1 0.4 0.1 0.5 0.1 0.3 0 0.5-0.1 0.7-0.1 0.2-0.1 0.3-0.2 0.4-0.3 0.1-0.2 0.2-0.3 0.2-0.5 0.1-0.2 0.1-0.4 0.1-0.7v-0.2c-0.1 0.1-0.3 0.3-0.5 0.4 -0.2 0.1-0.5 0.2-0.9 0.2 -0.3 0-0.5-0.1-0.8-0.1 -0.3-0.1-0.5-0.2-0.7-0.4s-0.4-0.5-0.5-0.8c-0.1-0.3-0.2-0.7-0.2-1.3 0-0.5 0.1-1 0.2-1.3 0.1-0.4 0.3-0.6 0.5-0.9s0.4-0.4 0.7-0.5c0.3-0.1 0.5-0.2 0.9-0.2s0.6 0.1 0.8 0.2 0.4 0.3 0.5 0.4c0.1-0.2 0.2-0.3 0.3-0.4 0.2-0.1 0.4-0.1 0.6-0.1 0.1 0 0.1 0 0.2 0 0.1 0 0.1 0 0.2 0 0.1 0 0.1 0 0.2 0v4.9H47.9zM44.5 168.7c0 0.5 0.1 0.9 0.2 1.2 0.2 0.3 0.4 0.4 0.9 0.4 0.3 0 0.5-0.1 0.6-0.2 0.2-0.1 0.2-0.2 0.2-0.4v-2.4c-0.1-0.1-0.2-0.1-0.3-0.2 -0.2-0.1-0.3-0.1-0.5-0.1C44.8 167.1 44.5 167.7 44.5 168.7z"/><path fill="#0065BD" d="M52.6 168.3c0-0.2 0-0.3 0-0.5s-0.1-0.3-0.1-0.4c-0.1-0.1-0.1-0.2-0.2-0.2 -0.1-0.1-0.3-0.1-0.4-0.1 -0.3 0-0.5 0.1-0.7 0.2 -0.2 0.1-0.3 0.3-0.3 0.4v3.6h-1.5v-7.8c0 0 0.1 0 0.2-0.1 0.1 0 0.2 0 0.3 0 0.1 0 0.2 0 0.4 0.1 0.1 0 0.2 0.1 0.3 0.1 0.1 0.1 0.2 0.2 0.2 0.3 0.1 0.1 0.1 0.3 0.1 0.4v2.2c0.1-0.1 0.2-0.2 0.2-0.2 0.1-0.1 0.2-0.2 0.3-0.2 0.1-0.1 0.3-0.1 0.4-0.2 0.2-0.1 0.4-0.1 0.6-0.1 0.5 0 0.9 0.1 1.2 0.3s0.4 0.5 0.5 0.8c0.1 0.2 0.1 0.4 0.1 0.5 0 0.2 0 0.4 0 0.6v3.1h-1.5V168.3z"/><path fill="#0065BD" d="M58.1 170.6c-0.1-0.2-0.1-0.3-0.1-0.5 0-0.2 0-0.3 0-0.5v-5.2c0.1 0 0.1 0 0.2 0 0.1 0 0.1 0 0.2 0s0.1 0 0.2 0c0.1 0 0.2 0 0.4 0.1 0.1 0 0.2 0.1 0.3 0.2 0.1 0.1 0.2 0.2 0.2 0.3 0.1 0.1 0.1 0.3 0.1 0.4v0.8H61v1.1h-1.5v2.4c0 0.5 0.2 0.8 0.6 0.8 0.1 0 0.2 0 0.3-0.1 0.1-0.1 0.2-0.1 0.3-0.1 0.1-0.1 0.2-0.1 0.2-0.1 0.1-0.1 0.1-0.1 0.1-0.1 0.1 0.2 0.2 0.3 0.3 0.4 0.1 0.1 0.1 0.2 0.1 0.3 0 0.1-0.1 0.2-0.1 0.3 -0.1 0.1-0.2 0.2-0.3 0.3 -0.2 0.1-0.3 0.2-0.5 0.2 -0.2 0.1-0.4 0.1-0.6 0.1 -0.5 0-0.8-0.1-1.1-0.3C58.4 171.1 58.2 170.9 58.1 170.6z"/><path fill="#0065BD" d="M64.8 170.5c0.2 0 0.4 0 0.5-0.1 0.2-0.1 0.3-0.1 0.4-0.2 0.1-0.1 0.2-0.1 0.3-0.2 0.1-0.1 0.2-0.2 0.2-0.2 0.1 0.1 0.2 0.3 0.3 0.4 0.1 0.2 0.2 0.3 0.2 0.4 0 0.2-0.1 0.3-0.3 0.4 -0.2 0.1-0.4 0.2-0.6 0.3 -0.3 0.1-0.6 0.1-1 0.1s-0.7-0.1-1-0.2c-0.3-0.1-0.6-0.3-0.9-0.5s-0.5-0.5-0.6-0.9c-0.2-0.4-0.3-0.9-0.3-1.4 0-0.5 0.1-0.9 0.2-1.2 0.2-0.3 0.3-0.6 0.6-0.9 0.3-0.2 0.5-0.4 0.8-0.5 0.3-0.1 0.6-0.2 1-0.2 0.4 0 0.7 0.1 1.1 0.2 0.3 0.1 0.5 0.3 0.7 0.5 0.2 0.2 0.3 0.5 0.4 0.7 0.1 0.3 0.1 0.6 0.1 0.9 0 0.1 0 0.1 0 0.2 0 0.1 0 0.1 0 0.2 0 0.1 0 0.1 0 0.2 0 0.1 0 0.1 0 0.2h-3.3c0.1 0.4 0.2 0.7 0.4 1C64 170.3 64.3 170.5 64.8 170.5zM65.3 168.2c0-0.4-0.1-0.6-0.2-0.9 -0.2-0.2-0.4-0.3-0.7-0.3 -0.3 0-0.5 0.1-0.7 0.3 -0.2 0.2-0.3 0.5-0.3 0.9L65.3 168.2 65.3 168.2z"/><path fill="#0065BD" d="M69.2 166.6c0.1-0.1 0.1-0.2 0.2-0.2 0.1-0.1 0.2-0.2 0.3-0.2 0.1-0.1 0.2-0.1 0.4-0.2 0.1-0.1 0.3-0.1 0.4-0.1 0.1 0 0.2 0 0.3 0 0.1 0 0.2 0.1 0.3 0.1 0.1 0.1 0.2 0.1 0.2 0.2 0.1 0.1 0.1 0.2 0.1 0.3 0 0.2-0.1 0.4-0.1 0.5 -0.1 0.2-0.2 0.4-0.3 0.5 -0.1-0.1-0.3-0.2-0.4-0.3 -0.1-0.1-0.3-0.1-0.4-0.1 -0.2 0-0.4 0.1-0.6 0.2 -0.2 0.2-0.2 0.3-0.2 0.5v3.5h-1.5v-5.3c0.1 0 0.1 0 0.2 0 0.1 0 0.1 0 0.2 0s0.1 0 0.2 0c0.2 0 0.4 0.1 0.6 0.2C69.1 166.3 69.2 166.5 69.2 166.6z"/><path fill="#0065BD" d="M73.5 171.4H72v-5.3c0.1 0 0.1 0 0.1 0 0.1 0 0.1 0 0.2 0 0.1 0 0.1 0 0.2 0 0.2 0 0.4 0.1 0.6 0.1 0.2 0.1 0.3 0.2 0.3 0.4 0.1-0.2 0.3-0.3 0.6-0.5 0.3-0.2 0.6-0.2 1.1-0.2s0.7 0.1 1 0.2c0.2 0.2 0.4 0.3 0.4 0.5 0.2-0.2 0.4-0.4 0.6-0.5 0.3-0.2 0.6-0.2 1.1-0.2 0.3 0 0.5 0.1 0.7 0.1 0.2 0.1 0.4 0.2 0.5 0.3 0.1 0.1 0.2 0.2 0.3 0.4 0.1 0.2 0.1 0.3 0.2 0.4 0.1 0.2 0.1 0.4 0.1 0.5 0 0.2 0 0.4 0 0.6v3.1h-1.5v-3.1c0-0.2 0-0.3 0-0.4 0-0.2-0.1-0.3-0.1-0.3 -0.1-0.1-0.1-0.2-0.2-0.2 -0.1-0.1-0.2-0.1-0.4-0.1s-0.4 0.1-0.5 0.2 -0.3 0.2-0.4 0.3c0 0.2 0.1 0.4 0.1 0.6v3.1h-1.6v-3.1c0-0.2 0-0.3 0-0.5s-0.1-0.3-0.1-0.4c-0.1-0.1-0.1-0.2-0.2-0.2 -0.1-0.1-0.3-0.1-0.4-0.1 -0.3 0-0.5 0.1-0.6 0.2 -0.2 0.1-0.3 0.3-0.3 0.4L73.5 171.4z"/><path fill="#0065BD" d="M82.8 164.4c0 0.2-0.1 0.4-0.2 0.6 -0.2 0.2-0.4 0.2-0.6 0.2 -0.2 0-0.4-0.1-0.6-0.2 -0.2-0.2-0.2-0.3-0.2-0.6 0-0.2 0.1-0.4 0.2-0.6 0.2-0.2 0.4-0.2 0.6-0.2 0.2 0 0.4 0.1 0.6 0.2C82.7 163.9 82.8 164.1 82.8 164.4zM82.8 171.5c-0.1 0-0.1 0-0.2 0.1 -0.1 0-0.2 0-0.3 0 -0.2 0-0.3 0-0.4-0.1 -0.1 0-0.2-0.1-0.3-0.2 -0.1-0.1-0.2-0.2-0.2-0.3 -0.1-0.1-0.1-0.3-0.1-0.5v-4.5c0 0 0.1 0 0.2-0.1 0.1 0 0.2 0 0.3 0 0.1 0 0.2 0 0.4 0.1 0.1 0 0.2 0.1 0.3 0.1 0.1 0.1 0.2 0.2 0.2 0.3 0.1 0.1 0.1 0.3 0.1 0.4L82.8 171.5 82.8 171.5z"/><path fill="#0065BD" d="M85.7 171.4h-1.5v-5.3c0.1 0 0.1 0 0.1 0 0.1 0 0.1 0 0.2 0 0.1 0 0.1 0 0.2 0 0.2 0 0.4 0.1 0.6 0.1 0.2 0.1 0.3 0.2 0.3 0.4 0.1-0.2 0.3-0.3 0.6-0.5 0.3-0.2 0.6-0.2 1.1-0.2 0.5 0 0.9 0.1 1.2 0.3 0.3 0.2 0.4 0.5 0.5 0.8 0.1 0.2 0.1 0.4 0.1 0.5 0 0.2 0 0.4 0 0.6v3.1h-1.5v-3.1c0-0.2 0-0.3 0-0.5 0-0.2-0.1-0.3-0.1-0.4s-0.1-0.2-0.2-0.2 -0.3-0.1-0.5-0.1c-0.3 0-0.5 0.1-0.7 0.2 -0.2 0.1-0.3 0.3-0.3 0.4V171.4z"/><path fill="#0065BD" d="M94.8 170.1c0 0.6 0.1 1 0.3 1.3 -0.2 0.1-0.3 0.1-0.4 0.1 -0.1 0-0.2 0.1-0.4 0.1 -0.3 0-0.5-0.1-0.6-0.2 -0.2-0.1-0.2-0.3-0.3-0.4 -0.2 0.2-0.4 0.3-0.6 0.4 -0.3 0.1-0.6 0.2-1 0.2 -0.2 0-0.4-0.1-0.6-0.1 -0.2-0.1-0.4-0.2-0.5-0.3 -0.2-0.1-0.3-0.3-0.4-0.5 -0.1-0.2-0.2-0.5-0.2-0.7 0-0.4 0.1-0.7 0.3-0.9 0.2-0.2 0.4-0.4 0.7-0.6s0.6-0.2 0.9-0.3c0.3-0.1 0.6-0.1 0.9-0.1 0.1 0 0.2 0 0.3 0s0.2 0 0.3 0v-0.2c0-0.3-0.1-0.5-0.2-0.6 -0.2-0.1-0.4-0.2-0.7-0.2 -0.3 0-0.6 0.1-0.9 0.2 -0.3 0.1-0.5 0.2-0.7 0.4 -0.1-0.1-0.2-0.3-0.3-0.4 -0.1-0.2-0.1-0.3-0.1-0.3 0-0.1 0.1-0.2 0.2-0.3s0.3-0.2 0.5-0.3c0.2-0.1 0.4-0.2 0.7-0.2s0.5-0.1 0.8-0.1c0.4 0 0.7 0.1 1 0.1 0.3 0.1 0.5 0.2 0.7 0.4 0.2 0.2 0.3 0.4 0.4 0.6 0.1 0.3 0.1 0.5 0.1 0.9L94.8 170.1 94.8 170.1zM93.3 168.8c-0.1 0-0.1 0-0.2 0 -0.1 0-0.1 0-0.2 0 -0.2 0-0.4 0.1-0.5 0.1 -0.2 0.1-0.3 0.1-0.5 0.2 -0.2 0.1-0.3 0.2-0.3 0.3 -0.1 0.1-0.2 0.3-0.2 0.5 0 0.2 0.1 0.4 0.2 0.5 0.1 0.2 0.3 0.2 0.6 0.2 0.2 0 0.3 0 0.4-0.1 0.1-0.1 0.2-0.1 0.3-0.2 0.1-0.1 0.2-0.1 0.2-0.2 0.1-0.1 0.1-0.2 0.1-0.2V168.8z"/><path fill="#0065BD" d="M97.7 171.5c-0.1 0-0.1 0-0.2 0.1 -0.1 0-0.2 0-0.3 0 -0.1 0-0.3 0-0.4-0.1 -0.1 0-0.2-0.1-0.3-0.2 -0.1-0.1-0.2-0.2-0.2-0.3 -0.1-0.1-0.1-0.3-0.1-0.5v-7c0 0 0.1 0 0.2-0.1 0.1 0 0.2 0 0.3 0s0.2 0 0.4 0.1c0.1 0 0.2 0.1 0.3 0.1 0.1 0.1 0.2 0.2 0.2 0.3 0.1 0.1 0.1 0.3 0.1 0.4V171.5z"/><path fill="#0065BD" d="M103.2 164.4c0 0.2-0.1 0.4-0.2 0.6 -0.2 0.2-0.4 0.2-0.6 0.2 -0.2 0-0.4-0.1-0.6-0.2 -0.2-0.2-0.2-0.3-0.2-0.6 0-0.2 0.1-0.4 0.2-0.6 0.2-0.2 0.4-0.2 0.6-0.2s0.4 0.1 0.6 0.2C103.1 163.9 103.2 164.1 103.2 164.4zM103.2 171.5c-0.1 0-0.1 0-0.2 0.1 -0.1 0-0.2 0-0.3 0 -0.2 0-0.3 0-0.4-0.1 -0.1 0-0.2-0.1-0.3-0.2 -0.1-0.1-0.2-0.2-0.2-0.3 -0.1-0.1-0.1-0.3-0.1-0.5v-4.5c0 0 0.1 0 0.2-0.1 0.1 0 0.2 0 0.3 0 0.1 0 0.2 0 0.4 0.1 0.1 0 0.2 0.1 0.3 0.1 0.1 0.1 0.2 0.2 0.2 0.3 0.1 0.1 0.1 0.3 0.1 0.4L103.2 171.5 103.2 171.5z"/><path fill="#0065BD" d="M106.1 171.5c-0.1 0-0.1 0-0.2 0.1 -0.1 0-0.2 0-0.3 0 -0.1 0-0.3 0-0.4-0.1 -0.1 0-0.2-0.1-0.3-0.2 -0.1-0.1-0.2-0.2-0.2-0.3 -0.1-0.1-0.1-0.3-0.1-0.5v-7c0 0 0.1 0 0.2-0.1 0.1 0 0.2 0 0.3 0 0.1 0 0.2 0 0.4 0.1 0.1 0 0.2 0.1 0.3 0.1s0.2 0.2 0.2 0.3c0.1 0.1 0.1 0.3 0.1 0.4V171.5z"/><path fill="#0065BD" d="M109.1 171.5c-0.1 0-0.1 0-0.2 0.1 -0.1 0-0.2 0-0.3 0s-0.3 0-0.4-0.1c-0.1 0-0.2-0.1-0.3-0.2 -0.1-0.1-0.2-0.2-0.2-0.3 -0.1-0.1-0.1-0.3-0.1-0.5v-7c0 0 0.1 0 0.2-0.1 0.1 0 0.2 0 0.3 0s0.2 0 0.4 0.1c0.1 0 0.2 0.1 0.3 0.1 0.1 0.1 0.2 0.2 0.2 0.3 0.1 0.1 0.1 0.3 0.1 0.4V171.5z"/><path fill="#0065BD" d="M112 171.4h-1.5v-5.3c0.1 0 0.1 0 0.1 0 0.1 0 0.1 0 0.2 0 0.1 0 0.1 0 0.2 0 0.2 0 0.4 0.1 0.6 0.1 0.2 0.1 0.3 0.2 0.3 0.4 0.1-0.2 0.3-0.3 0.6-0.5 0.3-0.2 0.6-0.2 1.1-0.2 0.5 0 0.9 0.1 1.2 0.3 0.3 0.2 0.4 0.5 0.5 0.8 0.1 0.2 0.1 0.4 0.1 0.5 0 0.2 0 0.4 0 0.6v3.1h-1.5v-3.1c0-0.2 0-0.3 0-0.5 0-0.2-0.1-0.3-0.1-0.4 -0.1-0.1-0.1-0.2-0.2-0.2 -0.1-0.1-0.3-0.1-0.5-0.1 -0.3 0-0.5 0.1-0.7 0.2 -0.2 0.1-0.3 0.3-0.3 0.4V171.4z"/><path fill="#0065BD" d="M119.4 170.5c0.2 0 0.4 0 0.5-0.1 0.2-0.1 0.3-0.1 0.4-0.2 0.1-0.1 0.2-0.1 0.3-0.2 0.1-0.1 0.2-0.2 0.2-0.2 0.1 0.1 0.2 0.3 0.3 0.4 0.1 0.2 0.2 0.3 0.2 0.4 0 0.2-0.1 0.3-0.3 0.4 -0.2 0.1-0.4 0.2-0.6 0.3 -0.3 0.1-0.6 0.1-1 0.1 -0.4 0-0.7-0.1-1-0.2 -0.3-0.1-0.6-0.3-0.9-0.5s-0.5-0.5-0.6-0.9c-0.2-0.4-0.3-0.9-0.3-1.4 0-0.5 0.1-0.9 0.2-1.2 0.2-0.3 0.3-0.6 0.6-0.9 0.3-0.2 0.5-0.4 0.8-0.5 0.3-0.1 0.6-0.2 1-0.2 0.4 0 0.7 0.1 1.1 0.2 0.3 0.1 0.5 0.3 0.7 0.5 0.2 0.2 0.3 0.5 0.4 0.7 0.1 0.3 0.1 0.6 0.1 0.9 0 0.1 0 0.1 0 0.2 0 0.1 0 0.1 0 0.2 0 0.1 0 0.1 0 0.2 0 0.1 0 0.1 0 0.2h-3.3c0.1 0.4 0.2 0.7 0.4 1C118.6 170.3 119 170.5 119.4 170.5zM120 168.2c0-0.4-0.1-0.6-0.2-0.9 -0.2-0.2-0.4-0.3-0.7-0.3 -0.3 0-0.5 0.1-0.7 0.3 -0.2 0.2-0.3 0.5-0.3 0.9L120 168.2 120 168.2z"/><path fill="#0065BD" d="M126.1 166.8c0 0.1-0.1 0.3-0.1 0.4 -0.1 0.2-0.2 0.3-0.2 0.4 -0.1-0.1-0.2-0.1-0.3-0.2 -0.1-0.1-0.2-0.1-0.4-0.2 -0.2-0.1-0.3-0.1-0.4-0.2 -0.2-0.1-0.3-0.1-0.4-0.1 -0.1 0-0.2 0-0.3 0s-0.2 0.1-0.3 0.1c-0.1 0.1-0.1 0.1-0.2 0.2 -0.1 0.1-0.1 0.2-0.1 0.3 0 0.3 0.3 0.4 0.8 0.5 0.2 0.1 0.4 0.1 0.6 0.2 0.2 0.1 0.4 0.2 0.6 0.3 0.2 0.1 0.3 0.3 0.4 0.5 0.1 0.2 0.2 0.4 0.2 0.7 0 0.3-0.1 0.6-0.2 0.8 -0.1 0.2-0.3 0.4-0.5 0.6 -0.2 0.2-0.4 0.3-0.7 0.4 -0.3 0.1-0.6 0.1-0.9 0.1 -0.3 0-0.6 0-0.9-0.1 -0.2-0.1-0.4-0.1-0.6-0.2 -0.1-0.1-0.2-0.1-0.3-0.2 -0.1-0.1-0.2-0.2-0.2-0.4 0-0.1 0.1-0.3 0.1-0.4 0.1-0.2 0.2-0.3 0.3-0.4 0.1 0.1 0.2 0.1 0.3 0.2 0.1 0.1 0.2 0.1 0.3 0.2 0.1 0.1 0.3 0.1 0.4 0.2s0.3 0.1 0.5 0.1c0.1 0 0.2 0 0.3 0s0.2-0.1 0.3-0.1c0.1-0.1 0.2-0.1 0.2-0.2 0.1-0.1 0.1-0.2 0.1-0.3 0-0.2-0.1-0.4-0.3-0.5 -0.2-0.1-0.4-0.2-0.7-0.3 -0.2-0.1-0.4-0.1-0.6-0.2 -0.2-0.1-0.4-0.2-0.5-0.3 -0.2-0.1-0.3-0.3-0.4-0.5 -0.1-0.2-0.2-0.4-0.2-0.7s0.1-0.5 0.2-0.7c0.1-0.2 0.3-0.4 0.5-0.5s0.4-0.3 0.7-0.3c0.3-0.1 0.5-0.1 0.8-0.1 0.3 0 0.6 0 0.8 0.1 0.2 0.1 0.4 0.1 0.6 0.2C125.9 166.4 126.1 166.5 126.1 166.8z"/><path fill="#0065BD" d="M130.9 166.8c0 0.1-0.1 0.3-0.1 0.4 -0.1 0.2-0.2 0.3-0.2 0.4 -0.1-0.1-0.2-0.1-0.3-0.2 -0.1-0.1-0.2-0.1-0.4-0.2 -0.2-0.1-0.3-0.1-0.4-0.2 -0.2-0.1-0.3-0.1-0.4-0.1 -0.1 0-0.2 0-0.3 0s-0.2 0.1-0.3 0.1c-0.1 0.1-0.1 0.1-0.2 0.2 -0.1 0.1-0.1 0.2-0.1 0.3 0 0.3 0.3 0.4 0.8 0.5 0.2 0.1 0.4 0.1 0.6 0.2 0.2 0.1 0.4 0.2 0.6 0.3 0.2 0.1 0.3 0.3 0.4 0.5 0.1 0.2 0.2 0.4 0.2 0.7 0 0.3-0.1 0.6-0.2 0.8 -0.1 0.2-0.3 0.4-0.5 0.6s-0.4 0.3-0.7 0.4c-0.3 0.1-0.6 0.1-0.9 0.1 -0.3 0-0.6 0-0.9-0.1 -0.2-0.1-0.4-0.1-0.6-0.2 -0.1-0.1-0.2-0.1-0.3-0.2 -0.1-0.1-0.2-0.2-0.2-0.4 0-0.1 0.1-0.3 0.1-0.4 0.1-0.2 0.2-0.3 0.3-0.4 0.1 0.1 0.2 0.1 0.3 0.2 0.1 0.1 0.2 0.1 0.3 0.2 0.1 0.1 0.3 0.1 0.4 0.2 0.2 0.1 0.3 0.1 0.5 0.1 0.1 0 0.2 0 0.3 0 0.1 0 0.2-0.1 0.3-0.1 0.1-0.1 0.2-0.1 0.2-0.2 0.1-0.1 0.1-0.2 0.1-0.3 0-0.2-0.1-0.4-0.3-0.5 -0.2-0.1-0.4-0.2-0.7-0.3 -0.2-0.1-0.4-0.1-0.6-0.2 -0.2-0.1-0.4-0.2-0.5-0.3 -0.2-0.1-0.3-0.3-0.4-0.5 -0.1-0.2-0.2-0.4-0.2-0.7s0.1-0.5 0.2-0.7c0.1-0.2 0.3-0.4 0.5-0.5s0.4-0.3 0.7-0.3 0.5-0.1 0.8-0.1c0.3 0 0.6 0 0.8 0.1 0.2 0.1 0.4 0.1 0.6 0.2C130.7 166.4 130.9 166.5 130.9 166.8z"/><rect x="16.1" y="139" fill="#0065BD" width="114.8" height="1.2"/></svg>