<svg xmlns="http://www.w3.org/2000/svg" viewBox="0 0 300 300"><path fill="#FFCD00" d="M57.7 28.6c-3.1 3.1-5 6.6-5.6 10 1.6 1.3 3.4 2.8 5.6 5.3 2.2 2.5 3.1 5 3.1 8.5s-0.9 6.6-3.1 9.1c-2.2 2.5-5 3.8-9.1 3.8 -4.4 0-7.5-1.6-9.7-4.7s-3.1-6.9-3.1-11.3c0-3.4 0.3-6.6 1.3-10 0.9-3.4 1.9-6.3 3.1-9.4 1.3-2.8 2.8-5.3 4.7-7.5 1.9-2.2 4.1-4.1 6.3-5.3 2.5-1.6 4.7-2.2 7.2-2.2 3.8 0 6.3 2.2 7.8 6.9C63.7 23.3 60.9 25.5 57.7 28.6z"/><path fill="#FFCD00" d="M97.9 28.6c-3.1 3.1-5 6.6-5.6 10 1.6 1.3 3.4 2.8 5.6 5.3 2.2 2.2 3.1 5 3.1 8.5s-0.9 6.6-3.1 9.1c-2.2 2.5-5 3.8-9.1 3.8 -4.4 0-7.5-1.6-9.7-4.7S76 53.7 76 49.3c0-3.4 0.3-6.6 1.3-10 0.9-3.4 1.9-6.3 3.1-9.4 1.3-2.8 2.8-5.3 4.7-7.5 1.9-2.2 4.1-4.1 6.3-5.3 2.5-1.6 4.7-2.2 7.2-2.2 3.8 0 6.3 2.2 7.8 6.9C103.9 23.3 101.1 25.5 97.9 28.6z"/><path fill="none" stroke="#FF9E1B" stroke-width="6" d="M61.1 17.1c-1.6-4.7-4.1-6.9-7.8-6.9 -2.5 0-4.7 0.6-7.2 2.2 -2.2 1.3-4.4 3.1-6.3 5.3 -1.9 2.2-3.4 4.7-4.7 7.5s-2.5 6-3.1 9.4c-0.9 3.4-1.3 6.6-1.3 10 0 4.4 0.9 8.1 3.1 11.3 2.2 3.1 5.3 4.7 9.7 4.7 3.8 0 6.9-1.3 9.1-3.8 2.2-2.5 3.1-5.6 3.1-9.1s-0.9-6.3-3.1-8.5c-2.2-2.2-4.1-4.1-5.6-5.3 0.6-3.4 2.5-6.9 5.6-10C55.1 20.5 58.3 18.3 61.1 17.1z"/><path fill="none" stroke="#FF9E1B" stroke-width="6" d="M100.6 17.1c-1.6-4.7-4.1-6.9-7.8-6.9 -2.5 0-4.7 0.6-7.2 2.2 -2.2 1.3-4.4 3.1-6.3 5.3 -1.9 2.2-3.4 4.7-4.7 7.5 -1.3 2.8-2.5 6-3.1 9.4 -0.9 3.4-1.3 6.6-1.3 10 0 4.4 0.9 8.1 3.1 11.3 2.2 3.1 5.3 4.7 9.7 4.7 3.8 0 6.9-1.3 9.1-3.8 2.2-2.5 3.1-5.6 3.1-9.1s-0.9-6.3-3.1-8.5c-2.2-2.2-4.1-4.1-5.6-5.3 0.6-3.4 2.5-6.9 5.6-10C95 20.5 97.8 18.3 100.6 17.1z"/></svg>