<svg xmlns="http://www.w3.org/2000/svg" viewBox="0 0 750 440"><path fill="none" stroke="#FFCD00" stroke-width="1.5" stroke-miterlimit="10" d="M739.4 303.4c0.6 11.7-3 57.1-3 68.4 0.1 15.5 3.5 33.4-13.4 47.2 -15 12.1-69.2 12.1-73.9 12.1 -23.4 0-74 0-138.3-1.2 -0.6 0-79-4-163.8-1.6 -55.3 1.5-113 0-152.1 1.4 -105.8 3.6-161.1 3.1-171.5-18.6 -13.8-28.6-12.7-51.8-9.8-94.2 2.3-34 1.6-74.4-2.1-114.3 -4.9-51.3 6.4-96.5 3.5-139.8C10.5-1.8 92.8 17 196.9 11.8c108.3-5.4 172.3-0.2 251.6 0.6 32.9 0.3 65.7 0.1 98.6-0.4 176.7-2.6 187.2-4.3 190.2 91.1 0.1 2.9 5.7 30.4 0.4 83.1C732.2 241.5 737.4 263 739.4 303.4z"/></svg>