<svg xmlns="http://www.w3.org/2000/svg" version="1.1" x="0" y="0" viewBox="0 0 750 880" enable-background="new 0 0 750 880" xml:space="preserve"><path fill="#FFD733" d="M750 440H0V0h750V440zM61.3 425c85.7 9 172.1 11.3 255.1 8.2 102.5-3.8 200.6 5.6 307.4-0.8 -0.3 2.2 63.7-0.6 93.5-13.4 20.4-8.7 18.9-46 19.7-66.1 3.4-94 9.8-208.2-0.8-301.8 -0.7-6.2-1.5-12.6-4.7-18.3 -8.7-15.5-41.1-19.4-60.4-20.8 -54.7-4-109.6 3.1-164.4 3.3 -138.7 0.5-268.2-2.8-402.5-2.6 -23.8 0-50.5 0.8-66.9 16.1 -16.1 15-26.3 63.1-25.4 83.8 2.4 60.7-5.1 121.3-2.7 182C10.9 336.9 10.5 419.6 61.3 425z"/><path fill="#FFCD00" d="M750 880H0V440h750V880zM61.3 865c85.7 9 172.1 11.3 255.1 8.2 102.5-3.8 200.6 5.6 307.4-0.8 -0.3 2.2 63.7-0.6 93.5-13.4 20.4-8.7 18.9-46 19.7-66.1 3.4-94 9.8-208.2-0.8-301.8 -0.7-6.2-1.5-12.6-4.7-18.3 -8.7-15.5-41.1-19.4-60.4-20.8 -54.7-4-109.6 3.1-164.4 3.3 -138.7 0.5-268.2-2.8-402.5-2.6 -23.8 0-50.5 0.8-66.9 16.1 -16.1 15-26.3 63.1-25.4 83.8 2.4 60.7-5.1 121.3-2.7 182C10.9 776.9 10.5 859.6 61.3 865z"/></svg>
