<?xml version="1.0" encoding="utf-8"?>
<!-- Generator: Adobe Illustrator 18.0.0, SVG Export Plug-In . SVG Version: 6.00 Build 0)  -->
<!DOCTYPE svg PUBLIC "-//W3C//DTD SVG 1.1//EN" "http://www.w3.org/Graphics/SVG/1.1/DTD/svg11.dtd">
<svg version="1.1" id="Layer_1" xmlns="http://www.w3.org/2000/svg" xmlns:xlink="http://www.w3.org/1999/xlink" x="0px" y="0px"
	 viewBox="-864 0 750.5 161.9" enable-background="new -864 0 750.5 161.9" xml:space="preserve">
<path fill="#FFCD00" d="M-810.9,158.2c87.8,3.4,176.4,4.3,261.5,3.1c105.1-1.5,205.6,2.1,315.1-0.3c-0.3,0.8,64.3-0.2,94.8-5.1
	c20.9-3.3,19.4-17.6,20.2-25.2c3.5-35.9,11.1-79.5,0.2-115.3C-127.5,0-166.1,1-185.9,0.5c-56.1-1.5-112.3,1.2-168.5,1.3
	c-142.2,0.2-274.9-1.1-412.6-1c-24.4,0-62,0.3-78.8,6.1c-16.5,5.7-20,78.3-17.5,101.5C-861.5,124.6-863,156.2-810.9,158.2z"/>
</svg>
