<?xml version="1.0" encoding="utf-8"?>
<!-- Generator: Adobe Illustrator 18.0.0, SVG Export Plug-In . SVG Version: 6.00 Build 0)  -->
<!DOCTYPE svg PUBLIC "-//W3C//DTD SVG 1.1//EN" "http://www.w3.org/Graphics/SVG/1.1/DTD/svg11.dtd">
<svg version="1.1" id="Layer_1" xmlns="http://www.w3.org/2000/svg" xmlns:xlink="http://www.w3.org/1999/xlink" x="0px" y="0px"
	 viewBox="-1 0.1 749.5 439.7" enable-background="new -1 0.1 749.5 439.7" xml:space="preserve">
<path fill="#FFFFFF" d="M748.5,439.9H-1V0.1h749.5V439.9z M60.3,424.9c85.6,9,172,11.3,254.9,8.2c102.4-3.8,200.5,5.6,307.2-0.8
	c-0.3,2.2,63.7-0.6,93.4-13.4c20.4-8.7,18.9-46,19.7-66.1c3.4-93.9,9.8-208.1-0.8-301.6c-0.7-6.2-1.5-12.6-4.7-18.3
	c-8.7-15.5-41.1-19.4-60.4-20.8c-54.7-4-109.5,3.1-164.3,3.3c-138.6,0.5-268-2.8-402.2-2.6c-23.8,0-50.5,0.8-66.9,16.1
	C20.2,43.9,10,92,10.9,112.7c2.4,60.7-5.1,121.2-2.7,181.9C9.9,336.8,9.5,419.5,60.3,424.9z"/>
</svg>
