<svg xmlns="http://www.w3.org/2000/svg" viewBox="0 440 300 300"><path fill="none" stroke="#FF9E1B" stroke-width="6" stroke-linecap="round" stroke-miterlimit="10" d="M214.9 470c-1 10.6-0.9 21.3-0.8 32.1 0.1 9.6 0.2 19.3 0.3 28.8 0.1 9.1 0.2 18.1 0.3 27.2 0.1 6 0.1 12.2 0.2 18.3M183.8 477.6c7.9 6.4 11.1 16.4 17.1 24.4 3.1 4.2 7 7.7 9.7 12.2 3 5.1 4.2 10.9 6.6 16.3 2.4 5.6 6 10.6 9.3 15.8 5.3 8.4 9.7 17.3 14.1 26.3M175.7 569.4c12.5-16.4 28.7-30.4 40-47.7 2.5-3.8 4.8-7.9 7.2-11.8 7.5-12.3 16.3-23.8 26.4-34.3M161.6 502.5c6-0.2 11.8 1.7 17.1 4 5.3 2.4 10.4 5.1 15.9 7.2 1.5 0.6 3.1 1.1 4.6 1.8 1.5 0.7 3 1.7 4.5 2.5 3.2 1.6 6.8 2.6 10.4 3.7 6.1 2 11.9 4.6 17.6 7.3 8.3 3.8 16.6 7.6 24.9 11.5 4 1.9 8.1 3.7 11.9 5.8M164 537.3c15.1-4.2 30.2-8.5 45.4-12.7 1.9-0.5 3.7-1.1 5.6-1.5 9.3-2.6 18.7-5.3 27.8-8.6 2.8-1.1 5.7-2.2 8.5-3.5 3.2-1.5 6.3-3.2 9.6-4.6 1.7-0.7 3.5-1.3 5-2.2"/></svg>