<svg xmlns="http://www.w3.org/2000/svg" viewBox="0 0 300 300"><path fill="none" stroke="#ff9e1b" stroke-width="10" stroke-linecap="round" stroke-miterlimit="10" d="M123.9 108c-1-27.6-1.7-55.2-2.1-82.8 0-3 0-6.2 1.5-8.7 3.1-5.2 10.4-6.9 16.5-6.9 8.8-0.1 19.8-1 28.7 3.8 4.9 22.4 5.1 45.4 4.8 68.4 -0.1 9 0.3 18 1.7 26.9 18.1 1.4 33.7 0.7 50.3 2.5 7.3 0.7 31.8-2.1 42.8-0.7 6.9 0.8 15.6 0.6 19 6.7 1.2 2.2 1.4 4.9 1.6 7.5 0.4 8.5 0.7 17 0.9 25.4 0.1 3.8-0.3 10.3-3.5 12.2 -1.4 0.9-47.3 2-68.5 3.8 -6.9 0.6-13.8 0.2-20.7-0.1 -8.4-0.3-16.8 0-25.2 0.5 -1.1 23.4-2.3 46.3-3.4 69.7 -0.2 3.8 2.4 47.9-7.2 53.6 -13.6 3.1-28.1 2.2-41.2-2.3 -2-0.7-4.1-1.6-5.3-3.4 -1-1.6-1-3.5-1-5.4 0.1-10.8-0.9-26.3 1-45.7 2.8-29.1 3.2-50 2.1-62.6 -22.1-1.4-44.4-0.8-66.4 1.9 -7.5 0.9-15.1 2.1-22.7 1.1 -7.5-0.9-8.1-1.6-12.3-7.8 -6.5-9.6-3.3-49.1 2.4-51.8 2.6-1.2 5.5-1.5 8.4-1.6 13.4-0.6 26.8 0.6 40.1-0.5 10.2-0.8 20.3 1.1 30.3-0.7 9.2-1.6 15.1 0.1 26.8-0.8"/></svg>