<svg xmlns="http://www.w3.org/2000/svg" viewBox="0 0 190 70"><path fill="#0064AA" d="M174.1 8H1.1l0 42.1c0 8 6.7 14.5 14.8 14.5h173V22.5C188.9 14.6 182.2 8 174.1 8"/><path fill="#FFE600" d="M18.5 40c2 0 2.3 1.6 2.3 2.4h2.4c0-2.4-1.7-4.1-4.6-4.1 -4.2 0-5.4 3.4-5.4 7.1 0 5.5 2.6 7.4 5.7 7.4 1.7 0 3.2-0.6 3.8-0.8v-1.9c-0.4 0.2-1.6 1.1-3.4 1.1 -3 0-3.9-2.6-3.9-6.1C15.5 43.2 15.8 40 18.5 40z"/><path fill="#FFE600" d="M28.7 42.7c-2.8 0-3.7 1.4-3.7 2.9h2c0-0.8 0.5-1.5 1.6-1.5 0.7 0 1.4 0.3 1.5 1.2v1.7c-2.5 0-5.4 0.6-5.4 3.2 0 1.5 1 2.6 2.8 2.6 1.5 0 2.3-0.9 2.6-1.4h0v1.2H32V46C32 45.1 32 42.7 28.7 42.7zM30.1 48.9c0 1.1-1 2.6-2.2 2.6 -0.6 0-1.1-0.5-1.1-1.2 0-1.2 1.5-1.9 3-1.9h0.4V48.9z"/><path fill="#FFE600" d="M39.6 42.7c-2 0-2.8 1.5-3.1 2.3h0v-2.1h-1.9v9.7h1.9v-4.1c0-1.9 1.1-4 2.6-4 1.4 0 1.4 1 1.4 2.8v5.3h1.9v-6.7C42.3 44.7 41.9 42.7 39.6 42.7z"/><path fill="#FFE600" d="M48.8 44.1c1.4 0 1.5 1.2 1.5 2h2.1c0-1.6-0.7-3.4-3.5-3.4 -3 0-4.2 2-4.2 4.7 0 2.4 1.1 5.4 4.9 5.4 1.2 0 2-0.1 2.7-0.4v-1.3c-0.5 0.2-1.1 0.2-1.6 0.2 -3.1 0-3.9-2.4-3.9-4.3C46.7 45.3 47.5 44.1 48.8 44.1z"/><path fill="#FFE600" d="M58.4 42.7c-1.3 0-4 0.4-4 4.6 0 3.8 1.9 5.5 4.9 5.5 1.1 0 1.7-0.1 2.5-0.3v-1.4c-0.4 0.1-1 0.3-1.9 0.3 -2.7 0-3.6-2.5-3.6-4.4H62v-0.5C62 44.3 60.8 42.7 58.4 42.7zM56.3 45.9c0-0.4 0.4-1.7 2-1.7 1.4 0 1.8 1.1 1.8 1.7H56.3z"/><path fill="#FFE600" d="M66.6 44.9L66.6 44.9l0-2h-1.9v9.7h1.9v-4.1c0-3 1.4-3.8 3.1-3.8v-2C67.8 42.7 66.9 44.1 66.6 44.9z"/><path fill="#FFE600" d="M82.6 40c2 0 2.3 1.6 2.3 2.4h2.4c0-2.4-1.7-4.1-4.6-4.1 -4.2 0-5.4 3.4-5.4 7.1 0 5.5 2.6 7.4 5.7 7.4 1.7 0 3.2-0.6 3.8-0.8v-1.9c-0.4 0.2-1.6 1.1-3.4 1.1 -3 0-3.9-2.6-3.9-6.1C79.5 43.2 79.9 40 82.6 40z"/><path fill="#FFE600" d="M92.8 42.7c-2.8 0-3.7 1.4-3.7 2.9h2c0-0.8 0.5-1.5 1.6-1.5 0.7 0 1.4 0.3 1.5 1.2v1.7c-2.5 0-5.4 0.6-5.4 3.2 0 1.5 1 2.6 2.8 2.6 1.5 0 2.3-0.9 2.6-1.4h0v1.2h1.9V46C96.1 45.1 96.1 42.7 92.8 42.7zM94.2 48.9c0 1.1-1 2.6-2.2 2.6 -0.6 0-1.1-0.5-1.1-1.2 0-1.2 1.5-1.9 3-1.9h0.4V48.9z"/><path fill="#FFE600" d="M100.6 44.9L100.6 44.9l0-2h-1.9v9.7h1.9v-4.1c0-3 1.4-3.8 3.1-3.8v-2C101.7 42.7 100.8 44.1 100.6 44.9z"/><path fill="#FFE600" d="M112.9 46.6c0-2.3-1.2-3.9-3.6-3.9 -1.3 0-4 0.4-4 4.6 0 3.8 1.9 5.5 4.9 5.5 1.1 0 1.7-0.1 2.5-0.3v-1.4c-0.4 0.1-1 0.3-1.9 0.3 -2.7 0-3.6-2.5-3.6-4.4h5.7V46.6zM107.3 45.9c0-0.4 0.4-1.7 2-1.7 1.4 0 1.8 1.1 1.8 1.7H107.3z"/><polygon fill="#FFFFFF" points="22.9,20.3 23,20.3 27,31.7 28.9,31.7 32.9,20.3 32.9,20.3 32.9,31.7 34.8,31.7 34.8,18 31.9,18     28,29.2 27.9,29.2 24,18 21.1,18 21.1,31.7 22.9,31.7   "/><path fill="#FFFFFF" d="M37.6 29.3c0 1.5 0.9 2.5 2.7 2.5 1.5 0 2.2-0.9 2.5-1.4h0v1.2h1.8v-6.5c0-0.9 0-3.2-3.2-3.2 -2.7 0-3.6 1.3-3.6 2.8h1.9c0-0.8 0.4-1.4 1.5-1.4 0.7 0 1.3 0.3 1.5 1.2v1.6C40.4 26.2 37.6 26.8 37.6 29.3zM42.8 28c0 1.1-0.9 2.5-2.2 2.5 -0.5 0-1.1-0.5-1.1-1.2 0-1.2 1.4-1.8 2.9-1.8h0.4V28z"/><path fill="#FFFFFF" d="M48.9 27.7c0-2.9 1.4-3.7 3-3.7V22c-1.9 0-2.7 1.4-3 2.1h0v-1.9h-1.8v9.4h1.8V27.7z"/><rect x="53.9" y="22.2" fill="#FFFFFF" width="1.8" height="9.4"/><rect x="53.8" y="18" fill="#FFFFFF" width="2.2" height="2"/><path fill="#FFFFFF" d="M63 31.9c1 0 1.6-0.1 2.4-0.3v-1.4c-0.4 0.1-1 0.3-1.8 0.3 -2.6 0-3.5-2.5-3.5-4.2h5.6v-0.5c0-2.2-1.1-3.8-3.5-3.8 -1.2 0-3.9 0.4-3.9 4.5C58.2 30.2 60.1 31.9 63 31.9zM62 23.4c1.4 0 1.8 1.1 1.8 1.7h-3.7C60.1 24.6 60.5 23.4 62 23.4z"/><path fill="#FFFFFF" d="M78.7 31.9c1.6 0 3.1-0.6 3.7-0.8v-1.8c-0.4 0.2-1.5 1.1-3.3 1.1 -2.9 0-3.7-2.5-3.7-5.9 0-1.9 0.4-5 3-5 2 0 2.2 1.5 2.2 2.4h2.3c0-2.3-1.6-4-4.5-4 -4.1 0-5.3 3.3-5.3 6.9C73.1 30 75.6 31.9 78.7 31.9z"/><path fill="#FFFFFF" d="M87 31.9c2 0 2.8-1.5 3.1-2.2h0v2h1.8v-9.4h-1.8v4c0 1.9-1.1 3.9-2.5 3.9 -1.3 0-1.3-0.9-1.3-2.7v-5.2h-1.8v6.5C84.4 29.9 84.7 31.9 87 31.9z"/><path fill="#FFFFFF" d="M96.3 27.7c0-2.9 1.4-3.7 3-3.7V22c-1.9 0-2.7 1.4-3 2.1h0v-1.9h-1.8v9.4h1.8V27.7z"/><rect x="101.4" y="22.2" fill="#FFFFFF" width="1.8" height="9.4"/><rect x="101.2" y="18" fill="#FFFFFF" width="2.2" height="2"/><path fill="#FFFFFF" d="M110.4 31.9c1.1 0 1.6-0.1 2.4-0.3v-1.4c-0.4 0.1-1 0.3-1.8 0.3 -2.6 0-3.5-2.5-3.5-4.2h5.6v-0.5c0-2.2-1.1-3.8-3.5-3.8 -1.2 0-3.9 0.4-3.9 4.5C105.6 30.2 107.5 31.9 110.4 31.9zM109.5 23.4c1.4 0 1.8 1.1 1.8 1.7h-3.7C107.5 24.6 108 23.4 109.5 23.4z"/><path fill="#FFFFFF" d="M174.1 7h-10.6c-1.6-2.6-3.5-5-3.8-5.4l-0.8-1c-0.3-0.3-0.7-0.6-1.2-0.6 -0.5 0-0.9 0.1-1.2 0.5 0 0-0.1 0.1-0.1 0.2 -1.3 0.4-5.6 1.9-8 4.2 -0.7 0.7-1.3 1.4-1.8 2.1H0l0 43.2c0 8.6 7.1 15.6 15.9 15.6h123.4c1 1.2 2 2.1 2.5 2.6l0.2 0.2c0.4 0.4 0.6 0.7 0.6 0.8 0.3 0.6 1 0.9 1.7 0.7 0.5-0.1 5-1.3 7.2-3.8l0.3-0.4H190V22.5C190 14 182.9 7 174.1 7zM143.1 17.3c-1.2-0.8-2.5-1.7-3.9-2.1 -2.9-1-4.9-1.5-8.8-1.7 -1.4-0.1-3.5 0.2-4.3 0.4l-1.2 0.5c0 0-0.4 0.3-1 0.4 -0.5 0.1-1 0.1-1.3 0.4 -0.3 0.3-0.5 0.7-0.5 1.1 0 0.2 0.2 0.8 0.2 1 0 0.2 0 0.9 0 0.9 0 0.4-0.1 0.8-0.1 1.3 0 0.8 0.1 1.7 0.4 2.8 0 0 0.2 0.8 0.2 0.8l0.6 1.7c0 0 0.1 0.3 0.1 0.3 0.7 1.9 1.8 4.7 4 5.6 0.5 1.9 1.7 3.3 2.9 4.3 -0.4 0.1-1 0.3-1 0.3 -2.7 0.9-3.9 3.7-4.3 4.7 -0.4 0.4-1.6 1.5-1.6 1.5 -1.6 1.6-2.4 4.5-2.4 7 0 0.9 0.1 1.8 0.3 2.6 0.2 0.7 0.2 1.2 0.2 1.6 0 0.4-0.1 0.6-0.1 0.6 0 0 0 0 0-0.1 -0.2 0.2-0.2 0.5-0.2 0.8 0 0.5 0.2 1 0.7 1.2 0.4 0.3 1.1 0.3 1.6 0.6 0.6 0.3 1.4 0.8 2.5 1.2 1.4 0.5 3.1 0.8 5.2 1.1 1.9 0.2 3.7-0.3 5.1-0.8 0.1 1.1 0.2 2.4 0.6 3.8 0.2 0.8 0.5 1.6 0.9 2.3h-122c-7.6 0-13.7-6-13.7-13.4l0-41h143.1C143.7 12.1 143.2 15.1 143.1 17.3zM121.6 53.2C121.6 53.3 121.6 53.3 121.6 53.2 121.6 53.3 121.6 53.3 121.6 53.2 121.6 53.3 121.6 53.2 121.6 53.2zM187.8 63.6h-34.2c0.5-0.6 1.1-1.4 2.5-2.7 1.4-1.4 2.1-2.8 2.4-4.1 1.4 1.2 3.1 2.5 4.6 3.3 2.9 1.6 5.3 1.6 9.3 1.6l1.6 0c4 0 6-1.5 6.6-1.6 0.7-0.1 1.4-0.2 1.8-0.6 0.3-0.3 0.4-0.6 0.4-1 0-0.2 0-0.4-0.1-0.5 0 0 0.1-2.2 0.1-2.7 0-2.6-2.1-7.7-4.1-11.3 -1.4-2.5-4.3-4.9-6.4-6.3 1.2-0.6 2.6-1.5 3.6-2.5 2.1-2.1 4-5.4 5-8.6 0.8-2.6 1.9-5 2.1-5.2 0.1-0.1 0.4-0.7 0.4-0.7 0.1-0.2 0.2-0.5 0.2-0.8 0-0.2 0-0.4-0.1-0.6 -0.2-0.4-0.6-0.8-1.1-0.9 0 0-0.6-0.1-0.9-0.2 -0.9-0.5-2.7-1-5.3-1.6 -4.3-0.9-7.9-0.2-10.1 0.5 -0.1-1.6-0.4-3.7-0.9-5.7 -0.2-0.7-0.4-1.4-0.8-2.2h9.4c7.6 0 13.7 6 13.7 13.4V63.6z"/><path fill="#FFE600" d="M137.9 54.9c0 0-3.3 2.3-6.5 1.9 -2-0.3-3.6-0.5-4.9-1 -0.8-0.3-1.4-0.7-1.9-1.2 -0.9-0.9-1.8-0.5-1.8-0.5s0.6-0.8 0-3.3c-0.6-2.4-0.1-6.4 1.7-8.2l1.8-1.8c0 0 0.9-3.3 3.5-4.2 2.6-0.9 3.9-1.3 3.9-1.3s-4.6-2-5-6c-2 0-3.2-3.4-3.9-5.2 -0.7-1.8-0.4-1.1-0.8-2.5 -0.7-2.1-0.2-3.3-0.2-4.5 0-0.4-0.2-1-0.2-1s0.3 0.2 0.8 0c0.7-0.2 1.7-0.9 2-0.9 0.8-0.2 2.7-0.5 3.9-0.4 3.7 0.2 5.6 0.7 8.4 1.6 2.9 1 6 3.9 6 3.9s-1.3-8.7 4.8-14.6c2.6-2.5 7.7-4 7.7-4l0.4-0.5c0 0 0.5 0.7 1 1.2 0.5 0.4 4.6 5.7 5.4 9 0.8 3.3 1 7.5 1 7.5s4.7-2.5 11.1-1.2c4.5 1 5.1 1.6 5.1 1.6l1 0.2 -0.5 0.8c0 0-1.3 2.6-2.2 5.6 -0.9 2.9-2.6 6-4.6 8 -2 2-5.6 3.3-5.6 3.3s6 3.6 8.1 7.3c2.1 3.7 3.9 8.4 3.9 10.6 0 2.2-0.3 1.9-0.3 2.2 0 0.3 0.3 1 0.3 1s-1.1 0-1.7 0.3c-0.7 0.4-1.6 1.4-5.6 1.4 -4.9 0-7.3 0.2-10.2-1.4 -2.9-1.6-6.8-5.4-6.8-5.4s1.2 3.3-2 6.4c-3.2 3.1-2.9 3.5-4.5 5.3 -2 2.2-6.5 3.3-6.5 3.3s-0.3-0.5-0.9-1.1c-0.5-0.5-3.8-3.1-4.7-6.6C137.6 57.4 137.9 54.9 137.9 54.9"/><path fill="#FFFFFF" d="M161.1 36.9c-0.2 0-0.4-0.1-0.5-0.1l0.3-1.5 -1.7-0.2c-0.1 0-0.3-0.1-0.5-0.2 -0.2-0.1-0.3-0.2-0.3-0.3 -0.1-0.3-0.2-0.7-0.2-1 0.4-0.2 0.8-0.5 1.1-1.1 0.2-0.4 0.2-0.7 0.2-0.9 0-0.9-0.3-1.4-0.6-2 -0.2-0.5-0.5-1.1-0.4-1.1 -0.1-0.4-0.2-0.9-0.7-1.3 0 0-0.1-0.1-0.1-0.1 0.2-0.5 0.6-1.1 1-1.8 1.5-2.3 4.3-4.7 4.3-4.7s-4.3 2.3-5.8 4.6c-0.4 0.5-0.7 1-0.9 1.5 -0.5 0-0.8 0.1-1.1 0.2 -0.3 0.1-0.5 0.1-0.8 0.2 0-0.1-0.1-0.2-0.2-0.2 -0.4-0.6-0.8-1.4-0.9-1.8 -0.1-0.6-0.1-0.7-0.1-1.3 0-0.6-0.6-1.4-1.1-1.8 -0.4-0.3-0.8-0.5-1.2-0.5 -0.4-0.8-0.9-0.9-1.3-1.1 -0.4-0.1-0.9-0.2-1.4-0.2 -0.6 0-1.2 0.1-1.9 0.3 -0.5 0.2-1 0.5-1.4 0.8 -0.1-0.1-0.1-0.1-0.2-0.1 -0.5-0.3-1.1-0.4-1.6-0.4 -2 0.1-3.7 1.3-5 2.4 -0.4 0.4-0.7 0.6-0.9 0.9 -0.2 0.3-0.5 0.7-0.5 1.3 0 0.1 0 0.3 0 0.3 0 0.1 0 0.2 0 0.3 0 0.2 0 0.5 0.1 0.6 0 0 0 0 0 0 -0.4 0.2-1.2 0.3-2 0.8 -0.9 0.5-1.8 1.7-1.8 3.1 0 0.1 0 0.2 0 0.4 0.1 1.1 0.2 1.9 0.7 2.7 -0.4 0.4-0.9 1-0.8 1.8 0 0.2 0 0.5 0.1 0.7 0.2 0.7 0.7 1.3 1.2 1.6 0.6 0.4 1.2 0.5 1.7 0.5 -0.1 0.2-0.3 0.6-0.4 1 -0.5 1.1-0.8 1.6-1 2 -0.2 0.4-0.4 1-0.5 1.6 0 0.1 0 0.2 0 0.3 0.1 1.4 0.9 2.1 1.5 2.7 0.7 0.6 1.4 1.1 2.1 1.4 0.3 0.1 0.6 0.2 0.9 0.2 0.3 0 0.6-0.1 0.8-0.2 0 0 0 0 0 0 -0.7 2.4-1 5.1-1 5.1s0.7-2.2 2.4-4c0.4 0.2 0.8 0.5 1.3 0.8 1 0.5 1.8 1.1 3 1.1 1.8 0 3-1.4 3.1-2.7 0.2-0.1 0.3-0.2 0.5-0.3 0.2-0.2 0.5-0.3 0.7-0.5 0 0 0.1 0 0.1-0.1 0.1 0 0.4 0.1 0.7 0.1 0.4 0.1 0.7 0.2 1.2 0.2 0.7 0 1.4-0.4 1.6-0.6 0.7-0.7 0.9-1.1 1.3-1.5 0.2 0.2 0.4 0.4 0.7 0.7 1.4 1.6 2.2 5.3 2.2 5.3 0-0.1 0.2-3.4-0.7-5.6 -0.2-0.4-0.4-0.8-0.6-1.1 0.1 0 0.1 0 0.2 0 0.6 0 1.9-0.4 2.5-1.5 0.8-1.2 1.4-2.6 1.8-4.2 0.1 0 0.1 0 0.2 0 2.8 0.5 6.3-1.1 6.3-1.1S163.8 37.5 161.1 36.9z"/><path fill="#FAA628" d="M144.9 24.1c0 0-0.1 0-0.1-0.1 -0.2-0.2 0.3-0.9-0.8-1.6 -1.1-0.7-3.3 0.6-4.7 1.9 -1.4 1.2-0.8 1-0.9 1.5 -0.1 0.4 0.2 0.9 0.2 0.9s0.1 0.9-1.1 1.4c-1.2 0.4-3 0.5-2.8 2.8 0.1 2.2 0.7 2.3 1.6 2.9 -0.7 0.9-2 0.9-1.7 2.1 0.3 1.2 2.4 0.9 2.7 1.2 0.8 0.7 0.2 1.6-0.3 2.8 -1.1 2.4-1.3 2.2-1.4 3.3 -0.2 1 1.8 2.5 2.7 2.8 0.9 0.3 0.8-0.7 1.3-1 0.6-0.3 0.3-0.5 0.7-0.7 -0.5 1.4 0.2 2.1 0.7 2.5 0.5 0.3 3.2 2.1 4.2 2.1 1 0 1.6-0.8 1.6-1.4 0-0.6 0.5-1.3 0.6-1.1 0.2 0.1 0.5-0.1 1.2-0.6 0.7-0.5 1-0.4 2-0.2 1 0.2 1.1 0.2 1.5-0.1 0.5-0.3 0.8-1.3 2.1-2.1 1.3-0.8 2.2 0.1 3.1-1.3 0.9-1.3 1.6-3.2 2-5.2 0 0-1.7-0.2-2.1-1.6 -0.4-1.4-0.4-3-0.4-2.9 0 0.1 1.1 0.3 1.4-0.3 0.3-0.6-0.8-2.3-0.9-3.1 -0.2-0.8-0.6-0.7-1.5-0.5 -0.9 0.2-1.7 0.5-1.7 0.5s-1.7-2.1-2-3.5c-0.3-1.4 0.1-1.5-0.7-2.2 -0.8-0.6-2.4 0.3-2.4 0.3s0.8-1.2 0.7-1.4c-0.1-0.3-1.3-0.6-2.6-0.1C145.6 22.4 144.9 24.1 144.9 24.1"/><path fill="#FFE600" d="M150.4 36.9c-1.4 1.3 1.2 1.6 1.2 1.6l4.6 0 0.4-0.8 -3.2-0.9C153.4 36.9 151 36.4 150.4 36.9z"/><path fill="#FFE600" d="M154.4 34.7c0 0-3.6-3-4.7-2.5 -2.5 1.2 2.3 3.5 2.3 3.5l4.6 1.8 0.5-0.5L154.4 34.7z"/></svg>