<svg xmlns="http://www.w3.org/2000/svg" viewBox="0 0 192.6 96.6"><path d="M97.4,49.3c3.9-6.2,2-7.1,1.8-7c-3.8,2.2-6.7,8.6-6.5,10.8C93,56.1,95.3,52.6,97.4,49.3 M112.3,43.6
	c-0.7,1.2-1.2,2.7-1.4,4.1c-0.1,0.7-0.2,3.9-0.2,4.3c0,0,0.1,1.5,0.3,2.1c0.1,0.3,0.7,1.6-1.2,1.8c-1.1,0.1-1.1-2.6-1.1-3.1
	c0-1,0.1-4.3,0.2-4.8c0.1-0.5-0.1,0-0.3,0.4c-0.5,0.8-1,1.8-1.7,2.9c-0.9,1.4-2.8,4.6-5.4,4.4c-1-0.1-2-0.2-2.5-2.9
	c-0.2-1-0.1-2.4-0.1-3.2c0-0.2,0-0.4-0.1-0.3c-0.9,2.1-3.9,8.5-7.3,7.1c-1.6-0.7-2.3-2.7-0.6-6.6c1.7-3.8,5.9-8.6,7.6-8.9
	c1.5-0.3,1.7,0.5,1.7,0.5c0.1-0.3,1.1-0.2,1.3,0.2c0.3,0.5,0.5,0.6,0.3,2c-0.1,0.8-0.9,5.9-0.7,7.7c0.1,0.8,0.2,2.8,1,2.9
	c1.5,0.2,3.2-2.9,3.4-3.3c0.4-0.6,3.5-5.9,3.9-6.7c0.4-0.8,0.7-1.4,1-2c0.3-0.5,1.1-0.6,1.8-0.1C112.9,42.6,112.5,43.2,112.3,43.6z
	 M45.6,46.2c-1.9,0.2-5.2,4.7-5.9,6.3c-0.7,1.6-1,3.2-0.1,3.8c1.7,1.4,3.6-0.9,4.1-1.5c0.3-0.3,2.6-2.8,3.2-5.4
	C47.2,47.8,47.4,46,45.6,46.2z M46.5,66.1c-0.1,0.2-0.3,0.5-0.4,0.7c-1.4,2.3-3.2,4.3-5.4,5.7c-3,2-5.8,2.7-9,2.7
	c-1.8,0-3.6-0.3-5.1-1.3c-1.2-0.8-1.4-2-1-2.8c0.5-1.1,2.1-1,2.8-0.4c1.7,1.6,2.8,2.2,5,2.1c1.7-0.1,3.7-0.6,5.2-1.5
	c9.2-5.4,9.1-15,9.5-20.8c0-0.4-0.2-0.1-0.2,0.1c-0.3,1-0.9,2.2-1.6,3.6c-0.7,1.2-1.9,2.9-3.9,4.2c-1.2,0.8-3.1,1.1-4.4,0.3
	c-0.5-0.3-3.3-2-0.9-6.9c1.5-3.1,4.7-5.2,5.4-5.7c1.7-1.1,3-1.6,4.3-1.5c0.7,0,0.8,0.3,1.3,0.3c0.3-0.3,0.4-0.6,0.9-0.7
	c0.6-0.1,1.4,0.4,1.6,1.4c0.3,1-0.5,2.6-0.6,3.3C49.9,48.9,50.6,58.8,46.5,66.1z M57,43.8c-1.1,0-1,0.8-1.3,1.5
	c-0.2,0.7-2.2,7.1-2.4,8.2c-0.2,1.1-0.4,2.2-0.1,3.7c0.4,1.6,2.2,1.1,2.4,0.9c0.9-1.3,0.1-1.6,0.1-2.5c0-0.9,0.2-1.9,0.4-3.1
	c0.1-0.4,0.2-2.5,0.3-2.7c0.1-0.3,0.7-2.5,1.6-3.9C58.4,45.3,58.8,43.8,57,43.8z M60.1,36.3c-0.2-0.3-1-1.3-2.1-0.5
	c-1.6,1.2,0.2,2.7,0.6,3.5c0.3,0.8,1.9,1.4,1.7-0.1C60.2,39,60.5,37.3,60.1,36.3z M78,43.8c-0.5,0.1-1.6,0.3-2.2,0.4
	c-1,0.2-1.6,0.8-1.5,1.4c0,0.6,0.3,0.9,1.2,0.8c0.8-0.2,1.5-0.8,2.2-0.8c0,0-1.5,6.2-1.6,7c-0.1,0.8-0.5,3.1,0.4,4.4
	c2,2.9,5.9-0.4,6.3-0.8c0.3-0.3,2.8-2.5,3.6-4.2c0.4-0.9-0.3-1.1-0.8-1.3c-0.5-0.2-1.5,0.1-1.7,0.8c-0.3,1.4-3.8,5.3-5.5,4.5
	C76.4,55.2,80,45,80,45c0.4-0.2,2.6-0.8,4.7-1.3c2.4-0.6,9.8-2.1,8.1-4.3c-0.8-1.1-2.9,0.6-3.6,0.9c-2.6,1.2-8.8,3-8.8,3
	s0.8-3.7,1.1-4.4c0.3-0.8,1.4-1.4,1.6-2.8c0.2-1.7-1.9-2.5-2.8-0.6C80,35.9,79.7,37,79.7,37c-0.3,0.3-2.5,1.2-4.8,2.2
	c-0.7,0.3-4.7,1.8-4.7,1.8c0,0,1.2-3.9,2.6-7c0.9-2.1,2.2-5.1,4.6-5.7c2.2-0.6,1.1,1.7,2.1,2.3c1.2,0.7,2-0.2,2.2-1.1
	c0.2-0.7,0.1-4.4-3.7-4c-3.6,0.4-6.4,5.8-10,16c0,0-2.8,1.9-5.2,2.3c-1.1,0.2-1.7,0.3-1.8,0.7c-0.4,1.1,0.3,1.8,0.4,1.9
	c0.7,0.8,5.8-2.6,5.8-2.6C67.3,44,63.1,60.1,63,60.3c-0.2,1.3-1.6,4.9-1.5,6.5c0,0.8,0.4,2.6,1.6,2.5c2.5,0.2,2-3.3,1.9-4
	C64.6,64,66.3,55.2,68,48.7c0.3-1.3,1-3.5,1.1-4c0.2-0.9,0.7-1.5,1.3-1.7c0,0,9-4.2,9.1-4.2C79.5,38.7,78,43.8,78,43.8z M139.6,51.9
	c1.7,1.6,3.5,0.6,4.4-0.1c2.7-2.2,8.4-12.2,8.4-12.2c0,0.3-2.3,11.8,0.8,13.1c2,0.8,6.8-3.2,7.3-3.6c3.1-2.2,1.2-3,0.6-3
	c-1.6,0-1.3,1.2-1.8,1.7c-0.7,0.9-3.7,3.9-5.1,3.1c-0.8-0.4-0.6-3-0.5-3.6c0.5-6.1,0.6-7.2,0.9-8.6c0.2-0.8,1.1-0.8,1.7-0.9
	c7.8-1.4,9.2-0.9,10.2-1.3c0.8-0.4,0.9-2-0.2-2.4c-0.5-0.2-1.1,0.2-2.3,0.7c-1.1,0.4-6.9,1.7-7.8,1.8c-0.8,0.1-1,0-1.1-0.2
	c-0.2-0.2,0.2-3.1,1.3-5.5c0.5-1,0.5-2.6-1.1-2.7c-0.7,0-1.2,0.1-1.5,0.7c-0.2,0.6-0.7,5.6-0.8,6c-0.1,0.3-0.7,0.6-0.8,1.2
	c-0.1,0.6,0,0.9-0.4,1.1c-0.4,0.1-1.5,0.2-1.9,0.3c-0.5,0.1-0.7,1-0.8,1.5c0,0.5,0.8,0.2,1.2,0.2c0.5-0.1,1.6-0.6,0.8,0.3
	c-0.3,0.4-5.7,8.9-7.9,10.6c-2.4,2-2.3-1.9-2.2-2.6c0.4-4,2.1-6.7,2.4-7.4c0.2-0.6,0.4-2.6-1.7-2.1c-0.7,0.1-1,0.8-1,1c0,0,0,0,0,0
	C140.5,40.9,136.9,49.4,139.6,51.9z M142.8,32.2c0.6,1.2,1.7,0.8,1.9,0.5c0.2-0.3,0.3-0.4,0.9-0.6c1-0.4-0.7-2.1-2.3-1.6
	c-0.3,0.1-0.4,0.5-0.4,0.5C142.9,31.3,142.5,31.8,142.8,32.2z M123.1,42c0,0,1-0.9,1.5-0.9c0.2,0-0.2,0.6,0.6,0.9
	c0.4,0.2-0.4,2.7-2,5.2c-3.6,5.6-5.4,5.4-5.5,3.7C117.3,47.4,122.1,42.8,123.1,42z M125,46.7c0,0,0,1.2,0.1,2.2
	c0.1,0.9,0.4,2.9,0.7,3.5c0.5,1,1.6,1,2.4,0.5c1.1-0.6,0.6-1.8,0.2-2.2c-0.4-0.3-1.2-0.8-1.5-2.2c-0.2-0.9,0-4.8,0.2-6.1
	c0.2-0.9,0.7-2.8,1.2-3.7c0.4-0.9,3-5.7,3.1-7.4c0-0.7-0.7-1.3-1.9-1.2c-1.2,0.1-1.5,1.1-1.5,1.7c0,0.6-1.3,5.1-1.3,5.3
	c-0.1,0.3-0.3,2.1-0.9,2.1c-1.5,0-2.7,0.4-3.8,1.3c-0.6,0.5-2.6,2-3.8,3.7c-0.5,0.8-3,3.9-2.7,7.6c0.2,3.4,2.6,2.8,3.3,2.7
	c3.1-0.5,5.3-5.6,5.6-6.2C124.7,47.2,124.5,47.5,125,46.7z M112.8,34.3c-0.2,0.3-0.2,1.2,0.3,1.6c0.4,0.3,0.4,0.4,0.4,0.7
	c0,0.5,0.3,0.5,0.9,0.5c0.6,0,1.1-0.4,1.2-1.3c0.1-0.9-0.8-1.6-1.5-1.8C113.4,33.9,113.1,33.9,112.8,34.3z"/>
<rect x="0" y="0" fill="none" width="192.6" height="96.6"/></svg>
