<?xml version="1.0" encoding="utf-8"?>
<!-- Generator: Adobe Illustrator 18.1.0, SVG Export Plug-In . SVG Version: 6.00 Build 0)  -->
<!DOCTYPE svg PUBLIC "-//W3C//DTD SVG 1.1//EN" "http://www.w3.org/Graphics/SVG/1.1/DTD/svg11.dtd">
<svg version="1.1" id="Layer_1" xmlns="http://www.w3.org/2000/svg" xmlns:xlink="http://www.w3.org/1999/xlink" x="0px" y="0px"
	 viewBox="0 0 800 200" enable-background="new 0 0 800 200" xml:space="preserve">
<path fill="#547386" d="M338.4,38.4c4.8-10,18-20,27.2-26.4C372.8,7.6,380,4,388,1.6c20-5.2,42,1.2,59.2,12.8
	c7.6,5.2,14.4,11.2,18.4,19.2c2.4,4.8,3.6,10,4.8,14.8c4.4,24.8-0.4,50.8-13.6,72.4c-6,9.6-13.6,18.4-20.4,27.6
	c-11.6,15.2-18.4,24.4-27.2,41.2c0,0-5.6,10-8.4,10c-2.8,0-9.2-8.4-9.2-8.4c-12.4-17.2-14.8-22-24-31.2c-4-4.4-18.4-23.2-21.6-28
	c-4.8-7.6-7.2-14-10.4-22.8c-1.6-4.8-3.6-9.2-5.2-14c-4.4-15.2-2.8-32.4,4-47.2L338.4,38.4z"/>
<path fill="#FFFFFF" d="M377.6,35.2c20.8-10.8,58.8-2,67.2,22c6.4,18-2.8,37.6-17.6,48.4c-16.4,12.4-43.6,13.2-58.4-2.8
	c-11.2-12-12.8-37.6-5.2-52.8c2.4-4.4-4.4-8.4-6.8-4c-9.6,18.8-7.6,48.4,7.6,63.2c18.4,18.4,50,16.8,69.6,1.2
	c17.6-14,27.2-38.8,16.8-60C438.4,24.8,398,16,373.6,28.8C369.2,30.8,373.2,37.6,377.6,35.2L377.6,35.2z"/>
</svg>
