<svg xmlns="http://www.w3.org/2000/svg" viewBox="0 0 60 60"><path fill="none" stroke="#ffcd00" stroke-width="4" stroke-linecap="round" stroke-linejoin="round" stroke-miterlimit="10" d="M47.6 23.4c0.4-0.3 0.9-0.9 1.5-0.7 0.6 0.3 3.5 1.1 3.6 1.5 0.2 0.7-0.5 1.9-1 1.7S47.3 23.7 47.6 23.4zM47.9 6.5c-0.1-0.4-0.5-1-0.1-1.4 0.4-0.4 2-2.5 2.3-2.4 0.6 0.1 1.4 1 1 1.3C50.8 4.3 48 6.8 47.9 6.5zM48.5 15.3c-0.9-0.5-0.4-1.5 0.4-1.6 0.8-0.1 4.6-1.2 5-0.9 0.6 0.6 0.8 2.1 0.1 2.2C53.4 15.1 49 15.5 48.5 15.3z"/><path fill="#ffcd00" d="M17.4 8.6c0.5-1.8 0.5-4.2 2.6-4.8 2.4-0.7 5.5 0.4 7.9 0.9 2.3 0.5 4.5 0.9 6.8 1.4 2.4 0.5 5 0.7 7.3 1.6 3 1.1 2.1 4.3 1.6 6.7 -0.6 2.6-1.2 5.2-1.7 7.7 -1 4.7-2 9.3-3 14 -1 4.8-2 9.7-3.1 14.5 -0.3 1.5-0.4 3.9-1.1 5.3 -0.5 0.9-0.7 0.9-1.8 1 -0.9 0.1-1.9 0-2.8-0.1 -4.3-0.2-8.5-0.9-12.6-2.1 -1.8-0.5-4.4-0.9-6-2 -2.2-1.5-0.6-5.4-0.2-7.6 2-10.9 4-21.9 6-32.8 0.2-1.3-1.7-1.8-1.9-0.5C13 24.3 10.6 36.9 8.4 49.4c-0.3 1.5-0.8 3.3 0.6 4.4 1.5 1.3 4.4 1.8 6.3 2.3 5 1.6 10.3 2.5 15.6 2.7 1.3 0 3.5 0.3 4.6-0.5 1.2-0.8 1.3-2.9 1.5-4.2 1.3-6.2 2.7-12.3 4-18.5 1.3-6.3 2.7-12.6 4.1-18.9 0.8-3.5 2.6-8.7-1.6-10.8 -2.7-1.3-6.3-1.5-9.2-2.1 -3.4-0.7-6.9-1.5-10.3-2.1 -2-0.3-4.5-0.5-6.2 0.8 -1.7 1.3-1.8 3.6-2.3 5.4C15.1 9.3 17 9.8 17.4 8.6L17.4 8.6z"/><path fill="#ffcd00" d="M21.6 13.4c5.8 1.5 11.5 2.9 17.3 4.4 -0.2-0.3-0.5-0.6-0.7-1 -1.4 10.7-3.9 21.2-7.2 31.4 0.4-0.2 0.8-0.5 1.2-0.7 -6-1-11.9-2-17.9-3 0.2 0.4 0.5 0.8 0.7 1.2 1.8-9.8 3.9-19.6 6.2-29.4 0.3-1.3-1.6-1.8-1.9-0.5 -2.3 9.7-4.4 19.5-6.2 29.4 -0.1 0.5 0.1 1.1 0.7 1.2 6 1 11.9 2 17.9 3 0.6 0.1 1-0.1 1.2-0.7 3.4-10.4 5.9-21.1 7.3-31.9 0.1-0.4-0.3-0.9-0.7-1 -5.8-1.5-11.5-2.9-17.3-4.4C20.9 11.2 20.3 13.1 21.6 13.4L21.6 13.4z"/><path fill="#ffcd00" d="M22.3 47.9c-1.5 0.4-2.5 1.9-2.5 3.4 0.1 1.7 1.5 2.9 3.1 2.9 1.6 0 3-1 3.2-2.7 0.2-1.6-0.8-3.1-2.3-3.7 -1.2-0.4-1.7 1.5-0.5 1.9 1.3 0.4 1.1 2.5-0.4 2.4 -1.5-0.1-1.4-2-0.1-2.4C24.1 49.5 23.6 47.6 22.3 47.9L22.3 47.9z"/><path fill="#ffcd00" d="M28.4 9.8c2.5 0.1 5 0.4 7.5 0.9 1.3 0.3 1.8-1.7 0.5-1.9 -2.7-0.5-5.3-0.9-8-1C27.1 7.7 27.1 9.7 28.4 9.8L28.4 9.8z"/></svg>