<svg xmlns="http://www.w3.org/2000/svg" viewBox="0 0 300 300"><path fill="#ffffff" d="M177.7 111.9c6.2-16.3 12.5-33.8 10.3-51.5 -1.1-8.5-4.3-16.4-8.3-23.9 -3.2-6.1-7.5-12.3-14-15.2 -5.5-2.4-13.9-1.6-15.8 5.2 -1.1 4 0.9 7.5 2.2 11.1 1.4 4 1.7 8.1 1.5 12.3 -0.5 8.4-3.4 16.7-6 24.6 -2.6 8-5.6 15.9-9.7 23.3 -8.4 15.1-20.8 28.4-36.4 36.1 -3.5 1.7-0.4 6.9 3 5.2 12.9-6.4 23.6-16.5 32-28.1 9.2-12.7 14.7-27.3 19.2-42.3 2.2-7.4 4.2-15.1 4-22.8 -0.1-3.8-0.8-7.7-2.2-11.2 -1-2.4-3.5-6.8-0.1-8.3 5.8-2.6 11.7 4 14.4 8.2 4.1 6.2 7.4 13.5 9.2 20.7 4.8 18.6-2.5 37.8-9 55C170.5 113.9 176.3 115.5 177.7 111.9L177.7 111.9z"/><path fill="#ffffff" d="M179.9 119.7c16.5-6.1 35.5-2.6 52.4-0.4 4.3 0.6 8.6 1.1 13 1.5 4 0.4 7.9 0.5 11.8 1.5 3.3 0.9 6.7 2.1 9.8 3.8 0.3 0.2 1.2 0.7 1.1 0.7 0.3 0.2 0-0.7 0-0.1 0 1.2 0.4 2.5 0.4 3.7 0.1 1.7 0 3.4-0.3 5.1 -0.2 1-0.6 2.5-1 2.7 -1.9 1.3-5 1.7-7.1 2.4 -2.6 0.8-5.2 1.7-7.8 2.7 -2.4 0.9-3 4-0.7 5.5 1.9 1.2 4.7 2.7 5.7 4.9 1 2.2-0.6 4.6-1.8 6.4 -3.2 5-8 9.9-14.2 10.3 -2.2 0.2-3.8 2.4-2.6 4.5 1.6 2.8 3.9 4.9 6.2 7.1 1.9 1.8 3.6 3.7 3.5 6.6 -0.2 6.5-8.9 8.4-14 9.4 -2.2 0.4-2.9 3.5-1.3 5 5.3 5 13.3 14.1 4.9 20.3 -7 5.1-17.5 4.6-25.6 5 -11.7 0.6-23.5 0.8-35.2 0.7 -11.5 0-23.2 0.1-34.7-0.5 -6.3-0.3-12.3-1.3-18.1-3.7 -5.7-2.3-11.3-5.1-16.9-7.7 -3.5-1.6-6.5 3.6-3 5.2 5.6 2.6 11.1 5.3 16.8 7.7 5.7 2.4 11.4 3.7 17.5 4.3 12.9 1.2 26 0.7 38.9 0.7 12.9 0 25.8-0.2 38.6-1 9-0.5 19.9-0.8 26.9-7.4 3.7-3.4 5.2-8.5 4.1-13.4 -1.3-5.9-5.8-10.5-10-14.5 -0.4 1.7-0.9 3.3-1.3 5 7.3-1.4 16.7-4.6 18.2-13 0.7-4-0.4-7.7-2.9-10.7 -2.4-2.9-5.5-4.9-7.4-8.2 -0.9 1.5-1.7 3-2.6 4.5 9-0.7 15.8-7.1 20.2-14.6 1.9-3.2 3-6.8 1.4-10.4 -1.6-3.6-5.1-5.8-8.3-7.8 -0.2 1.8-0.5 3.7-0.7 5.5 5-1.9 10.1-3.2 15.1-5.1 3.4-1.4 4.6-4.4 5.1-7.9 0.5-3.4 0.6-7.1-0.2-10.5 -0.7-2.9-3-4.2-5.6-5.4 -4-1.9-8.4-3.4-12.8-4.3 -4.6-0.9-9.3-0.9-13.9-1.4 -10.1-1.1-20.2-2.7-30.3-3.5 -11-0.8-22.5-0.9-33 3C174.7 115.2 176.3 121 179.9 119.7L179.9 119.7z"/><path fill="#ffffff" d="M105.8 216.5c-8.3-5.5-19.2-4.6-28.8-4.8 -11.3-0.2-22.6-0.5-34-0.7 -3.9-0.1-3.9 5.9 0 6 10.7 0.2 21.3 0.4 32 0.7 8.9 0.2 19.9-1.1 27.8 4C106 223.8 109 218.6 105.8 216.5L105.8 216.5z"/><path fill="#ffffff" d="M101.6 133.4c-15.5-2.6-30.8-5.8-46.1-9.5 -3.7-0.9-5.3 4.9-1.6 5.8 15.2 3.8 30.6 6.9 46.1 9.5C103.8 139.8 105.4 134.1 101.6 133.4L101.6 133.4z"/></svg>