<svg xmlns="http://www.w3.org/2000/svg" viewBox="0 0 300 300"><path fill="#ffcd00" d="M95.4 225.7c14.8-24.8 28.7-50.1 41.9-75.7 1.8-3.4-3.4-6.5-5.2-3 -13.1 25.7-27.1 50.9-41.9 75.7C88.2 226 93.4 229.1 95.4 225.7L95.4 225.7z"/><path fill="#ffcd00" d="M193.3 131.3c3.1-0.5 6.1 1.1 8.7 2.6 2.8 1.6 5.5 3.5 8.3 5.1 5.7 3.5 11.6 6.7 17.6 9.7 11.9 6 24.3 11.2 36.9 15.5 3.7 1.2 5.2-4.5 1.6-5.8 -13.3-4.5-26.3-10.1-38.8-16.6 -6.2-3.2-12.3-6.7-18.3-10.4 -5.5-3.4-10.9-6.9-17.7-5.9C187.9 126.1 189.5 131.8 193.3 131.3L193.3 131.3z"/><path fill="#ffcd00" d="M36.2 102.7c15.1 34.5 28.7 69.7 40.6 105.4 3.4 10.1 6.6 20.2 9.7 30.3 0.5 1.6 2.1 2.5 3.7 2.1 13.4-3.3 26.4-7.9 39-13.4 7.8-3.4 15.3-7.2 22.8-11.1 4.9-2.5 10.3-4 15.6-5.6 11.2-3.3 22.6-6 33.3-11 12.1-5.6 24.5-10.5 37-15.1 7.5-2.7 14.8-5.6 21.9-9.4 7.5-4 14.8-8.1 22.8-10.9 1.4-0.5 2.7-2.1 2.1-3.7 -13.8-35.5-27.7-71.1-41.5-106.6 -3.9-10.1-7.8-20.2-11.8-30.3 -0.5-1.4-2.1-2.8-3.7-2.1C180.4 41 132.4 58.7 85.2 78.7c-13.5 5.7-26.9 11.6-40.2 17.8 -2 0.9-1.9 4.2 0 5.2 29.2 15.2 58.9 30.1 90.5 39.7 7.2 2.2 14.7 4.6 22.3 5.5 3.4 0.4 7 0.1 10-1.7 3-1.7 4.9-4.6 6.4-7.5 7.5-14.4 14.8-28.7 23.1-42.6 9.4-15.9 19.4-31.3 30.1-46.3 2.2-3.2-3-6.2-5.2-3 -18.1 25.4-34.3 52-48.5 79.7 -1.7 3.3-3.3 6.7-5 10 -1.6 2.9-3.5 5.2-7 5.6 -3.4 0.4-6.9-0.6-10.2-1.4 -3.7-0.9-7.4-1.9-11.1-3 -15.1-4.4-29.8-10.1-44.2-16.5 -16.3-7.2-32.2-15.3-48-23.5 0 1.7 0 3.5 0 5.2 46.3-21.5 94-39.5 141.4-58.3 13.3-5.3 26.6-10.6 39.8-16.2 -1.2-0.7-2.5-1.4-3.7-2.1 13.8 35.5 27.7 71.1 41.5 106.6 3.9 10.1 7.8 20.2 11.8 30.3 0.7-1.2 1.4-2.5 2.1-3.7 -14.2 5-26.5 13.8-40.7 18.8 -12.6 4.5-25 9.3-37.2 14.7 -4.8 2.1-9.4 4.4-14.4 6.1 -5.9 2-12 3.6-18 5.3 -5.8 1.7-11.7 3.3-17.4 5.6 -6.8 2.8-13.1 6.6-19.8 9.8 -14.4 6.8-29.4 12.3-44.9 16.1 1.2 0.7 2.5 1.4 3.7 2.1 -11.2-36.4-24-72.3-38.4-107.5 -4.1-9.9-8.2-19.8-12.5-29.6C39.8 96.1 34.6 99.2 36.2 102.7L36.2 102.7z"/><path fill="#ffcd00" d="M14 226.4c15.8-8.8 31.5-17.7 47.3-26.5 3.4-1.9 0.3-7.1-3-5.2 -15.8 8.8-31.5 17.7-47.3 26.5C7.6 223.2 10.7 228.3 14 226.4L14 226.4z"/><path fill="#ffcd00" d="M25.1 248.6c11.9-5.8 23.9-11.5 35.8-17.3 3.5-1.7 0.4-6.9-3-5.2 -11.9 5.8-23.9 11.5-35.8 17.3C18.6 245.1 21.7 250.3 25.1 248.6L25.1 248.6z"/><path fill="#ffcd00" d="M25.4 182.1c8.8-2 17.1-5.6 24.6-10.6 3.2-2.2 0.2-7.4-3-5.2 -7.1 4.8-14.8 8.2-23.2 10C20.1 177.2 21.7 183 25.4 182.1L25.4 182.1z"/></svg>