<svg xmlns="http://www.w3.org/2000/svg" viewBox="0 0 300 300"><path fill="none" stroke="#ffffff" stroke-width="6" stroke-linecap="round" stroke-linejoin="round" stroke-miterlimit="10" d="M242.9 116.3c2-1.6 4.4-4.8 7.5-3.4 3.1 1.4 17.7 5.5 18.2 7.4 0.9 3.7-2.4 9.6-5 8.5C260.9 127.6 241.1 117.7 242.9 116.3zM244.1 30.5c-0.7-2.1-2.5-5.1-0.3-7.2 2.1-2.1 10.1-12.6 11.8-12.3 3.2 0.5 7 5 5.2 6.8S244.7 32.3 244.1 30.5zM247.5 75.2c-4.4-2.4-2-7.5 1.9-8.2 3.9-0.7 23.4-6 25.1-4.4 3.2 2.9 3.9 10.7 0.7 11.3C272 74.3 249.8 76.4 247.5 75.2z"/><path fill="#ffffff" d="M87.9 40.8c1.4-4.8 2.2-9.7 3.5-14.5 1-3.5 2.4-7.1 5.7-9.1 4.9-3 11.3-3.3 16.9-3 6 0.4 11.9 1.7 17.8 2.9 13.3 2.7 26.5 5.4 39.8 8.2 13 2.7 26.1 5.1 39 8 5 1.1 10.3 2.7 13.6 6.9 3.1 4 3.5 9.2 3.2 14.1 -0.3 5.3-1.7 10.5-2.9 15.7 -1.5 6.6-3.1 13.2-4.5 19.9 -5.9 26.3-11.5 52.6-17 78.9 -5.6 26.5-11.1 53-16.9 79.4 -1.4 6.5-2.9 12.9-4.3 19.4 -1 4.8-1.7 9.7-3 14.5 -0.3 1.2-0.7 3.1-1.6 3.9 -0.3 0.3-2.9 0.8-3.9 0.9 -4.4 0.6-9 0.5-13.4 0.4 -22.7-0.6-45.5-4-67.4-9.9 -11.3-3-22.1-7.1-33.1-10.9 -1.9-0.6-3.9-1.1-5.7-2 -2.5-1.2-3-3.1-2.9-5.8 0.1-3 0.9-6 1.4-8.9 0.6-3.3 1.2-6.5 1.8-9.8 9.9-53.6 19.7-107.2 29.6-160.7 1.2-6.5 2.4-13.1 3.6-19.6 0.7-3.8-5.1-5.4-5.8-1.6 -10.4 56.5-20.8 113-31.2 169.6 -1.3 7.2-2.6 14.4-4 21.6 -1 5.4-3 12.2 0.4 17.2 2.6 3.8 7.9 4.7 11.9 6.1 6.1 2.1 12.1 4.4 18.2 6.4 24 7.7 48.8 12.2 73.9 13.9 4.7 0.3 9.3 0.5 14 0.5 4.3 0 8.9-0.1 13-1.3 4.1-1.2 5.6-4 6.7-7.9 1.5-4.9 2.1-10.1 3.2-15.1 6-27.8 12.1-55.5 18-83.3 5.9-27.9 11.7-55.9 17.9-83.7 1.5-6.9 3.1-13.9 4.7-20.8 1.5-6.5 3.2-12.9 4.4-19.4 1.8-10.2 1.8-22.1-7.3-29 -4.5-3.4-10.2-4.8-15.7-5.9 -6.9-1.4-13.8-2.8-20.8-4.3 -13.9-2.9-27.8-5.7-41.7-8.6 -6.9-1.4-13.9-2.9-20.8-4.2 -6.1-1.2-12.4-2.1-18.7-1.6 -5.4 0.4-11.2 1.7-15.4 5.3 -3.4 2.8-5.2 7-6.4 11.2 -1.3 4.8-2.1 9.7-3.5 14.5C81.1 42.9 86.8 44.5 87.9 40.8L87.9 40.8z"/><path fill="#ffffff" d="M111.7 63.7c29.2 7.4 58.4 14.7 87.5 22.1 -0.7-1-1.5-1.9-2.2-2.9 -5.5 42.1-14.2 83.8-25.9 124.6 -3.3 11.6-6.9 23.2-10.8 34.7 1.2-0.7 2.5-1.4 3.7-2.1 -30.1-5-60.3-10-90.4-14.9 0.7 1.2 1.4 2.5 2.1 3.7 7.2-39.1 15.2-78.1 24-116.9 2.4-10.6 4.8-21.2 7.3-31.8 0.9-3.8-4.9-5.4-5.8-1.6C92 117.3 83.7 156.2 76 195.2c-2.1 10.7-4.1 21.3-6.1 32 -0.3 1.5 0.4 3.4 2.1 3.7 30.1 5 60.3 10 90.4 14.9 1.7 0.3 3.1-0.4 3.7-2.1 13.6-40.8 24.1-82.7 31.5-125.1 2.1-11.9 3.9-23.8 5.4-35.8 0.2-1.3-1-2.6-2.2-2.9 -29.2-7.4-58.4-14.7-87.5-22.1C109.5 56.9 107.9 62.7 111.7 63.7L111.7 63.7z"/><path fill="#ffffff" d="M115.4 242c-11.1 2.5-15.1 18.4-5.6 25.1 9.2 6.6 23.4 0.2 22.7-11.5 -0.4-6.2-4.2-11.8-10.2-13.7 -3.7-1.2-5.3 4.6-1.6 5.8 3.8 1.2 6.1 5.5 5.8 9.4 -0.4 4.4-4.2 6.8-8.3 6.7 -4-0.1-7.6-2.7-7.8-7 -0.1-4.1 2.6-8.1 6.6-9C120.8 247 119.2 241.2 115.4 242L115.4 242z"/><path fill="#ffffff" d="M145.5 45.3c12.9 0.6 25.8 2.2 38.5 4.8 3.8 0.8 5.4-5 1.6-5.8 -13.2-2.8-26.6-4.4-40.1-5C141.6 39.1 141.7 45.1 145.5 45.3L145.5 45.3z"/></svg>