<svg xmlns="http://www.w3.org/2000/svg" viewBox="0 0 100 100"><path fill="none" stroke="#ffffff" stroke-width="4" stroke-linecap="round" stroke-linejoin="round" stroke-miterlimit="10" d="M82.3 40.2c0.6-0.5 1.3-1.4 2.2-1 0.9 0.4 5.1 1.6 5.2 2.1 0.2 1.1-0.7 2.8-1.4 2.4S81.8 40.6 82.3 40.2zM82.7 15.6c-0.2-0.6-0.7-1.5-0.1-2.1 0.6-0.6 2.9-3.6 3.4-3.5 0.9 0.1 2 1.4 1.5 1.9C86.9 12.4 82.8 16.1 82.7 15.6zM83.6 28.4c-1.3-0.7-0.6-2.2 0.5-2.4 1.1-0.2 6.7-1.7 7.2-1.3 0.9 0.8 1.1 3.1 0.2 3.2C90.7 28.1 84.3 28.7 83.6 28.4z"/><path fill="#ffffff" d="M38.4 18.7c0.7-2.4 0.6-6 3.4-6.9 3.5-1.1 7.8 0.4 11.3 1.1 6.7 1.4 13.7 2.3 20.3 4.2 4 1.1 4.1 4.2 3.3 7.8 -0.7 3.4-1.6 6.9-2.3 10.3 -1.6 7.2-3.1 14.4-4.6 21.6 -1.5 7.2-3 14.4-4.6 21.6 -0.6 2.8-1.1 5.7-1.8 8.5 -0.3 1.4-0.1 1.5-1.5 1.7 -1.3 0.2-2.7 0.1-4 0.1 -6.3-0.2-12.5-1.2-18.6-2.8 -3.1-0.8-6.2-1.9-9.2-3 -1.6-0.6-2.5-0.8-2.2-2.7 0.3-2.3 0.8-4.6 1.3-6.9 3-16.4 6-32.7 9-49.1 0.3-1.9-2.5-2.7-2.9-0.8 -3.2 17.5-6.4 35-9.7 52.6 -0.5 2.5-2 6.7 0.6 8.6 1 0.7 2.4 1 3.5 1.4 2 0.7 3.9 1.4 5.9 2 7 2.2 14.4 3.4 21.7 3.7 2.1 0.1 5.6 0.6 7.4-0.8 1.8-1.4 1.9-4.8 2.3-6.8 1.9-8.6 3.8-17.3 5.6-25.9 1.8-8.5 3.6-17 5.5-25.4 1.2-5.3 4.8-14.3-1.7-17.6 -3.7-1.9-8.6-2.2-12.6-3 -4.7-1-9.4-2-14-2.9 -3.4-0.7-7.6-1.4-10.7 0.6 -2.7 1.7-2.8 5.3-3.6 8.1C35 19.7 37.9 20.5 38.4 18.7L38.4 18.7z"/><path fill="#ffffff" d="M44.5 25.7c8.4 2.1 16.8 4.2 25.1 6.3 -0.4-0.5-0.7-1-1.1-1.4C66.4 46.1 62.9 61.3 58 76.1c0.6-0.3 1.2-0.7 1.8-1 -8.7-1.4-17.3-2.9-26-4.3 0.3 0.6 0.7 1.2 1 1.8 2.6-14.3 5.6-28.5 9-42.7 0.4-1.9-2.4-2.7-2.9-0.8 -3.3 14.1-6.4 28.4-9 42.7 -0.1 0.7 0.2 1.7 1 1.8 8.7 1.4 17.3 2.9 26 4.3 0.8 0.1 1.6-0.2 1.8-1 5-15.1 8.5-30.6 10.6-46.4 0.1-0.6-0.5-1.3-1.1-1.4C62 27 53.7 24.9 45.3 22.8 43.4 22.3 42.6 25.2 44.5 25.7L44.5 25.7z"/><path fill="#ffffff" d="M45.5 75.7c-2.2 0.5-3.7 2.7-3.6 5 0.1 2.5 2.2 4.2 4.6 4.3 2.3 0 4.4-1.5 4.7-3.9 0.3-2.4-1.1-4.6-3.4-5.4C46 75 45.2 77.9 47 78.5c1.8 0.6 1.5 3.5-0.6 3.4 -2.1-0.1-2-2.9-0.2-3.3C48.2 78.1 47.4 75.2 45.5 75.7L45.5 75.7z"/><path fill="#ffffff" d="M54.4 20.4c3.7 0.2 7.3 0.6 10.9 1.4 1.9 0.4 2.7-2.5 0.8-2.9 -3.9-0.8-7.7-1.3-11.7-1.5C52.4 17.3 52.4 20.3 54.4 20.4L54.4 20.4z"/></svg>