<svg xmlns="http://www.w3.org/2000/svg" x="0px" y="0px" viewBox="0 0 36 50">

<path fill="#0097A9" d="M2.6,9.6c1.2-2.5,4.5-5,6.8-6.6C11.2,1.9,13,1,15,0.4c5-1.3,10.5,0.3,14.8,3.2c1.9,1.3,3.6,2.8,4.6,4.8
			c0.6,1.2,0.9,2.5,1.2,3.7c1.1,6.2-0.1,12.7-3.4,18.1c-1.5,2.4-3.4,4.6-5.1,6.9c-2.9,3.8-4.6,6.1-6.8,10.3c0,0-1.4,2.5-2.1,2.5
			s-2.3-2.1-2.3-2.1c-3.1-4.3-3.7-5.5-6-7.8c-1-1.1-4.6-5.8-5.4-7c-1.2-1.9-1.8-3.5-2.6-5.7c-0.4-1.2-0.9-2.3-1.3-3.5
			C-0.5,20-0.1,15.7,1.6,12L2.6,9.6z"/>
<path fill="#FFFFFF" d="M12.4,8.8c5.2-2.7,14.7-0.5,16.8,5.5c1.6,4.5-0.7,9.4-4.4,12.1c-4.1,3.1-10.9,3.3-14.6-0.7
				C7.4,22.7,7,16.3,8.9,12.5c0.6-1.1-1.1-2.1-1.7-1c-2.4,4.7-1.9,12.1,1.9,15.8c4.6,4.6,12.5,4.2,17.4,0.3c4.4-3.5,6.8-9.7,4.2-15
				C27.6,6.2,17.5,4,11.4,7.2C10.3,7.7,11.3,9.4,12.4,8.8L12.4,8.8z"/>

</svg>
