<svg xmlns="http://www.w3.org/2000/svg" viewBox="0 0 300 300"><path fill="#ffcd00" d="M178 129.2c5.6-14.7 10.8-29.5 12.4-45.2 0.8-7.7 0.3-15.4-1.3-23 -1.7-7.5-5-14.6-8.4-21.4 -5.4-10.6-14.6-22.4-27.9-20.2 -6.9 1.2-10 7.7-8.7 14.1 0.7 3.3 2.5 6.4 3.4 9.7 1 3.6 1.1 7.3 1 11 -0.4 10.6-4.2 21.2-7.5 31.2 -3.3 10.1-7.3 20-12.7 29.2 -9.9 16.8-24.1 31.6-41.7 40.3 -4.6 2.3-0.6 9.2 4 6.9 25.2-12.4 43.3-36.2 53.6-61.8 2.8-6.9 5.1-14.1 7.2-21.2 2.2-7.2 4.1-14.5 4.9-22.1 0.8-7.4-0.2-14.7-3.1-21.5 -0.9-2.1-2.6-5.4-0.7-7.3 1.4-1.4 4.2-1.2 5.9-0.8 7.1 1.6 11.6 9.1 14.7 15 4.5 8.4 8.3 17.5 9.4 27 2.3 19.9-5.3 39.5-12.2 57.7 -0.8 2 0.8 4.4 2.8 4.9C175.3 132.6 177.2 131.2 178 129.2L178 129.2z"/><path fill="#ffcd00" d="M180.3 138.7c11.8-4.4 24.7-4.2 37.2-3.3 13.3 1 26.4 3.2 39.7 4.5 5.9 0.6 11.5 0.8 17.3 2.5 2.4 0.7 4.8 1.6 7.1 2.7 0.9 0.4 1.8 0.9 2.7 1.4 0.3 0.2 0.7 0.4 1 0.6 -0.8-0.6 0.6 0.9-0.3-0.4 -0.6-0.9-0.2-0.3 0 0.2 0.1 0.4 0.2 0.8 0.2 1.2 0.1 0.3 0.2 1.8 0.2 2.5 0.1 2.3 0 4.6-0.4 6.8 -0.2 0.9-0.4 1.7-0.7 2.1 -0.5 1 0.4-0.3-0.2 0.4 0.6-0.6-0.3 0-0.8 0.2 -3.2 1.2-6.4 2.2-9.7 3.2 -2.4 0.8-4.8 1.6-7.1 2.5 -3.2 1.2-4.1 5.4-1 7.3 2.5 1.6 5.3 3.2 6.8 5.9 1.1 2.1-1.2 5.3-2.3 7 -3.7 5.8-9.4 11.6-16.6 12.1 -3 0.2-5.1 3.3-3.5 6 2 3.3 4.7 6 7.5 8.6 2.2 2.1 4 4.2 4.1 7.4 0.1 7.6-10.7 9.8-16.4 10.9 -3 0.6-3.9 4.7-1.8 6.7 4.2 4 9.7 9 10.1 15.2 0.4 5.1-3.5 8.3-7.7 10.3 -4.9 2.3-10.5 2.8-15.8 3.2 -8.2 0.6-16.5 1-24.8 1.2 -16.5 0.5-33.1 0.4-49.6 0.2 -8-0.1-15.9 0-23.9-0.7 -7.8-0.6-14.9-2.8-22-6 -5.2-2.4-10.4-4.9-15.7-7.3 -2-0.9-4.3-0.6-5.5 1.4 -1 1.7-0.5 4.6 1.4 5.5 7.2 3.4 14.4 6.9 21.7 9.9 7.3 3 14.9 4.2 22.7 4.7 16.2 1 32.6 0.7 48.9 0.6 16.4 0 32.8-0.4 49.2-1.7 10.8-0.9 23.3-4 27.9-14.9 4.4-10.5-4.4-20.6-11.4-27.2 -0.6 2.2-1.2 4.5-1.8 6.7 8.8-1.7 19.9-5.6 22-15.5 1-5.1-0.5-9.8-3.8-13.7 -2.7-3.3-6.3-5.6-8.5-9.4 -1.2 2-2.3 4-3.5 6 10.9-0.8 18.9-8.5 24.3-17.3 2.5-4.1 3.8-8.8 1.7-13.3 -1.9-4.2-6.1-6.9-9.9-9.2 -0.3 2.4-0.6 4.9-1 7.3 6.4-2.5 13.3-3.8 19.5-6.7 4.2-2 4.9-8 5.2-12.1 0.3-3.8 0.6-9.9-2.1-13 -2.8-3.2-8.1-4.8-11.9-6.2 -5.8-2.1-11.6-2.9-17.8-3.3 -6.3-0.5-12.6-1.3-18.9-2.1 -13.4-1.7-26.8-3.5-40.3-3.3 -8.1 0.2-16.5 1.2-24.1 4C173.4 132.8 175.5 140.5 180.3 138.7L180.3 138.7z"/><path fill="#ffcd00" d="M92.1 253.4c-10.1-6.7-23.3-5.6-34.9-5.8 -13.4-0.3-26.8-0.6-40.2-0.8 -5.2-0.1-5.2 7.9 0 8 12.7 0.3 25.5 0.5 38.2 0.8 5.9 0.1 11.7 0.1 17.6 0.5 5.4 0.3 10.7 1.3 15.2 4.3C92.3 263.2 96.3 256.3 92.1 253.4L92.1 253.4z"/><path fill="#ffcd00" d="M87 154.3c-18.4-3.1-36.8-6.9-54.9-11.4 -5-1.2-7.1 6.5-2.1 7.7 18.2 4.5 36.5 8.3 54.9 11.4 2.1 0.4 4.3-0.5 4.9-2.8C90.3 157.3 89.1 154.6 87 154.3L87 154.3z"/></svg>