<svg xmlns="http://www.w3.org/2000/svg" viewBox="0 290 300 300"><path fill="none" stroke="#FFFFFF" stroke-width="6" stroke-linecap="round" stroke-linejoin="round" stroke-miterlimit="10" d="M186.1 357.9c-21.9 9.7-14.4 29-5.1 33.1 26.6 12.3 50-25.5 23.2-37.2 -1.7-0.8-9.9-2.9-11-4.1M162 399.3c6.3-2.1 11.7 1.3 42.8 2.3 7.4 0.2 5 8.6 3.3 17.4 -1.7 8.9-15.7 80.8-16.7 85.6s-4.5 14.2 2.9 15.6c6.7 1.3 7 11.4-1.9 9.7 -17.9-3.4-54.5-10.6-57-11 -9-1.7-4.6-11 0.3-10 4.9 1 14.5 3.6 19-15.6s11.7-51.4 13.9-62.7c2.2-11.3-3.4-15.5-9.7-19.5C155.3 408.9 156.1 401.3 162 399.3zM129.2 361.5c1 2.4-1.9 6.1-5.8 4.4 -3.9-1.7-24.3-9.2-25.1-11.1 -1.4-3.7 1.8-9.2 5-7.8C106.6 348.3 126.3 353.8 129.2 361.5zM112.4 410.5c-1.3 2.3-0.2 5-3.3 6.9 -5.4 3.3-22.8 0.9-24-0.9 -2.4-3.1-1.5-10.1 1.6-10C89.7 406.6 113.5 408.5 112.4 410.5zM109.8 477.9c2 1.1 1.1 6.4-3 6.9 -4.2 0.5-25.6 4.4-27.1 3 -3-2.6-2.8-9.1 0.8-9.5S102.4 473.7 109.8 477.9zM215.5 549.6c3.1 0.1 7.2-4.4 9.2-0.4 1.9 4 13.7 23.5 12.6 25.7 -2.1 4.3-10 7.3-11.6 4C224 575.7 212.7 549.5 215.5 549.6zM232 477.8c1.9-1.5 4.3-4.6 7.2-3.2 3 1.3 17.1 5.2 17.5 7.1 0.9 3.5-2.3 9.3-4.9 8.2C249.3 488.7 230.4 479.1 232 477.8zM228.1 345.3c-0.7-2-2.4-4.9-0.3-7 2.1-2 9.7-12.1 11.4-11.9 3.1 0.5 6.8 4.9 5 6.6C242.5 334.6 228.7 347 228.1 345.3zM243.7 403.6c-4.2-2.3-1.9-7.2 1.8-7.9 3.7-0.7 22.7-5.8 24.3-4.3 3 2.9 3.7 10.3 0.7 10.9C267.3 402.8 245.9 404.8 243.7 403.6zM139.4 544.1c1.4 1.9 5.9 2.4 4.4 5.3s-7.9 18.9-9.8 19.2c-3.5 0.7-9-2.7-7.7-5.1C127.6 561 138.2 542.3 139.4 544.1zM174.6 334.7c-2.4 0-5.4 3.4-7 0.5 -1.5-3-10.7-17.4-9.8-19.2 1.5-3.2 7.4-5.6 8.7-3.2C167.8 315.2 176.7 334.7 174.6 334.7z"/></svg>