<svg xmlns="http://www.w3.org/2000/svg" viewBox="0 0 300 300"><path fill="none" stroke="#ffcd00" stroke-width="6" stroke-linecap="round" stroke-linejoin="round" stroke-miterlimit="10" d="M91.3 180.9c0.1-5.8 1.1-11.4 3-16.3M129.3 242.8c10-19.6 8.4-26.8 19.6-49M102.3 193.8c2-7 4.1-14 6.1-21M77.8 164.6c2.5-8.6 5-17.2 7.5-25.8M120.1 226c6.4-15 12.8-30.1 19.2-45.1M114.2 208.4c2.6-9.5 5.2-18.9 7.8-28.4M68.5 143.4c2.6-9.5 5.2-18.9 7.8-28.4M142.4 255c2.9-10.6 15-34.7 17.9-45.3"/><path fill="#ffcd00" d="M142 290.5c0.6 0 0.6-1 0-1S141.4 290.5 142 290.5L142 290.5z"/><path fill="#ffcd00" d="M80.7 76.8c5.4-10.6 15.9-18.4 25.5-24.9 11-7.6 22.9-13.8 36.2-16.2 25.2-4.5 53 4.9 72.6 20.9 4.8 3.9 9.2 8.4 12.3 13.8 3.5 5.9 5.1 12.6 6.3 19.3 2.2 13 1.9 26.6-0.7 39.5 -2.6 13.1-7.6 25.7-14.6 37.1 -7.5 12.1-17.1 22.6-26.1 33.5 -9.3 11.3-19.4 22.1-27.9 34 -5.4 7.5-9.8 15.6-14.3 23.6 1.9 0 3.7 0 5.6 0 -5.5-7.9-11.2-15.5-17.6-22.7 -8.2-9.2-17.3-17.4-26-26 -7.6-7.6-14.4-16.4-20.4-25.3 -4.4-6.6-8.2-13.7-11.3-21 -1.7-3.8-3-7.8-4.6-11.7 -1.5-3.9-3.2-7.7-4.4-11.7 -5.3-16.9-3.3-35.4 4.2-51.3 1.8-3.8-3.8-7.1-5.6-3.3 -6.9 14.6-9.7 30.7-7.1 46.7 1.3 8.4 4.7 16.1 7.7 24 3.1 8 6.3 15.8 10.4 23.2 6 10.7 13.6 20.5 21.6 29.8 8.1 9.4 17.7 17.3 26.3 26.3 7.8 8.2 14.7 17.1 21.2 26.3 1.3 1.9 4.4 2.3 5.6 0 3.9-7.1 7.7-14.2 12.3-20.9 7.8-11.3 17.1-21.5 25.9-32 9.7-11.5 19.8-22.8 28.1-35.3 7.7-11.6 13.3-24.7 16.5-38.3 3.1-13.5 3.9-27.5 2.2-41.2 -0.9-7.3-2.4-14.5-5.4-21.3 -2.6-6-6.7-11.4-11.4-15.9 -9.7-9.4-22-16.3-34.6-21.1 -12.8-4.9-26.7-7.4-40.3-6.3 -15.9 1.2-30.4 7.6-43.6 16.3C94 52 81.4 61.1 75 73.5 73.1 77.2 78.7 80.5 80.7 76.8L80.7 76.8z"/><path fill="#ffcd00" d="M119.4 74.9c10.7-6.2 22.9-8.5 35.2-8 6.1 0.3 12.1 1.2 18 2.7 5.7 1.5 11.5 3.2 16.6 6.2 5.2 3.1 10 7.2 13.7 11.9 2.9 3.6 4.5 7.9 5.7 12.3 1.2 4.1 2.3 8.8 1.8 13.2 -0.3 2.9-1.4 5.9-2.3 8.7 -0.8 2.5-1.6 5-2.6 7.4 -6.7 15.9-22.4 28.1-39.3 32.2 -19.3 4.6-43.4 0.7-56-16 -6.3-8.3-8-18-8.6-28.2 -0.2-4.6-0.6-9.6 0.8-14 2.3-7 5.2-13.8 9.1-20.1 2.2-3.6-3.4-6.8-5.6-3.3 -3.9 6.2-6.8 13.1-9.2 20 -1.6 4.6-1.9 9.2-1.8 14.1 0.2 10.1 1.4 20.4 6.2 29.4 11 20.7 35.8 28.3 57.9 25.8 11.9-1.3 23-5.6 32.5-12.9 6.9-5.3 13.3-11.8 17.4-19.5 2.5-4.7 4.3-9.8 5.8-14.9 0.9-2.9 1.8-5.9 2-8.9 0.2-2.7-0.1-5.4-0.5-8 -0.8-5.3-2.4-10.6-4.7-15.4 -2.4-5.1-6.4-9.4-10.6-13.1 -11.5-10-26.6-14.3-41.5-15.8 -15-1.5-30.3 1-43.4 8.5C112.5 71.4 115.8 77 119.4 74.9L119.4 74.9z"/></svg>