<svg xmlns="http://www.w3.org/2000/svg" viewBox="0 440 300 300"><path fill="none" stroke="#FFFFFF" stroke-width="6" stroke-linecap="round" stroke-miterlimit="10" d="M194 470c-1.4 14.8-1.3 29.6-1 44.5 0.1 13.4 0.3 26.7 0.4 40 0.1 12.6 0.3 25.2 0.4 37.7 0.1 8.4 0.1 17 0.3 25.4M150.8 480.6c11 8.9 15.4 22.7 23.8 33.8 4.3 5.8 9.8 10.8 13.5 16.9 4.2 7.1 5.9 15.2 9.2 22.7 3.4 7.7 8.4 14.8 13 21.9 7.4 11.7 13.5 24.1 19.6 36.5M139.6 608c17.3-22.8 39.9-42.3 55.5-66.2 3.5-5.3 6.6-11 9.9-16.4 10.4-17.1 22.7-33.1 36.6-47.6M120 515.2c8.3-0.2 16.4 2.4 23.8 5.6 7.4 3.3 14.4 7.1 22.1 10.1 2.1 0.8 4.3 1.5 6.4 2.5 2.1 1 4.1 2.4 6.2 3.5 4.5 2.3 9.5 3.6 14.4 5.1 8.5 2.7 16.5 6.4 24.5 10.1 11.5 5.3 23.1 10.5 34.6 15.9 5.6 2.6 11.3 5.2 16.6 8M123.3 563.4c21-5.9 42-11.8 63-17.6 2.6-0.7 5.2-1.5 7.7-2.1 13-3.7 26-7.3 38.6-12 4-1.5 8-3.1 11.8-4.9 4.4-2.1 8.8-4.5 13.4-6.4 2.4-0.9 4.8-1.8 7-3"/></svg>