<?xml version="1.0" encoding="utf-8"?>
<!-- Generator: Adobe Illustrator 18.0.0, SVG Export Plug-In . SVG Version: 6.00 Build 0)  -->
<!DOCTYPE svg PUBLIC "-//W3C//DTD SVG 1.1//EN" "http://www.w3.org/Graphics/SVG/1.1/DTD/svg11.dtd">
<svg version="1.1" id="Layer_1" xmlns="http://www.w3.org/2000/svg" xmlns:xlink="http://www.w3.org/1999/xlink" x="0px" y="0px"
	 viewBox="0 0 750 440" enable-background="new 0 0 750 440" xml:space="preserve">
<path fill="#FFFFFF" d="M750,440H0V0h750V440z M61.3,425c85.7,9,172.1,11.3,255.1,8.2c102.5-3.8,200.6,5.6,307.4-0.8
	c-0.3,2.2,63.7-0.6,93.5-13.4c20.4-8.7,18.9-46,19.7-66.1c3.4-94,9.8-208.2-0.8-301.8c-0.7-6.2-1.5-12.6-4.7-18.3
	c-8.7-15.5-41.1-19.4-60.4-20.8c-54.7-4-109.6,3.1-164.4,3.3c-138.7,0.5-268.2-2.8-402.5-2.6c-23.8,0-50.5,0.8-66.9,16.1
	c-16.1,15-26.3,63.1-25.4,83.8c2.4,60.7-5.1,121.3-2.7,182C10.9,336.9,10.5,419.6,61.3,425z"/>
</svg>
