<?xml version="1.0" encoding="utf-8"?>
<!-- Generator: Adobe Illustrator 18.0.0, SVG Export Plug-In . SVG Version: 6.00 Build 0)  -->
<!DOCTYPE svg PUBLIC "-//W3C//DTD SVG 1.1//EN" "http://www.w3.org/Graphics/SVG/1.1/DTD/svg11.dtd">
<svg version="1.1" id="Layer_1" xmlns="http://www.w3.org/2000/svg" xmlns:xlink="http://www.w3.org/1999/xlink" x="0px" y="0px"
	 viewBox="-844.1 579 750 161.7" enable-background="new -844.1 579 750 161.7" xml:space="preserve">
<path fill="#0097A9" d="M-147.2,582.7c-87.7-3.4-176.3-4.3-261.3-3.1c-105,1.5-205.5-2.1-314.9,0.3c0.3-0.8-64.3,0.2-94.7,5.1
	c-20.9,3.3-19.4,17.6-20.2,25.2c-3.5,35.9-11.1,79.4-0.2,115.2c8.4,15.4,47,14.4,66.8,14.9c56.1,1.5,112.2-1.2,168.4-1.3
	c142.1-0.2,274.7,1.1,412.2,1c24.4,0,62-0.3,78.7-6.1c16.5-5.7,20-78.2,17.5-101.4C-96.6,616.3-95.1,584.7-147.2,582.7z"/>
<path fill="none" stroke="#FFFFFF" stroke-width="5" stroke-linecap="round" stroke-miterlimit="10" d="M-165.8,612.5
	c12,9.8,19.3,19.4,29.1,28.5c5.7,5.3,12.9,13.4,13.1,21.1c-7,15.6-13,18.6-23.4,28.9c-3.7,3.7-17,13.2-21.1,16.4"/>
</svg>
