<?xml version="1.0" encoding="utf-8"?>
<!-- Generator: Adobe Illustrator 18.0.0, SVG Export Plug-In . SVG Version: 6.00 Build 0)  -->
<!DOCTYPE svg PUBLIC "-//W3C//DTD SVG 1.1//EN" "http://www.w3.org/Graphics/SVG/1.1/DTD/svg11.dtd">
<svg version="1.1" id="Layer_1" xmlns="http://www.w3.org/2000/svg" xmlns:xlink="http://www.w3.org/1999/xlink" x="0px" y="0px"
	 viewBox="-864 278.3 750 161.7" enable-background="new -864 278.3 750 161.7" xml:space="preserve">
<path fill="#FFCD00" d="M-810.9,436.3c87.7,3.4,176.3,4.3,261.3,3.1c105-1.5,205.5,2.1,314.9-0.3c-0.3,0.8,64.3-0.2,94.7-5.1
	c20.9-3.3,19.4-17.6,20.2-25.2c3.5-35.9,11.1-79.4,0.2-115.2c-8.4-15.4-47-14.4-66.8-14.9c-56.1-1.5-112.2,1.2-168.4,1.3
	c-142.1,0.2-274.7-1.1-412.2-1c-24.4,0-62,0.3-78.7,6.1c-16.5,5.7-20,78.2-17.5,101.4C-861.5,402.7-863,434.3-810.9,436.3z"/>
<path fill="none" stroke="#FFFFFF" stroke-width="6" stroke-linecap="round" stroke-miterlimit="10" d="M-174.8,323.4
	c8.2,6.7,11.2,11.9,17.9,18.2c3.9,3.6,10.9,10.6,11,15.8c-3.6,9.7-7.8,11-15.3,18.4c-2.5,2.5-12.3,10.4-15.1,12.6"/>
</svg>
