<?xml version="1.0" encoding="utf-8"?>
<!-- Generator: Adobe Illustrator 18.0.0, SVG Export Plug-In . SVG Version: 6.00 Build 0)  -->
<!DOCTYPE svg PUBLIC "-//W3C//DTD SVG 1.1//EN" "http://www.w3.org/Graphics/SVG/1.1/DTD/svg11.dtd">
<svg version="1.1" id="Layer_1" xmlns="http://www.w3.org/2000/svg" xmlns:xlink="http://www.w3.org/1999/xlink" x="0px" y="0px"
	 viewBox="-844.2 718.2 750 161.7" enable-background="new -844.2 718.2 750 161.7" xml:space="preserve">
<path fill="#0097A9" d="M-147.2,721.9c-87.7-3.4-176.3-4.3-261.3-3.1c-105,1.5-205.5-2.1-314.9,0.3c0.3-0.8-64.3,0.2-94.7,5.1
	c-20.9,3.3-19.4,17.6-20.2,25.2c-3.5,35.9-11.1,79.4-0.2,115.2c8.4,15.4,47,14.4,66.8,14.9c56.1,1.5,112.2-1.2,168.4-1.3
	c142.1-0.2,274.7,1.1,412.2,1c24.4,0,62-0.3,78.7-6.1c16.5-5.7,20-78.2,17.5-101.4C-96.6,755.5-95.1,723.9-147.2,721.9z"/>
<path fill="none" stroke="#FFFFFF" stroke-width="6" stroke-linecap="round" stroke-miterlimit="10" d="M-159.4,769.9
	c8.2,6.7,13.1,13.2,19.8,19.4c3.9,3.6,8.8,9.1,8.9,14.4c-4.8,10.6-8.9,12.7-15.9,19.7c-2.5,2.5-11.6,9-14.4,11.2"/>
</svg>
