<svg xmlns="http://www.w3.org/2000/svg" viewBox="0 0 750 440"><path fill="none" stroke="#FFCD00" stroke-width="2" stroke-miterlimit="10" d="M694.8 30.9c-80.2-9.9-179.5-10.7-258.7-7.8 -98 3.6-196.7 0.9-293.7 2.6C95.6 27.6 91.6 23.9 63.1 36 43.7 44.2 25.1 80 24.4 99c-3.4 90.7-7 145.7-0.5 237.9 3.3 46.9 12.9 57.4 21.3 67.7 10.6 13 33.7 15.3 52.2 16.6 52.3 3.8 104.7-2.9 157.1-3.1 132.5-0.5 256.2 2.6 384.6 2.5 22.7 0 54.2-4.8 69.9-19.2 15.3-14.1 19.1-55.7 18.3-75.2 -2.3-57.4 4.9-114.8 2.6-172.1C728.1 114.1 738 36.2 694.8 30.9z"/><path fill="#FFCD00" d="M750 440H0V0h750V440zM61.3 425c85.7 9 172.1 11.3 255.1 8.2 102.5-3.8 200.6 5.6 307.4-0.8 -0.3 2.2 63.7-0.6 93.5-13.4 20.4-8.7 18.9-46 19.7-66.1 3.4-94 9.8-208.2-0.8-301.8 -0.7-6.2-1.5-12.6-4.7-18.3 -8.7-15.5-41.1-19.4-60.4-20.8 -54.7-4-109.6 3.1-164.4 3.3 -138.7 0.5-268.2-2.8-402.5-2.6 -23.8 0-50.5 0.8-66.9 16.1C21.2 43.8 11 91.9 11.9 112.6c2.4 60.7-5.1 121.3-2.7 182C10.9 336.9 10.5 419.6 61.3 425z"/></svg>