<?xml version="1.0" encoding="utf-8"?>
<!-- Generator: Adobe Illustrator 18.0.0, SVG Export Plug-In . SVG Version: 6.00 Build 0)  -->
<!DOCTYPE svg PUBLIC "-//W3C//DTD SVG 1.1//EN" "http://www.w3.org/Graphics/SVG/1.1/DTD/svg11.dtd">
<svg version="1.1" id="Layer_1" xmlns="http://www.w3.org/2000/svg" xmlns:xlink="http://www.w3.org/1999/xlink" x="0px" y="0px"
	 viewBox="-864 139.2 750.1 161.7" enable-background="new -864 139.2 750.1 161.7" xml:space="preserve">
<path fill="#FFCD00" d="M-810.9,297.2c87.7,3.4,176.3,4.3,261.3,3.1c105-1.5,205.5,2.1,314.9-0.3c-0.3,0.8,64.3-0.2,94.7-5.1
	c20.9-3.3,19.4-17.6,20.2-25.2c3.5-35.9,11.1-79.4,0.2-115.2c-8.4-15.4-47-14.4-66.8-14.9c-56.1-1.5-112.2,1.2-168.4,1.3
	c-142.1,0.2-274.7-1.1-412.3-1c-24.4,0-62,0.3-78.7,6.1c-16.5,5.7-20,78.2-17.5,101.4C-861.5,263.6-863,295.2-810.9,297.2z"/>
<path fill="none" stroke="#FFFFFF" stroke-width="5" stroke-linecap="round" stroke-miterlimit="10" d="M-188,174.2
	c12,9.8,16.3,17.4,26.1,26.5c5.7,5.3,15.9,15.4,16.1,23.1c-5.2,14.2-11.4,16-22.4,26.9c-3.7,3.7-18,15.2-22.1,18.4"/>
</svg>
