<svg xmlns="http://www.w3.org/2000/svg" viewBox="0 0 340.7 248.9"><path fill="#FFCD00" d="M117.7 77.3c-14.7 14.7-23.5 30.8-26.4 46.9 7.3 5.9 16.1 13.2 26.4 24.9s14.7 23.5 14.7 39.6 -4.4 30.8-14.7 42.5 -23.5 17.6-42.5 17.6c-20.5 0-35.2-7.3-45.5-22 -10.3-14.7-14.7-32.3-14.7-52.8 0-16.1 1.5-30.8 5.9-46.9 4.4-16.1 8.8-29.3 14.7-44C41.5 70 48.8 58.3 57.6 48c8.8-10.3 19.1-19.1 29.3-24.9 11.7-7.3 22-10.3 33.7-10.3 17.6 0 29.3 10.3 36.7 32.3C145.6 52.4 132.4 62.7 117.7 77.3z"/><path fill="#FFD700" d="M301.1 77.3c-14.7 14.7-23.5 30.8-26.4 46.9 7.3 5.9 16.1 13.2 26.4 24.9 10.3 10.3 14.7 23.5 14.7 39.6s-4.4 30.8-14.7 42.5c-10.3 11.7-23.5 17.6-42.5 17.6 -20.5 0-35.2-7.3-45.5-22s-14.7-32.3-14.7-52.8c0-16.1 1.5-30.8 5.9-46.9s8.8-29.3 14.7-44c5.9-13.2 13.2-24.9 22-35.2 8.8-10.3 19.1-19.1 29.3-24.9 11.7-7.3 22-10.3 33.7-10.3 17.6 0 29.3 10.3 36.7 32.3C328.9 52.4 315.7 62.7 301.1 77.3z"/><path fill="none" stroke="#FF9E1B" stroke-width="8" d="M146.3 36.3C138.9 14.3 127.2 4 109.6 4c-11.7 0-22 2.9-33.7 10.3 -10.3 5.9-20.5 14.7-29.3 24.9s-16.1 22-22 35.2 -11.7 27.9-14.7 44C5.5 134.5 4 149.2 4 165.3c0 20.5 4.4 38.1 14.7 52.8 10.3 14.7 24.9 22 45.5 22 17.6 0 32.3-5.9 42.5-17.6 10.3-11.7 14.7-26.4 14.7-42.5s-4.4-29.3-14.7-39.6c-10.3-10.3-19.1-19.1-26.4-24.9 2.9-16.1 11.7-32.3 26.4-46.9C118.4 52.4 133.1 42.1 146.3 36.3z"/><path fill="none" stroke="#FF9E1B" stroke-width="8" d="M329.6 36.3C322.3 14.3 310.5 4 292.9 4c-11.7 0-22 2.9-33.7 10.3 -10.3 5.9-20.5 14.7-29.3 24.9s-16.1 22-22 35.2c-5.9 13.2-11.7 27.9-14.7 44 -4.4 16.1-5.9 30.8-5.9 46.9 0 20.5 4.4 38.1 14.7 52.8 10.3 14.7 24.9 22 45.5 22 17.6 0 32.3-5.9 42.5-17.6 10.3-11.7 14.7-26.4 14.7-42.5s-4.4-29.3-14.7-39.6c-10.3-10.3-19.1-19.1-26.4-24.9 2.9-16.1 11.7-32.3 26.4-46.9C303.2 52.4 316.4 42.1 329.6 36.3z"/></svg>